<?xml version="1.0" encoding="utf-8"?>
<!-- Generator: Adobe Illustrator 24.2.0, SVG Export Plug-In . SVG Version: 6.00 Build 0)  -->
<svg version="1.1" id="Layer_1" xmlns="http://www.w3.org/2000/svg" xmlns:xlink="http://www.w3.org/1999/xlink" x="0px" y="0px"
	 viewBox="0 0 673.83 698.74" style="enable-background:new 0 0 673.83 698.74;" xml:space="preserve">
<style type="text/css">
	.st0{fill:#584841;}
	.st1{fill:#4E3D35;}
	.st2{fill:#493931;}
	.st3{fill:#4A3931;}
	.st4{fill:#F6F5F5;}
	.st5{fill:#4D4C4D;}
	.st6{fill:#49484A;}
	.st7{fill:#F5AA8A;}
	.st8{fill:#F9C2A8;}
	.st9{fill:#F1916E;}
	.st10{fill:#D0D0D2;}
	.st11{fill:#5E5E60;}
	.st12{fill:#EE8E6D;}
	.st13{fill:#F0A787;}
</style>
<g>
	<path class="st0" d="M350.74,0c0.02,3.61,0.04,7.21,0.05,10.82c0.01,1.88-0.69,3.53-2.74,3.38c-1.93-0.14-2.43-1.76-2.51-3.66
		c-0.15-3.67,0.54-7.14,1.82-10.53C348.49,0,349.62,0,350.74,0z"/>
	<path class="st1" d="M503.77,174.37c0.8-0.05,1.63,0,2.41-0.16c17.17-3.53,19.69-1.22,17.14,16.81
		c-2.32,16.45-8.57,31.35-19.65,43.84c-9.85,11.1-14.7,10.41-22.03-2.34c-0.55-0.96-1.13-1.92-1.76-2.97
		c-6.58,1.58-2.97,5.44-1.68,8.26c9.61,20.91,9.3,42,0.54,62.89c-17.99,42.91-69,60.79-110.05,38.89c-2.19-1.17-4.08-3.05-7.19-3.01
		c-0.21,10.51-0.05,19.93,11.95,25.52c8.5,3.95,15.49,10.79,21.38,18.67c6.88,9.21,8.75,18.89,4.73,29.26
		c-2.02,5.2-0.49,7.31,3.53,10.11c21.29,14.83,36.23,34.35,41.64,60.1c2.26,10.74,2.84,21.78-1.83,32.32
		c-4.06,9.17-10.82,11.82-19.68,7.39c-3.49-1.75-6.7-4.08-9.93-6.31c-3.23-2.22-6.32-4.65-9.74-7.18c-5.39,5-7.73,15.1-17.69,12.78
		c-7.46-1.74-11.72-9.19-18.4-12.69c-6.39,13.83-12.16,20.51-34.64-2.02c-14.41,17.38-26.9,17.36-38.69-3.61
		c-4.74,2.72-9.49,5.45-14.25,8.16c-10.84,6.18-16.67,5.74-23.97-4.1c-4.92-6.63-9.31-8.32-16.29-3.78
		c-2.51,1.64-5.69,2.31-8.62,3.24c-10.51,3.33-15.5,1.1-20.1-9.02c-7.09,2.47-13.65,6.25-21.28,7.53
		c-14.28,2.38-23.42-5.87-21.99-20.44c1.6-16.29,11.08-28.62,20.81-40.59c9.94-12.24,21.04-23.48,33.48-33.28
		c2.25-1.77,4.53-3.3,3.47-6.84c-7.21-24.27,6.01-37.1,25.93-47.16c2.5-1.26,5.01-2.84,7.69-3.33
		c13.36-2.43,13.53-13.13,15.66-23.69c-35.97,13.43-67.9,7.89-92.53-20.71c-25.44-29.53-25.55-62.68-6.25-96.82
		c-8.64,0.63-11.81-4.29-12.97-11.8c-0.59-3.79-1.84-7.74-3.8-11.02c-5.2-8.69-6.8-17.7-4.09-27.46c0.6-2.17,0.51-4.24,0.15-6.55
		c-1.42-9.19,4.39-14.68,13.51-12.71c4.51,0.97,8.1,3.3,11.87-2.55c2.07-3.21,7.75-1.32,11.87,0.06c2.05,0.69,4.8,2.97,6.42-0.79
		c4.76-11.1,12.09-8.41,19.84-3.79c0.45,0.27,1.09,0.2,2.31,0.39c2.6-3.19,3.23-8.86,8.84-9.65c5.14-0.72,8.24,2.87,11.81,5.47
		c10.14-12.11,11.73-12.39,18.6-3.31c10.57-10.94,11.18-11.02,18.41-2.35c2.79-0.56,3.74-3.22,5.5-4.92
		c7.89-7.63,12.66-7.39,17.79,2.08c9.15,16.9,13.94,34.97,10.59,54.25c-2.44,14.01-6.15,15.51-18.88,9.36
		c-1.22-0.59-2.46-1.14-3.86-1.79c-3.53,4.88-1.78,7.62,2.22,11.14c17.4,15.29,27.87,34.23,28.56,57.9
		c0.07,2.51-1.13,5.92,3.44,6.32c4.3,0.38,4.1-2.65,4.73-5.39c6.39-27.86,22.92-46.94,49.6-57.24c5.25-2.02,5.22-2.1,5.46-7.61
		c-2.51,0.4-4.9,1.11-7.31,1.12c-10.32,0.04-14.83-6.39-11.25-16.12c2.14-5.82,3.76-11.64,4.19-17.92c0.45-6.58,3.27-12.4,8.1-17.16
		c2.58-2.54,5.19-4.99,6.99-8.34c4.82-8.97,11.65-9.86,18.73-2.46c3.03,3.16,4.63,5.7,10.61,3.89c6.14-1.86,9.12,6.11,13.02,10.25
		c13.8-5.01,13.8-5.01,22.55,8.65c13.4-5.61,14.81-5.06,20.49,8.05c14.1-4.35,15.13-3.91,17.08,7.32
		C501.73,162.91,501.73,162.91,503.77,174.37z M464.05,249.83c0.02,1.85,0.04,3.69,0.07,5.54c-7.4,5.24-8.36-1.86-10.64-5.77
		c-14.23-24.39-44.98-34.37-68.59-22.13c-24.21,12.55-33.54,39.72-22.23,64.73c12.9,28.53,52.71,33.6,72.29,9.19
		c12.04-15,11.09-36.73-2.23-51.01c-11.28-12.09-30.2-14.18-43.85-4.38c-9.83,7.06-14.76,16.75-13.3,29.16
		c1.37,11.62,8.32,18.78,18.78,22.75c9.4,3.56,17.87,0.75,24.97-5.64c6.86-6.18,7.03-14.48,4.91-22.7
		c-2.05-7.96-8.66-10.89-15.98-11.6c-6.42-0.62-11.37,2.45-14.19,8.52c-1.86,4-1.22,7.66,1.3,11.11c2.23,3.06,4.91,4.63,8.63,2.4
		c-3.63-5.68-4.12-8.59-1.18-10.66c3.12-2.19,6.68-3.14,10.23-0.62c4.35,3.08,3.72,7.08,2.09,11.31c-4,10.43-16.75,13.28-24.67,5.48
		c-8.72-8.58-8.06-22.28,1.48-30.64c9.18-8.05,22.64-7.81,33.35,0.58c8.71,6.83,11.75,24.19,6.14,35.04
		c-6.34,12.26-20.34,19.22-34.75,17.26c-12.8-1.74-26.03-13.74-29.04-26.35c-4.39-18.37,3.96-36.69,20.73-45.54
		c16.66-8.79,38.56-5.03,51.1,8.78c16.62,18.3,17,45.53,0.9,63.9c-17.08,19.49-46.65,23.04-68.17,8.19
		c-18.07-12.47-26.62-35.25-21.8-58.08c4.53-21.47,22.93-39.43,44.18-44.03c11.01-2.39,21.62-0.44,32.75,1.7
		c-1.04-3.69-1.87-6.62-2.7-9.54c-12.07,2.82-12.11,2.86-20.2-5.79c-1.71-1.83-3.59-1.11-5.45-0.97
		c-28.48,2.14-53.83,23.8-60.81,51.91c-7.5,30.21,4.36,61.08,29.37,76.46c23.12,17.49,59.07,15.62,83.51-4.33
		c27.64-22.56,33.72-64.17,13.55-93.51c-1.26-1.83-1.83-5.61-5.75-3.84c-9.66,3.61-11.52-4.56-14.8-10.48
		c-3,1.53-6.18,1.6-8.24,4.59C448.8,227.19,457.15,237.81,464.05,249.83z M289.92,204.5c-3.16-4.47-7.69-7.23-12.4-9.69
		c-2.15-1.12-5.19-4.03-6.71-2.09c-6.26,7.97-11.81,2.14-17.45-0.35c-2.43,1.65-3.49,3.83-4.27,6.72
		c23.37,3.28,39.82,16.2,50.83,36.57c-0.18,1.87-0.35,3.73-0.53,5.6c-6.9,3.89-8.01-2.12-10.19-6.06
		c-11.15-20.15-35.63-31.43-57.28-26.33c-22.29,5.26-37.31,23.36-38.51,46.43c-0.96,18.33,10.53,36.87,27.21,43.91
		c16.45,6.94,36.05,2.77,48.09-10.22c11.85-12.79,13.68-31.99,4.47-46.85c-8.47-13.66-23.48-19.74-38.51-15.6
		c-12.93,3.56-23.22,15.86-23.94,28.6c-0.69,12.16,6.39,23.09,18.02,27.85c8.73,3.57,19.75,1.3,26.49-5.56
		c6.75-6.87,6.96-15.04,4.18-23.55c-2.45-7.52-8.81-9.82-15.83-10.45c-6.25-0.55-10.85,2.48-13.6,8.04
		c-2.21,4.48-1.52,8.75,1.73,12.54c2.62,3.04,5.53,3.63,9.02,0.52c-3.34-1.97-6.32-4.32-3.33-8.48c2.51-3.51,6.29-3.47,9.9-2.5
		c4.03,1.08,4.74,4.43,4.33,8.07c-0.73,6.51-4.2,10.67-10.43,12.97c-6.56,2.42-11.63,0.23-15.88-4.47
		c-5.84-6.46-7.02-13.91-3.44-21.9c3.95-8.8,10.91-13.51,20.51-13.68c21.02-0.37,34.5,22.65,24.5,41.63
		c-5.98,11.36-19.85,18.87-32.27,17.48c-14-1.56-27.65-13.04-31.16-26.21c-4.8-18.03,3.26-36.53,19.97-45.84
		c16.75-9.33,38.89-5.66,51.76,8.58c15.36,17.01,16.98,41.7,3.93,59.9c-13.98,19.49-40.27,26.63-62.57,16.99
		c-37.74-16.32-43.19-70.01-9.7-95.79c2.78-2.14,5.72-4.05,9.04-6.39c-3.12-2.42-5.65-4.38-8.06-6.25
		c-4.23,2.78-7.09,7.28-11.71,7.45c-5.38,0.2-8.15,3.48-10.81,6.97c-25.04,32.83-15.65,80.84,19.88,102.18
		c24.16,15.99,56.16,13.98,80.76-5.07C319.12,284.53,321.12,230.56,289.92,204.5z M374.37,167.37c-0.95,1.36-2.06,2.64-2.83,4.1
		c-1.71,3.25-3.79,6.87-1.09,10.21c2.58,3.19,6.24,2.67,10.08,1.53c3.29-0.98,6.93-0.75,10.83-1.09c-0.39,3.27-0.68,5.67-0.99,8.28
		c5.91,1.4,11.4,0.41,16.74-0.3c3.95,12.84,3.95,12.84,22.29,10.31c0.64,3.21,1.1,6.49,1.96,9.66c0.91,3.33,3.28,4.99,6.24,2.55
		c7.71-6.37,11.62-3.72,13.58,5.06c0.27,1.21,1.43,2.23,2.03,3.1c5.24-0.12,4.9-6.4,9.51-7.23c3.94,3.86,4.31,10.19,8.56,13.81
		c4.35-1.18,5.47-6.79,10.52-6.92c0.69,1.26,1.6,2.41,1.98,3.71c1.55,5.27,3.53,11.06,9.26,11.99c5.52,0.89,7.01-5.51,10.07-8.92
		c1.51-1.68,3.2-3.22,3.15-5.73c7.11-11.64,11.92-23.97,11.88-37.88c-0.01-4.81-1.07-6.76-6.43-4.87c-4.09,1.44-8.1,3.94-12.62,3.28
		c-1.67-1.87-1.13-3.93-1.34-5.85c-0.23-2.11,0.83-4.53-1.38-6.25c-0.56,0-1.14-0.13-1.64,0.02c-4.3,1.28-9.02,4.44-12.77,3.54
		c-7.14-1.72,1.92-8.44-2.39-12.11c-5.31,0.07-9.04,5.27-14.77,5.23c-0.67-3.36-1.08-6.67-2.02-9.82c-1.24-4.19-4.57-5.73-7.58-2.57
		c-7.63,8.01-9.77,1.89-12.64-4.09c-1.49-3.09-3.28-8.08-7.81-5.05c-8.06,5.38-12.52,2.43-16.15-5.06c-0.54-1.12-2-1.78-2.92-2.56
		c-3.67,0.89-3.83,6.24-8.11,5.47c-2.76-3.94-5.42-7.88-8.24-11.71c-2.48-3.36-6.25-4.15-8.51-0.84
		C383.14,141.65,371.54,151.36,374.37,167.37z M166.53,189.34c0.46,2.18,0.85,4.37,1.39,6.53c2.52,10.07,6.21,11.14,14.04,4.25
		c2.66-2.34,4.42-5.83,8.24-6.79c4.12,9.24,4.15,9.27,11.96,1.75c2.94-2.83,6.07-6.4,9.67-1.62c6.41,8.51,11.04,4.74,15.09-1.82
		c2.9-4.7,5.42-4.66,9.29-1.15c7.64,6.93,7.77,6.76,12.27-2.74c0.64-1.36,0.1-3.57,2.3-4c5.43,0.78,7.86,8.49,14.55,6.43
		c0.7-3.67-3.05-7.64,0.97-10.34c2.11-1.41,4.27,0.67,6.15,1.75c9.68,5.54,9.64,5.57,12.63-5.21c0.19-0.67,0.98-1.17,1.61-1.89
		c3.77,2.23,7.35,4.4,10.98,6.49c4.62,2.67,7.64,2.17,9.28-3.71c1.71-6.11,1.52-12.21,1.49-18.38c-3.06-11.3-4.55-23.07-10.67-33.43
		c-3.97-6.72-6.27-7.09-10.89-1.04c-2.61,3.41-5.19,6.84-7.78,10.25c-4.36-3.04-3.82-9.16-9.65-10.44
		c-2.68,3.74-4.62,9.16-8.34,11.05c-7.02,3.55-3.46-7.65-9.21-7.81c-2.11,0.89-3.31,3.06-4.75,5.14c-1.37,1.97-2.25,4.54-5.4,5.72
		c-2.1-1.98-4.3-4.08-6.51-6.15c-3.13-2.93-6.16-2.33-6.96,1.61c-2.08,10.25-7.54,8.53-13.69,4.31c-5.77-3.96-9.62-2.14-11.51,3.85
		c-1.69,5.35-4.11,5.23-8.63,3.22c-9.84-4.38-9.96-4.12-12.08,6.61c-4.7-1.83-9.33-3.6-13.93-5.44c-3.62-1.44-6.49-0.58-6.79,3.44
		C160.64,163.26,156.55,177.2,166.53,189.34z M287.85,320.4c-3.31,1.08-3.56,4.21-4.2,6.81c-7.15,29.16-14.11,58.36-21.3,87.51
		c-1.48,5.99-0.03,11.11,3.34,15.88c8.75,12.4,21.59,17.31,35.94,19.35c16.29,3.64,31.8,1.47,45.97-7.33
		c6.94-4.31,11.51-10.78,10.99-19.56c-1.48-24.94-2.87-49.89-4.77-74.79c-0.54-7.11,1.03-15.29-3.48-21.08
		c-4.8-6.17-9.52-12.46-14.45-18.55c-5.07-11.29-9.12-22.82-9.44-35.41c-0.05-2.08,0.79-5.58-2.91-6.06
		c-4.5-0.58-3.71,3.55-4.31,5.8c-3.21,12.06-8.55,23.01-16.03,32.96C298.09,310.75,292.97,315.58,287.85,320.4z M186.78,461.53
		c-6.44,4.68-8.08,12.03-9.78,18.99c-2.47,10.14,2.96,15.38,13.18,12.76c8.15-2.08,16.13-4.98,23.08-10.01
		c5.45-3.95,7.21-2.02,7.41,4.09c0.32,10.06,1.35,10.64,10.88,7.43c1.86-0.63,3.55-1.72,5.38-2.43c15.67-6.1,15.73-6.13,26.57,7.58
		c2.66,3.37,5.31,4.64,9.34,2.29c5.82-3.4,11.89-6.36,17.67-9.81c4.81-2.87,8.4-2.34,11.15,2.73c1.07,1.97,2.37,3.82,3.65,5.65
		c5.86,8.34,10.9,8.49,17.11,0.55c9.5-12.14,9.5-12.14,20.15-1.47c0.2,0.2,0.4,0.4,0.6,0.6c11.35,11.38,11.37,11.38,16.34-3.79
		c1.66-5.08,4.11-7.31,8.94-3.03c4.19,3.72,8.55,7.25,12.7,11.01c6.26,5.69,8.24,5.33,12.54-2.2c2.18-3.81,3.05-8.46,6.69-11.33
		c5.84,2.46,9.74,6.95,13.88,11.13c3.59,3.62,7.55,6.59,12.35,8.52c4.92,1.97,7.85,1.62,8.83-4.54
		c3.81-24.14-2.27-44.86-20.46-61.62c-1.33-4.69-5.87-6.5-8.93-9.56c-10.02-10.03-11.94-10-23.05-1.76
		c-0.67,0.5-1.37,1.03-2.15,1.29c-11.88,3.86-22.03,10.44-32.43,17.42c-15.56,10.44-33.96,9.26-51.91,6.33
		c-3.87-0.11-7.74-0.22-11.6-0.32c-0.49-0.97-0.73-2.47-1.5-2.83c-11.63-5.31-22.3-11.69-28.31-23.73c-0.42-0.84-1.72-1.6-2.7-1.75
		c-7.36-1.12-12.71-5.58-17.57-10.65c-3.48-3.63-6.26-3.74-9.82-0.08c-3.88,3.99-8.18,7.6-12.26,11.36
		C202.79,439.53,193.55,449.56,186.78,461.53z M364.11,367.26c-0.04,20.97,2.2,41.41,3.58,61.82c11.39,0.84,23.89-15.87,25.07-25.54
		C394.38,390.27,382.87,375.26,364.11,367.26z M252.03,420.36c5.15-21.27,10.01-41.4,15.2-62.83c-8.54,2.58-14.37,5.83-20.12,9.26
		c-9.82,5.86-16.23,13.57-14.89,25.93C233.58,405.19,240.18,413.74,252.03,420.36z"/>
	<path class="st2" d="M197.55,696.52c-19.36-0.4-38.72-0.7-57.97-3.25c-6.81-0.9-11.05-3.97-13.67-10.45
		c-13.48-33.29-12.08-66.7-1.47-100.3c1.71-5.43,5.6-8.38,10.97-9.16c32.9-4.78,65.75-7.03,98.54,1.25
		c9.71,2.45,15.67,6.89,16.89,17.68c3.2,28.41,2.3,56.65-2.34,84.76c-1.72,10.41-9.25,15.74-23.22,17.81
		c-4.71,0.7-9.46,1.31-14.21,1.6C206.56,696.74,202.05,696.52,197.55,696.52z M191.5,665.21c6.12-0.76,13.34-1.65,20.55-2.57
		c6.22-0.79,9.79-3.51,10.78-10.51c1.22-8.72,1.18-17.38,0.92-26.05c-0.17-5.69-2.63-9.78-9.29-11.03
		c-18.73-3.5-37.3-3.27-55.84,0.89c-4.3,0.97-6.71,4-7.13,8.34c-1,10.3-2.57,20.53-0.39,30.98c0.99,4.74,3.06,6.61,7.45,7.51
		C169.07,664.94,179.74,664.61,191.5,665.21z"/>
	<path class="st3" d="M418.35,661.25c19.1-0.89,37.56,1.09,56.04,1.32c6.19,0.08,12.39,0.14,18.58-0.1
		c3.67-0.14,6.79-1.65,6.38-6.11c-0.38-4.02,0.06-8.67-6.19-9.04c-15.41-0.91-30.8-2.29-46.22-3.04
		c-22.17-1.08-28.6-6.67-31.84-28.6c-3.07-20.76,5.46-36.99,22.56-43c23.2-8.15,46.92-7.32,70.76-4.09c5.82,0.79,11.58,2,17.8,3.1
		c0,12.42,0,24.72,0,38.82c-18.86,0-37.63-0.12-56.41,0.07c-6.44,0.06-12.87,1.33-19.3,1.27c-5.19-0.05-6.81,1.78-6.87,6.87
		c-0.06,5.11,1.68,6.34,6.7,7.02c21.12,2.84,42.63,2.61,63.41,7.99c14.4,3.73,25.64,17.52,26.32,32.29
		c0.44,9.59-3.35,16.67-12.21,21.15c-12.75,6.44-26.73,6.73-40.28,7.37c-20.49,0.97-41.08,0.88-61.63-0.17
		c-6.14-0.31-8.19-2.33-7.72-8.54C418.8,677.98,418.35,670.07,418.35,661.25z"/>
	<path class="st3" d="M277.78,661.23c17.68-0.94,36.13,1.09,54.6,1.31c5.63,0.07,11.26,0.15,16.89,0.11c4.4-0.03,8.82-0.29,8.75-6.4
		c-0.05-5.19-1.1-9.11-7.84-9.35c-14.31-0.5-28.59-1.75-42.89-2.53c-25.73-1.4-36.28-13.85-33.59-39.83
		c2.37-22.88,14.75-33.15,41.52-36.7c20.65-2.74,40.89-0.66,61.25,1.96c6.22,0.8,9,3.1,8.35,10.09c-0.7,7.49-1.17,15.26,0.68,22.7
		c1.45,5.83-0.45,7.24-6.1,7.24c-18.28,0-36.56,0.41-54.84,0.82c-4.76,0.11-9.52,1.21-14.26,1.1c-5.2-0.12-7.47,1.41-7.66,7.02
		c-0.21,6.02,2.72,6.35,7.58,7.03c20.82,2.91,42.04,2.61,62.54,7.94c14.77,3.84,26.39,18.98,26.15,34.09
		c-0.17,10.95-6.18,18.02-18.5,21.98c-10.82,3.48-22.13,4.25-33.25,4.69c-20.79,0.83-41.63,0.91-62.46-0.18
		c-5.33-0.28-7.38-1.92-7.05-7.52C278.14,678.48,277.78,670.12,277.78,661.23z"/>
	<path class="st2" d="M673.83,698.74c-14.71,1.92-28.72,0.86-42.68,1.33c-3.77,0.13-4.75-1.36-4.99-4.87
		c-0.84-12.07-4.45-23.54-7.7-35.14c-1.86-6.67-5.12-8.41-11.26-7.46c-4.15,0.64-8.36,0.87-13,1.33c0,10.68-0.21,21.05,0.1,31.4
		c0.14,4.61-1.01,6.47-5.97,6.29c-9.79-0.35-19.61-0.1-29.95-0.1c0.95-23.88,1.94-47.07,2.76-70.27c0.45-12.65,0.76-25.3,0.79-37.96
		c0.01-3.73,0.76-5.95,4.82-6.05c25.78-0.59,51.52-5.07,77.36-0.85c22.27,3.64,36.59,24.79,30.87,46.49
		c-3.64,13.81-14.46,19.06-28.81,20.51C656.02,661.89,666.32,679.33,673.83,698.74z M594.97,596.06c0.9,6.63,1.9,12.72,2.53,18.85
		c1.47,14.26,1.39,14.26,15.87,14.65c22.63,0.61,26.46-3.46,24.7-25.75c-0.53-6.68-3.44-10.36-10.51-10.37
		C616.92,593.42,606.25,592.92,594.97,596.06z"/>
	<path class="st2" d="M0,618.77c0-16.17,0-31.31,0-46.7c15.73,0,31.93-0.57,48.06,0.18c13.23,0.61,26.44,0.75,39.66,0.82
		c6.29,0.04,10.48,0.77,10.03,9.15c-0.52,9.68,0.87,19.47,1.44,29.58c-9.38,0.68-17.74,1.85-26.07,1.7c-5.43-0.1-6.48,2.1-6.96,6.66
		c-2.03,19.65,0.01,39.41-1.69,59.06c-1.65,19.06-1.7,19.06-20.81,19.07c-12.74,0.01-12.32,0.04-11.43-13.04
		c1.4-20.8,0.26-41.61-0.89-62.41c-0.24-4.41-2.6-4.09-5.5-4.08C17.71,618.8,9.58,618.77,0,618.77z"/>
	<path class="st0" d="M272.25,61.23c-6.16-8.07-7.04-15.66-8.35-22.85c-0.42-2.3,3.22-2.57,4.03-0.48
		C270.49,44.55,274.09,51.14,272.25,61.23z"/>
	<path class="st0" d="M349.22,34.76c-0.6,4.66-1.22,8.82-1.62,13c-0.18,1.88-0.73,3.61-2.71,3.46c-1.81-0.13-2.7-1.91-2.55-3.73
		c0.35-4.19,0.72-8.38,1.37-12.53c0.37-2.37-1.29-6.65,3.34-6.07C350.75,29.35,348.21,33.15,349.22,34.76z"/>
	<path class="st0" d="M432.69,54.14c-0.09,7.89-4.47,13.93-8.53,19.89c-1.24,1.81-4.62-0.41-3.79-2.16
		C423.45,65.39,425.73,58.14,432.69,54.14z"/>
	<path class="st0" d="M476.63,120.71c4.64-6.61,10.42-10.14,15.31-14.57c0.68-0.61,2.26-0.98,2.96-0.6
		c0.72,0.39,1.31,1.87,1.21,2.79C495.79,111.32,481.93,120.68,476.63,120.71z"/>
	<path class="st0" d="M517.79,89.64c-1.65,4.01-5.47,5.93-8.91,8.07c-1.47,0.92-2.9-0.85-2.63-2.14c0.97-4.57,5.27-6.02,8.67-8.15
		C516.11,86.67,517.43,87.82,517.79,89.64z"/>
	<path class="st0" d="M440.13,43.11c-1.12-1.48-1.71-1.9-1.72-2.33c-0.15-4.76,2.29-8.34,5.63-11.31c1-0.89,2.49,0.65,2.49,1.27
		C446.55,35.66,443.34,38.93,440.13,43.11z"/>
	<path class="st1" d="M259.55,24.56c-2.02-5.46-4.39-9.4-3.31-14.36C262.57,12.65,264.01,17.86,259.55,24.56z"/>
	<path class="st1" d="M168.07,57.19c5.04,0.71,6.95,3.73,8.14,7.03c0.49,1.37-1.54,2.52-2.78,1.96
		C170.08,64.67,167.76,62.22,168.07,57.19z"/>
	<path class="st4" d="M367.55,328.4c-25.01-15.38-36.86-46.25-29.37-76.46c6.98-28.12,32.32-49.77,60.81-51.91
		c1.86-0.14,3.74-0.86,5.45,0.97c8.09,8.65,8.13,8.61,20.2,5.79c0.82,2.92,1.66,5.85,2.7,9.54c-11.13-2.14-21.74-4.08-32.75-1.7
		c-21.25,4.6-39.64,22.56-44.18,44.03c-4.82,22.83,3.73,45.61,21.8,58.08c21.52,14.85,51.09,11.3,68.17-8.19
		c16.1-18.37,15.72-45.61-0.9-63.9c-12.54-13.8-34.44-17.57-51.1-8.78c-16.78,8.85-25.12,27.17-20.73,45.54
		c3.01,12.61,16.24,24.61,29.04,26.35c14.41,1.96,28.41-4.99,34.75-17.26c5.61-10.85,2.57-28.21-6.14-35.04
		c-10.71-8.4-24.17-8.63-33.35-0.58c-9.54,8.36-10.2,22.06-1.48,30.64c7.92,7.8,20.67,4.95,24.67-5.48
		c1.62-4.23,2.25-8.24-2.09-11.31c-3.55-2.51-7.11-1.57-10.23,0.62c-2.94,2.06-2.45,4.98,1.18,10.67c-3.72,2.22-6.39,0.65-8.62-2.41
		c-2.52-3.45-3.16-7.11-1.3-11.11c2.82-6.07,7.77-9.15,14.19-8.52c7.31,0.71,13.92,3.64,15.98,11.6c2.12,8.22,1.95,16.53-4.91,22.7
		c-7.1,6.39-15.57,9.21-24.97,5.64c-10.46-3.96-17.41-11.13-18.78-22.75c-1.46-12.4,3.47-22.09,13.3-29.16
		c13.65-9.81,32.56-7.72,43.85,4.38c13.32,14.28,14.27,36,2.23,51.01c-19.58,24.4-59.39,19.34-72.29-9.19
		c-11.31-25.01-1.98-52.17,22.23-64.73c23.61-12.24,54.35-2.26,68.59,22.13c2.28,3.9,3.24,11.01,10.64,5.77
		c4,11.76,0.08,22.78-4.29,33.21c-13.61,32.46-50.98,51.38-86.5,39.44C371.53,327.42,369.24,325.1,367.55,328.4z"/>
	<path class="st4" d="M205.23,315.25c-35.54-21.35-44.93-69.35-19.88-102.18c2.66-3.49,5.43-6.76,10.81-6.97
		c4.62-0.17,7.48-4.67,11.71-7.45c2.41,1.87,4.94,3.83,8.06,6.25c-3.32,2.33-6.26,4.25-9.04,6.39
		c-33.49,25.78-28.04,79.47,9.7,95.79c22.29,9.64,48.58,2.5,62.57-16.99c13.05-18.19,11.43-42.89-3.93-59.9
		c-12.86-14.24-35.01-17.91-51.76-8.58c-16.7,9.31-24.76,27.81-19.97,45.84c3.5,13.16,17.16,24.65,31.16,26.21
		c12.43,1.38,26.29-6.13,32.27-17.48c9.99-18.98-3.48-42.01-24.5-41.63c-9.6,0.17-16.56,4.88-20.51,13.68
		c-3.59,7.99-2.4,15.44,3.44,21.9c4.25,4.7,9.33,6.89,15.88,4.47c6.22-2.3,9.7-6.46,10.43-12.97c0.41-3.65-0.3-6.99-4.33-8.07
		c-3.61-0.97-7.39-1-9.9,2.5c-2.99,4.17,0,6.51,3.33,8.48c-3.5,3.11-6.41,2.53-9.02-0.52c-3.25-3.79-3.94-8.06-1.73-12.54
		c2.75-5.56,7.35-8.59,13.6-8.04c7.02,0.62,13.37,2.92,15.83,10.45c2.78,8.5,2.57,16.68-4.18,23.55
		c-6.74,6.86-17.77,9.13-26.49,5.56c-11.63-4.76-18.71-15.69-18.02-27.85c0.72-12.74,11.01-25.04,23.94-28.6
		c15.02-4.14,30.03,1.94,38.51,15.6c9.22,14.86,7.39,34.06-4.47,46.85c-12.04,13-31.65,17.16-48.09,10.22
		c-16.68-7.04-28.17-25.58-27.21-43.91c1.2-23.07,16.22-41.17,38.51-46.43c21.65-5.11,46.13,6.18,57.28,26.33
		c2.18,3.94,3.29,9.95,10.19,6.06c1.56,0.99,2.36,2.46,2.18,4.25c-1.74,17.16-5.15,33.64-17.5,46.92
		c-19.94,21.42-44.29,27.83-72.47,22.06C209.6,314.07,206.87,311.23,205.23,315.25z"/>
	<path class="st5" d="M296.53,458.34c17.95,2.94,36.35,4.11,51.91-6.33c10.4-6.98,20.55-13.56,32.43-17.42
		c0.77-0.25,1.48-0.79,2.15-1.29c11.11-8.24,13.03-8.27,23.05,1.76c3.06,3.06,7.6,4.87,8.93,9.56c-2.74,1.16-3,3.59-3.61,6.15
		c-2.78,11.63-8.36,21.95-15.27,31.62c-2.53,3.54-5.76,6.49-9.76,3.33c-11.57-9.13-22.04-7.23-32.36,1.91
		c-3.77,3.34-6.71,1.92-10.02-1.42c-7.96-8.05-11.73-8.61-20.01-1.57c-5.06,4.3-7.95,4.11-12.52-0.47
		c-10.12-10.16-13.8-10.42-26.63-4.02c-2.77,1.38-5.92,2.35-8.16,4.34c-6.41,5.67-10.35,4.01-14.13-3.11
		c-5.56-10.46-7.61-11.16-17.61-5.66c-6.47,3.56-11.68,3.15-16.55-2.2c-3.69-4.04-8.4-4.59-13.57-5.47
		c-9.42-1.6-19.86,0.54-28.02-6.52c6.77-11.97,16.01-22,25.98-31.2c4.08-3.76,8.38-7.37,12.26-11.36c3.56-3.66,6.35-3.55,9.82,0.08
		c4.86,5.07,10.21,9.53,17.57,10.65c0.99,0.15,2.28,0.91,2.7,1.75c6.01,12.04,16.68,18.42,28.31,23.73c0.77,0.35,1.01,1.86,1.5,2.83
		c-2.25,0.05-4.52-0.11-6.74,0.17c-10.69,1.37-19.96-0.68-26.47-10.24c-1.44-2.11-3.69-3.75-6.47-3.26
		c-7.05,1.24-11.92-2.18-15.81-7.36c-3.99-5.32-8.17-5.1-12.63-0.93c-4.92,4.59-9.85,9.19-14.52,14.04
		c-2.08,2.16-4.74,5.15-2.78,8.11c1.89,2.86,5.18,0.7,7.72-0.2c8.87-3.13,17.32-4.8,23.06,5.34c3.16,5.59,6.6,5.05,11.65,1.78
		c9.78-6.33,12.8-5.35,18.54,4.95c3.66,6.57,7.1,8.01,13.84,2.94c10.06-7.57,25.28-6.9,31.65,0.45c3.75,4.32,8.03,8.05,13.63,5.96
		c5.97-2.23,10.49-6.86,12.13-14.04c-6.95-0.75-11.85,6.33-18.83,3.26C306.79,466.3,300.48,464.21,296.53,458.34z"/>
	<path class="st6" d="M186.78,461.53c8.16,7.06,18.6,4.93,28.02,6.52c5.16,0.87,9.88,1.43,13.57,5.47
		c4.88,5.34,10.08,5.76,16.55,2.2c10-5.5,12.05-4.8,17.61,5.66c3.78,7.12,7.72,8.78,14.13,3.11c2.24-1.99,5.39-2.96,8.16-4.34
		c12.83-6.4,16.51-6.13,26.63,4.02c4.57,4.59,7.46,4.77,12.52,0.47c8.28-7.04,12.05-6.48,20.01,1.57c3.3,3.34,6.24,4.77,10.02,1.42
		c10.32-9.14,20.79-11.04,32.36-1.91c4,3.15,7.23,0.2,9.76-3.33c6.91-9.67,12.49-19.99,15.27-31.62c0.61-2.56,0.86-4.99,3.61-6.15
		c18.19,16.77,24.27,37.49,20.46,61.62c-0.97,6.16-3.91,6.52-8.83,4.54c-4.8-1.93-8.76-4.9-12.35-8.52
		c-4.14-4.18-8.04-8.67-13.88-11.13c-3.64,2.88-4.51,7.52-6.69,11.33c-4.31,7.52-6.28,7.89-12.54,2.2
		c-4.15-3.77-8.51-7.3-12.7-11.01c-4.83-4.28-7.28-2.05-8.94,3.03c-4.97,15.17-4.99,15.16-16.34,3.79c-0.2-0.2-0.4-0.4-0.6-0.6
		c-10.64-10.67-10.64-10.67-20.15,1.47c-6.21,7.94-11.26,7.79-17.11-0.55c-1.29-1.84-2.59-3.69-3.65-5.65
		c-2.75-5.07-6.34-5.6-11.15-2.73c-5.79,3.45-11.85,6.41-17.67,9.81c-4.03,2.35-6.68,1.08-9.34-2.29
		c-10.84-13.71-10.9-13.68-26.57-7.58c-1.83,0.71-3.53,1.8-5.38,2.43c-9.53,3.21-10.56,2.63-10.88-7.43
		c-0.19-6.11-1.95-8.03-7.41-4.09c-6.95,5.03-14.93,7.92-23.08,10.01c-10.22,2.61-15.66-2.62-13.18-12.76
		C178.7,473.56,180.33,466.21,186.78,461.53z"/>
	<path class="st7" d="M301.63,449.95c-14.35-2.04-27.19-6.95-35.94-19.35c-3.36-4.77-4.81-9.89-3.34-15.88
		c7.19-29.15,14.15-58.35,21.3-87.51c0.64-2.6,0.89-5.73,4.2-6.81c-6.35,29.54-12.22,59.2-19.22,88.58
		c-4.67,19.58,3.38,22.5,16.79,24.93c16.72,3.03,29.54-0.69,28.24-23.07c-1.4-24.17,2.7-48.28,1.69-72.49
		c-0.1-2.45,0.92-4.93,1.32-7.41c2.33-14.17-1.38-21.04-13.48-25.02c7.48-9.95,12.83-20.9,16.03-32.96c0.6-2.24-0.2-6.38,4.31-5.8
		c3.7,0.48,2.86,3.97,2.91,6.06c0.32,12.6,4.36,24.13,9.44,35.42c0.49,10.62,0.62,21.27,1.55,31.85
		c2.26,25.66,4.35,51.31,4.91,77.08c0.2,9.29-3.9,15.63-11.29,21.17C322.16,445.43,311.18,445.58,301.63,449.95z"/>
	<path class="st5" d="M166.53,189.34c-9.98-12.14-5.88-26.08-4.89-39.56c0.3-4.03,3.17-4.89,6.79-3.44
		c4.6,1.83,9.23,3.61,13.93,5.44c2.12-10.73,2.24-10.99,12.08-6.61c4.52,2.01,6.93,2.13,8.63-3.22c1.89-5.98,5.74-7.8,11.51-3.85
		c6.16,4.22,11.62,5.94,13.69-4.31c0.8-3.93,3.83-4.54,6.96-1.61c2.21,2.08,4.41,4.17,6.51,6.15c3.15-1.18,4.03-3.75,5.4-5.72
		c1.45-2.08,2.64-4.26,4.75-5.14c5.75,0.17,2.19,11.36,9.21,7.81c3.73-1.88,5.66-7.31,8.34-11.05c5.83,1.28,5.29,7.4,9.65,10.44
		c2.58-3.41,5.17-6.83,7.78-10.25c4.61-6.05,6.92-5.68,10.89,1.04c6.12,10.36,7.61,22.13,10.67,33.43c-1.43,0.25-2.83,0.65-3.1,2.33
		c-1.38,8.46-6.63,6.75-11.9,4.44c-2.28-1-4.24-2.71-6.46-3.9c-2.58-1.38-4.92-1.66-5.5,2.21c-1.5,9.9-6.25,8.55-12.37,3.77
		c-3.1-2.43-7.43-4.29-7.71,1.94c-0.43,9.67-4.49,7.77-9.67,3.86c-4.02-3.04-6.79-4.23-9.48,1.96c-3.46,7.94-6.03,8.29-11.94,2.23
		c-3.79-3.89-6.37-3.48-9.49,0.35c-1.59,1.95-3.6,3.54-5.32,5.4c-2.97,3.19-6.06,3.12-8.5-0.24c-4.87-6.72-8.91-5.35-13.73,0.24
		c-2.57,2.98-6.25,6.54-9.63-0.09c-2.31-4.54-5-1.71-7.32,0.41C173.47,186.4,171.23,190.04,166.53,189.34z M253.77,158.23
		c1-4.44,0.34-8.45,3.14-11.82c1.69-2.04,1.3-4.96-1.13-6.74c-2.7-1.98-4.84-0.29-6.57,1.69c-2.71,3.09-5.33,4.89-9.11,1.37
		c-1.34-1.24-3.25-0.5-4.75,0.39c-5.78,3.41-11.63,5.38-18.41,2.67c-2.35-0.94-4.42,1.19-5.46,3.15c-3.61,6.84-8.87,5.63-14.4,3.27
		c-2.88-1.23-7.09-3.37-8.4-0.31c-3.9,9.15-10.22,7.72-17.31,5.64c-2.29-0.67-4.84-0.29-5.78,2.19c-1.64,4.33,1.78,7.38,3.56,10.72
		c1.15,2.16,3.18,1.8,5.01,0.3c4.06-3.32,8.42-4.53,13.16-1.42c3.22,2.11,4.3-0.49,5.98-2.36c3.6-3.98,7.05-5.6,11.98-0.97
		c4.86,4.57,10.05,4.49,13.81-2.27c3.01-5.39,6.93-8.13,12.69-3.02c1.78,1.58,3.6,2.31,5.56-0.46
		C244.23,150.55,244.33,150.62,253.77,158.23z"/>
	<path class="st5" d="M374.37,167.37c-2.84-16.01,8.77-25.72,16.46-37c2.26-3.32,6.04-2.52,8.51,0.84
		c2.82,3.82,5.47,7.76,8.24,11.71c4.28,0.77,4.44-4.58,8.11-5.47c0.92,0.77,2.38,1.44,2.92,2.56c3.63,7.5,8.09,10.44,16.15,5.06
		c4.54-3.02,6.33,1.96,7.81,5.05c2.87,5.98,5.01,12.1,12.64,4.09c3.01-3.16,6.34-1.62,7.58,2.57c0.93,3.15,1.35,6.46,2.02,9.82
		c5.73,0.03,9.46-5.16,14.77-5.23c4.3,3.68-4.75,10.39,2.39,12.11c3.75,0.9,8.47-2.26,12.77-3.54c0.5-0.15,1.08-0.02,1.64-0.02
		c2.2,1.72,1.14,4.14,1.38,6.25c0.21,1.92-0.33,3.97,1.34,5.85c4.51,0.66,8.53-1.84,12.62-3.28c5.36-1.89,6.41,0.06,6.43,4.87
		c0.04,13.92-4.77,26.25-11.88,37.88c-7,3.08-11.79,1.35-14.17-6.25c-0.66-2.12-1.9-4.08-3.01-6.03c-1.29-2.25-3.36-3.72-5.35-1.31
		c-6.98,8.45-10.19,3.81-13.02-3.37c-2.15-5.46-4.47-6.49-8.53-1.02c-3.18,4.3-7,3.68-8.36-1.91c-1.9-7.76-5.36-8.86-11.67-4.02
		c-3.14,2.42-8.1,3.21-8.18-2.28c-0.15-11.08-6.02-10.44-13.26-7.66c-6.45,2.48-9.71,0.04-10.33-6.22c-0.65-6.51-3.34-7.9-9.56-6.02
		c-3,0.91-8.87,2.8-9.25-3.39c-0.43-7.01-3.71-6.95-8.89-5.51C380.04,167.24,377.15,167.11,374.37,167.37z M463.75,187.69
		c2.79-2.67,4.09-5.83,7.29-6.63c2.66-0.67,5.05-1.8,4.42-5.04c-0.71-3.65-3.83-3.48-6.7-3.6c-2.41-0.09-5.38,0.77-6.4-2.57
		c-1.31-4.32-4.73-4.47-8.15-4.11c-4.69,0.49-8.06-1.38-11.07-4.77c-2.22-2.5-5.54-6.28-8.35-4.39c-8.24,5.52-11.55,0.06-15.34-5.43
		c-2.84-4.1-6.3-5.58-10.66-2.15c-2.89,2.27-5.17,1.13-7.38-1.1c-2.18-2.2-4.37-4.39-6.69-6.44c-1.38-1.22-3.28-1.49-4.64-0.2
		c-2.79,2.66-3.49,6.3-3.64,9.96c-0.07,1.8,1.41,4.11,2.78,3.58c7.57-2.96,10.65,2.07,13.84,7.14c1.85,2.94,4.21,1.03,5.95,0.27
		c5.2-2.27,8.56-0.09,9.7,4.56c2.22,9.08,7.73,9.82,15.11,7.06c5-1.87,8.83-1.69,10.1,4.66c0.57,2.84,1.91,4.48,5.37,2.72
		C458.65,176.41,458.71,176.52,463.75,187.69z"/>
	<path class="st8" d="M303.21,305.92c12.1,3.99,15.81,10.85,13.48,25.02c-0.41,2.48-1.43,4.97-1.32,7.41
		c1.01,24.21-3.09,48.32-1.69,72.49c1.29,22.38-11.53,26.1-28.24,23.07c-13.41-2.43-21.46-5.35-16.79-24.93
		c7-29.38,12.87-59.04,19.22-88.58C292.97,315.58,298.09,310.75,303.21,305.92z"/>
	<path class="st9" d="M301.63,449.95c9.55-4.37,20.53-4.52,29.44-11.21c7.39-5.54,11.49-11.88,11.29-21.17
		c-0.55-25.77-2.65-51.42-4.91-77.08c-0.93-10.58-1.06-21.23-1.55-31.85c4.94,6.09,9.65,12.38,14.45,18.55
		c4.51,5.79,2.94,13.97,3.48,21.08c1.9,24.91,3.29,49.86,4.77,74.79c0.52,8.78-4.06,15.26-10.99,19.56
		C333.43,451.42,317.92,453.59,301.63,449.95z"/>
	<path class="st6" d="M374.37,167.37c2.78-0.26,5.66-0.13,8.31-0.86c5.18-1.44,8.46-1.5,8.89,5.51c0.38,6.19,6.25,4.3,9.25,3.39
		c6.23-1.88,8.91-0.49,9.56,6.02c0.63,6.26,3.89,8.7,10.33,6.22c7.24-2.78,13.11-3.42,13.26,7.66c0.07,5.49,5.03,4.69,8.18,2.28
		c6.31-4.85,9.77-3.75,11.67,4.02c1.37,5.59,5.18,6.21,8.36,1.91c4.06-5.48,6.38-4.44,8.53,1.02c2.83,7.18,6.04,11.82,13.02,3.37
		c1.99-2.42,4.06-0.95,5.35,1.31c1.12,1.95,2.35,3.91,3.01,6.03c2.38,7.6,7.17,9.33,14.17,6.25c0.05,2.52-1.64,4.05-3.15,5.73
		c-3.07,3.42-4.56,9.82-10.07,8.92c-5.73-0.93-7.71-6.72-9.26-11.99c-0.38-1.3-1.29-2.45-1.98-3.71c-5.06,0.13-6.18,5.74-10.52,6.92
		c-4.25-3.61-4.61-9.95-8.56-13.81c-4.61,0.83-4.27,7.11-9.51,7.23c-0.59-0.88-1.76-1.89-2.03-3.1c-1.96-8.77-5.86-11.42-13.58-5.06
		c-2.95,2.44-5.33,0.78-6.24-2.55c-0.87-3.17-1.33-6.45-1.96-9.66c-18.33,2.52-18.33,2.52-22.29-10.31
		c-5.34,0.71-10.83,1.69-16.74,0.3c0.31-2.61,0.6-5.01,0.99-8.28c-3.9,0.34-7.55,0.11-10.83,1.09c-3.84,1.14-7.5,1.66-10.08-1.53
		c-2.7-3.34-0.62-6.96,1.09-10.21C372.31,170.01,373.42,168.73,374.37,167.37z"/>
	<path class="st6" d="M166.53,189.34c4.71,0.7,6.94-2.94,9.78-5.55c2.32-2.12,5.01-4.95,7.32-0.41c3.38,6.63,7.06,3.07,9.63,0.09
		c4.82-5.6,8.86-6.96,13.73-0.24c2.44,3.36,5.53,3.44,8.5,0.24c1.72-1.85,3.73-3.45,5.32-5.4c3.12-3.83,5.7-4.24,9.49-0.35
		c5.91,6.06,8.48,5.71,11.94-2.23c2.7-6.18,5.46-4.99,9.48-1.96c5.18,3.91,9.24,5.8,9.67-3.86c0.28-6.23,4.61-4.36,7.71-1.94
		c6.12,4.78,10.87,6.13,12.37-3.77c0.58-3.87,2.92-3.58,5.5-2.21c2.22,1.18,4.18,2.89,6.46,3.9c5.27,2.32,10.53,4.03,11.9-4.44
		c0.27-1.67,1.67-2.08,3.1-2.33c0.03,6.17,0.22,12.27-1.49,18.38c-1.64,5.87-4.66,6.37-9.28,3.71c-3.62-2.09-7.2-4.25-10.98-6.49
		c-0.63,0.72-1.42,1.22-1.61,1.89c-3,10.78-2.96,10.75-12.63,5.21c-1.89-1.08-4.04-3.17-6.15-1.75c-4.02,2.69-0.27,6.66-0.97,10.34
		c-6.69,2.06-9.12-5.66-14.55-6.43c-2.2,0.42-1.65,2.64-2.3,4c-4.5,9.5-4.63,9.68-12.27,2.74c-3.87-3.51-6.39-3.55-9.29,1.15
		c-4.05,6.56-8.68,10.34-15.09,1.82c-3.6-4.78-6.74-1.2-9.67,1.62c-7.81,7.51-7.84,7.48-11.96-1.75c-3.82,0.96-5.59,4.45-8.24,6.79
		c-7.83,6.88-11.51,5.81-14.04-4.25C167.37,193.71,166.99,191.52,166.53,189.34z"/>
	<path class="st10" d="M205.23,315.25c1.63-4.02,4.36-1.17,6.37-0.76c28.18,5.77,52.54-0.64,72.47-22.06
		c12.35-13.28,15.76-29.76,17.5-46.92c0.18-1.79-0.62-3.26-2.18-4.25c0.18-1.87,0.35-3.73,0.53-5.6c0.52-6.65-2.37-12.46-4.69-18.36
		c-1.69-4.29-6-7.5-5.31-12.79c31.2,26.06,29.19,80.03-3.93,105.68C261.39,329.23,229.39,331.24,205.23,315.25z"/>
	<path class="st11" d="M296.53,458.34c3.96,5.87,10.26,7.96,16.37,10.65c6.98,3.08,11.88-4,18.83-3.26
		c-1.63,7.18-6.15,11.81-12.13,14.04c-5.6,2.09-9.88-1.64-13.63-5.96c-6.37-7.35-21.59-8.01-31.65-0.45
		c-6.74,5.07-10.18,3.63-13.84-2.94c-5.74-10.29-8.76-11.28-18.54-4.95c-5.05,3.27-8.49,3.81-11.65-1.78
		c-5.74-10.15-14.2-8.47-23.06-5.34c-2.53,0.89-5.83,3.06-7.72,0.2c-1.96-2.97,0.7-5.95,2.78-8.11c4.67-4.85,9.59-9.45,14.52-14.04
		c4.47-4.17,8.65-4.39,12.63,0.93c3.89,5.18,8.75,8.6,15.81,7.36c2.78-0.49,5.03,1.15,6.47,3.26c6.51,9.55,15.77,11.6,26.47,10.24
		c2.22-0.28,4.49-0.13,6.74-0.17C288.79,458.12,292.66,458.23,296.53,458.34z"/>
	<path class="st10" d="M367.55,328.4c1.69-3.3,3.99-0.98,5.78-0.38c35.52,11.94,72.89-6.99,86.5-39.44
		c4.37-10.43,8.29-21.45,4.29-33.21c-0.02-1.85-0.04-3.69-0.07-5.53c1.25-8.37-5.63-14.92-5.19-23.11c3.91-1.76,4.49,2.02,5.75,3.84
		c20.17,29.34,14.08,70.95-13.55,93.51C426.62,344.02,390.67,345.89,367.55,328.4z"/>
	<path class="st12" d="M364.11,367.26c18.76,7.99,30.27,23.01,28.65,36.28c-1.18,9.68-13.68,26.38-25.07,25.54
		C366.31,408.68,364.07,388.23,364.11,367.26z"/>
	<path class="st13" d="M252.03,420.36c-11.84-6.62-18.45-15.18-19.81-27.64c-1.35-12.36,5.06-20.07,14.89-25.93
		c5.75-3.43,11.59-6.68,20.12-9.26C262.04,378.97,257.17,399.09,252.03,420.36z M254.2,384.06c-0.53-2.78,1.15-10.28-6.9-7.96
		c-5.42,1.56-9.6,6.88-11.15,12.88c-1.01,3.89,0.77,7.2,4.53,8.98c3.55,1.68,7.09,1.79,10.04-1.32
		C253.57,393.63,254.72,389.97,254.2,384.06z"/>
	<path class="st4" d="M289.92,204.5c-0.69,5.3,3.62,8.5,5.31,12.79c2.32,5.9,5.21,11.71,4.69,18.36
		c-11.01-20.36-27.46-33.29-50.83-36.57c0.78-2.89,1.85-5.07,4.27-6.72c5.64,2.48,11.2,8.31,17.45,0.35
		c1.52-1.94,4.56,0.97,6.71,2.09C282.24,197.27,286.77,200.03,289.92,204.5z"/>
	<path class="st4" d="M458.86,226.72c-0.44,8.19,6.44,14.74,5.19,23.11c-6.9-12.02-15.25-22.64-28.22-29
		c2.06-2.99,5.24-3.06,8.24-4.59C447.34,222.16,449.2,230.33,458.86,226.72z"/>
	<path class="st11" d="M253.77,158.23c-9.45-7.61-9.54-7.68-16.43,2.01c-1.96,2.76-3.78,2.04-5.56,0.46
		c-5.76-5.12-9.68-2.38-12.69,3.02c-3.77,6.76-8.95,6.84-13.81,2.27c-4.93-4.63-8.38-3.01-11.98,0.97
		c-1.69,1.87-2.77,4.47-5.98,2.36c-4.74-3.11-9.1-1.91-13.16,1.42c-1.83,1.5-3.86,1.86-5.01-0.3c-1.77-3.34-5.2-6.39-3.56-10.72
		c0.94-2.48,3.49-2.86,5.78-2.19c7.09,2.08,13.42,3.51,17.31-5.64c1.31-3.07,5.52-0.93,8.4,0.31c5.53,2.36,10.79,3.57,14.4-3.27
		c1.03-1.96,3.11-4.09,5.46-3.15c6.79,2.71,12.64,0.75,18.41-2.67c1.5-0.89,3.41-1.63,4.75-0.39c3.79,3.52,6.4,1.72,9.11-1.37
		c1.73-1.97,3.87-3.66,6.57-1.69c2.43,1.78,2.82,4.7,1.13,6.74C254.12,149.77,254.77,153.79,253.77,158.23z"/>
	<path class="st11" d="M463.75,187.69c-5.04-11.17-5.1-11.28-14.48-6.49c-3.46,1.76-4.81,0.12-5.37-2.72
		c-1.27-6.35-5.1-6.53-10.1-4.66c-7.37,2.76-12.89,2.02-15.11-7.06c-1.14-4.65-4.5-6.83-9.7-4.56c-1.74,0.76-4.09,2.68-5.95-0.27
		c-3.19-5.07-6.27-10.1-13.84-7.14c-1.37,0.54-2.85-1.78-2.78-3.58c0.15-3.67,0.84-7.31,3.64-9.96c1.36-1.29,3.26-1.02,4.64,0.2
		c2.32,2.05,4.51,4.24,6.69,6.44c2.21,2.23,4.5,3.36,7.38,1.1c4.37-3.43,7.83-1.95,10.66,2.15c3.8,5.49,7.1,10.95,15.34,5.43
		c2.81-1.88,6.13,1.89,8.35,4.39c3.01,3.39,6.38,5.26,11.07,4.77c3.43-0.36,6.84-0.21,8.15,4.11c1.01,3.34,3.99,2.48,6.4,2.57
		c2.87,0.11,5.99-0.06,6.7,3.6c0.63,3.24-1.76,4.37-4.42,5.04C467.84,181.86,466.54,185.02,463.75,187.69z"/>
	<path class="st8" d="M254.2,384.06c0.52,5.91-0.63,9.57-3.48,12.58c-2.94,3.11-6.49,2.99-10.04,1.32
		c-3.76-1.77-5.54-5.08-4.53-8.98c1.56-6,5.74-11.33,11.15-12.88C255.35,373.79,253.67,381.28,254.2,384.06z"/>
</g>
</svg>
