<svg id="Layer_1" data-name="Layer 1" xmlns="http://www.w3.org/2000/svg" viewBox="0 0 698.25 757.56"><defs><style>.cls-1{fill:#fefefd;}.cls-2{fill:#4e3d35;}.cls-3{fill:#493931;}.cls-4{fill:#4a3931;}.cls-5{fill:#584841;}.cls-6{fill:#f6f5f5;}.cls-7{fill:#4d4c4d;}.cls-8{fill:#49484a;}.cls-9{fill:#f5aa8a;}.cls-10{fill:#f9c2a8;}.cls-11{fill:#f1916e;}.cls-12{fill:#d0d0d2;}.cls-13{fill:#5e5e60;}.cls-14{fill:#ee8e6d;}.cls-15{fill:#f0a787;}.cls-16{fill:#fcfcfc;}</style></defs><path class="cls-1" d="M50.88,778.62V21.22H749q0,374.9.16,749.79c0,6.34-1.42,7.78-7.76,7.77Q396.12,778.5,50.88,778.62ZM463.25,529.54c7.05,4.69,13.32,9.51,20.17,13.26,8.68,4.74,15.58,1.84,19.64-7.34,4.67-10.53,4.09-21.57,1.83-32.31-5.41-25.74-20.35-45.27-41.64-60.1-4-2.8-5.56-4.9-3.54-10.11,4-10.36,2.16-20-4.72-29.25C449.1,395.8,442.12,389,433.61,385c-12-5.58-12.16-15-11.93-26.27,2.79,1.46,5,2.6,7.18,3.76,41,21.9,92,4,110-38.89,8.76-20.89,9.07-42-.54-62.89-1.29-2.82-4.89-6.68,1.68-8.26.63,1.06,1.21,2,1.76,3,7.33,12.74,12.19,13.43,22,2.33,11.09-12.49,17.33-27.4,19.66-43.84,2.54-18,0-20.34-17.15-16.81a19.55,19.55,0,0,1-2.42.17c-2-11.49-2-11.49-16.72-9-2-11.23-3-11.68-17.08-7.32-5.7-13.11-7.11-13.67-20.49-8.05-8.77-13.67-8.77-13.67-22.55-8.65-3.9-4.14-6.88-12.11-13-10.26-6,1.8-7.59-.7-10.62-3.87-7.08-7.42-13.91-6.53-18.73,2.44-1.8,3.35-4.41,5.81-7,8.35a26.19,26.19,0,0,0-8.11,17.15A64.12,64.12,0,0,1,425.42,196c-3.57,9.74.93,16.17,11.25,16.13a46.43,46.43,0,0,0,7.1-1.09c2.82,6.32-2.39,6.38-5.27,7.51q-40,15.58-49.58,57.3c-.62,2.73-.42,5.76-4.72,5.39-4.57-.4-3.37-3.8-3.45-6.32-.69-23.67-11.15-42.61-28.56-57.9-4-3.51-5.76-6.25-2.22-11.14,1.41.65,2.65,1.2,3.86,1.79,12.73,6.15,16.44,4.65,18.88-9.36,3.36-19.28-1.43-37.35-10.58-54.25-5.13-9.48-9.9-9.71-17.79-2.09-1.76,1.71-2.72,4.36-5.51,4.92-7.23-8.66-7.85-8.58-18.4,2.36-6.88-9.09-8.48-8.8-18.61,3.31-3.57-2.6-6.67-6.19-11.8-5.47-5.62.78-6.25,6.45-8.85,9.64a8.91,8.91,0,0,1-2.31-.38c-7.75-4.62-15.08-7.32-19.84,3.78-1.61,3.77-4.34,1.43-6.42.81-4.37-1.3-9.73-3.47-12.53.51-3.13,4.46-5.59,3.61-9.62,2.5-10.72-3-16.39,2-14.87,13a13.82,13.82,0,0,1-.41,5.73c-2.66,9.78-1.1,18.78,4.11,27.47a31.2,31.2,0,0,1,3.8,11c1.17,7.51,4.33,12.43,13,11.8-19.29,34.14-19.19,67.29,6.25,96.82,24.63,28.6,56.56,34.14,92.53,20.71-2.12,10.56-2.29,21.26-15.65,23.69-2.68.48-5.2,2.07-7.69,3.33-19.95,10.07-33.14,22.9-25.93,47.15,1.05,3.55-1.23,5.08-3.48,6.85a214.55,214.55,0,0,0-33.47,33.28c-9.73,12-19.22,24.3-20.82,40.6-1.43,14.57,7.71,22.83,22,20.44,7.64-1.27,14.2-5.06,21.29-7.53,4.59,10.12,9.59,12.35,20.1,9,2.93-.93,6.1-1.61,8.61-3.25,7-4.54,11.37-2.85,16.29,3.78,7.3,9.84,13.12,10.29,24,4.1q7.14-4.07,14.25-8.16c11.79,21,24.28,21,38.69,3.61,22.47,22.52,28.24,15.85,34.63,2,6.69,3.5,10.95,11,18.41,12.68C455.6,544.33,458.29,535.23,463.25,529.54ZM257.52,719.48a142.29,142.29,0,0,0,28.57-1.69c13.71-2.37,21.13-7.78,22.77-18.44,4.29-27.86,5.41-55.83,2.15-84-1.18-10.16-6.34-15.28-15.9-17.69-33.33-8.44-66.74-6.35-100.19-1.28-5.46.83-8.86,4.28-10.53,9.64-10.25,33.06-11.75,65.9,1.34,98.71,2.84,7.14,7.1,10.53,14.67,11.5C219.39,718.68,238.45,719,257.52,719.48Zm329.2-124.63c-24.35-5.12-48.18-7.6-72.35-3.78-23.93,3.79-34.45,12.1-38.57,30.32-6.23,27.59,6,44.32,33.44,45.9,14.58.84,29.13,2,43.71,2.82,6.06.33,6.18,4.59,6.58,8.77.46,4.94-2.84,6.43-6.86,6.55-6.18.2-12.38.06-18.58,0-18.44-.14-36.86-2.35-55.58-1.19,0,8.7.37,16.84-.12,24.93-.35,5.77,1.6,7.75,7.32,8.06a617,617,0,0,0,62.47.17c13.54-.66,27.55-.91,40.23-7.56,8.13-4.26,11.88-10.79,11.84-19.71-.08-14.95-11.48-29.67-26-33.44-21-5.46-42.85-5.25-64.24-8.1-4.68-.63-6.32-1.9-6.22-6.6s.94-6.73,6.43-7.31c22.74-2.39,45.54-1.11,68.29-1.9,6.3-.22,9-1.14,8.38-8.27C586.14,614.77,586.72,604.9,586.72,594.85Zm-250.38,89.4c1.24,8.8,2.23,17.16,1.5,25.51-.49,5.68,1.81,7.19,7.08,7.47,20.82,1.1,41.67,1,62.46.18,11.12-.44,22.43-1.21,33.25-4.7,12.3-4,18.32-11.07,18.46-22,.19-15.13-11.41-30.21-26.21-34.05-20.5-5.33-41.72-5-62.54-7.93-4.91-.68-7.73-1.11-7.53-7.08.19-5.67,2.57-7.08,7.71-7,4.75.1,9.5-1,14.26-1.09,18.28-.41,36.56-.84,54.84-.82,5.74,0,7.42-1.56,6-7.29-1.86-7.73-1.37-15.77-.65-23.55.6-6.52-2.28-8.24-7.59-9-20.9-3-41.74-5.08-62.91-2.06-26.53,3.79-38.33,14-40.65,36.65-2.66,26,7.88,38.38,33.65,39.79,14.3.78,28.58,2,42.89,2.53,6.8.24,7.72,4.27,7.78,9.39.07,6.12-4.42,6.32-8.79,6.35-5.63,0-11.26,0-16.89-.11C374,685.25,355.58,683.16,336.34,684.25Zm318-7.39c4.72-.46,9.18-.71,13.57-1.35,5.87-.84,8.74,1,10.57,7.23,3.42,11.56,6.76,23.07,7.85,35.11.24,2.63.09,5.24,3.85,5.11,14.43-.51,29,.84,43.81-1.45-7.69-19.39-17.74-36.75-27.16-54,.76-.84.92-1.17,1.13-1.21,1.64-.31,3.3-.52,4.94-.86,11-2.29,19.16-8.22,22.19-19.33,5.86-21.49-8.47-43.09-30.58-46.73-25.84-4.26-51.58.24-77.37.78-4.6.09-5.06,2.8-5.07,6.68,0,12.37-.3,24.75-.74,37.12-.84,23.23-1.87,46.46-2.85,70.53,9.85,0,19.37-.27,28.87.1,5.29.21,7.42-1.08,7.13-6.87C654,697.59,654.37,687.48,654.37,676.86Zm-494.95-42.2c-.63-10.63-1.81-20.43-1.57-30.2.18-7.12-3.06-8.49-8.94-8.46q-25.74.15-51.44-1.47c-12.51-.79-25.1-.16-37.07-.16v47.38H90.82c1.92,19.4,2,38.17,2.22,57,.07,7.36-5.07,17.45,1,21.41,5.56,3.63,15.26.92,23.14,1,.28,0,.56,0,.84,0,4.21.07,5.45-1.86,5.78-6.16,1.15-14.88,1.63-29.76,1.59-44.69,0-8.43.78-16.86.89-25.29.08-5.87,1.46-9,8.54-8.57C142.56,636.79,150.4,635.37,159.42,634.66ZM331.75,81.78c2.57-7.5-1.34-13.61-3-20.14a2.7,2.7,0,0,0-3.16-2.06A2,2,0,0,0,323.81,62C325.87,68.76,326.39,76.21,331.75,81.78ZM409.32,58c-.56-2.18,1.35-5.31-2.21-6.35a2.24,2.24,0,0,0-2.94,2.15c-.58,5.84-1.14,11.69-1.53,17.55a2.61,2.61,0,0,0,2.52,2.78c1.49,0,2.35-1.1,2.53-2.75C408.17,66.94,408.76,62.5,409.32,58Zm83.35,19.13c-6.55,4.24-8.83,11.17-12.2,17.32-.59,1.07.35,2.31,1.44,2.6.93.26,2.72.17,3-.34C488,90.44,492.9,84.9,492.67,77.14ZM537,143.34c4.65.33,18.7-8.77,19.25-11.86a3.7,3.7,0,0,0-1-2.93c-1.31-1.12-2.64-.13-3.66.83C547,133.74,541.39,137.13,537,143.34ZM409.89,22.8c-5.34,3-3.75,7.53-4.11,11.43a2.48,2.48,0,0,0,2.37,2.85c2,.14,2.92-1.39,2.77-3.25C410.63,30.38,412.27,26.78,409.89,22.8ZM569.06,121c2.6-2.6,6.8-3.94,8.65-8,.8-1.73-1-3.17-2-2.8-3.83,1.48-7.45,3.61-9.31,7.52C565.84,119,566.76,120.41,569.06,121ZM499.69,66c4-2.93,5-6.79,7.09-9.85.93-1.39.23-2.6-1-3.5-1.62-1.15-2.8,0-3.29,1.13C500.87,57.3,496.86,60.23,499.69,66ZM316.22,31.22c-.33,7.3,1.13,11.5,4.64,14.92C323.39,40.49,322.7,36,316.22,31.22Zm-88,48.94c-.21,5.17,2.08,7.61,5.61,9,.56.22,2.49-1.13,2.42-1.48C235.48,83.69,233.3,81,228.25,80.16Z" transform="translate(-50.88 -21.22)"/><path class="cls-2" d="M463.25,529.54c-5,5.69-7.65,14.79-17.23,12.6-7.46-1.71-11.72-9.18-18.41-12.68-6.39,13.83-12.16,20.5-34.63-2-14.41,17.38-26.9,17.37-38.69-3.61Q347.18,527.91,340,532c-10.85,6.19-16.67,5.74-24-4.1-4.92-6.63-9.31-8.32-16.29-3.78-2.51,1.64-5.68,2.32-8.61,3.25-10.51,3.32-15.51,1.09-20.1-9-7.09,2.47-13.65,6.26-21.29,7.53-14.28,2.39-23.42-5.87-22-20.44,1.6-16.3,11.09-28.62,20.82-40.6a214.55,214.55,0,0,1,33.47-33.28c2.25-1.77,4.53-3.3,3.48-6.85-7.21-24.25,6-37.08,25.93-47.15,2.49-1.26,5-2.85,7.69-3.33,13.36-2.43,13.53-13.13,15.65-23.69-36,13.43-67.9,7.89-92.53-20.71-25.44-29.53-25.54-62.68-6.25-96.82-8.64.63-11.8-4.29-13-11.8a31.2,31.2,0,0,0-3.8-11c-5.21-8.69-6.77-17.69-4.11-27.47a13.82,13.82,0,0,0,.41-5.73c-1.52-10.95,4.15-16,14.87-13,4,1.11,6.49,2,9.62-2.5,2.8-4,8.16-1.81,12.53-.51,2.08.62,4.81,3,6.42-.81,4.76-11.1,12.09-8.4,19.84-3.78a8.91,8.91,0,0,0,2.31.38c2.6-3.19,3.23-8.86,8.85-9.64,5.13-.72,8.23,2.87,11.8,5.47,10.13-12.11,11.73-12.4,18.61-3.31,10.55-10.94,11.17-11,18.41-2.35,2.78-.57,3.74-3.22,5.5-4.93,7.89-7.62,12.66-7.39,17.79,2.09,9.15,16.9,13.94,35,10.58,54.25-2.44,14-6.15,15.51-18.88,9.36-1.21-.59-2.45-1.14-3.86-1.79-3.54,4.89-1.77,7.63,2.22,11.14,17.41,15.29,27.87,34.23,28.56,57.9.08,2.52-1.12,5.92,3.45,6.32,4.3.37,4.1-2.66,4.72-5.39q9.6-41.79,49.58-57.3c2.88-1.13,8.09-1.19,5.27-7.51a46.43,46.43,0,0,1-7.1,1.09c-10.32,0-14.82-6.39-11.25-16.13a64.12,64.12,0,0,0,4.19-17.92A26.19,26.19,0,0,1,437.72,161c2.58-2.54,5.19-5,7-8.35,4.82-9,11.65-9.86,18.73-2.44,3,3.17,4.64,5.67,10.62,3.87,6.14-1.85,9.12,6.12,13,10.26,13.78-5,13.78-5,22.55,8.65,13.38-5.62,14.79-5.06,20.49,8.05,14.09-4.36,15.12-3.91,17.08,7.32,14.7-2.52,14.7-2.52,16.72,9a19.55,19.55,0,0,0,2.42-.17c17.17-3.53,19.69-1.22,17.15,16.81-2.33,16.44-8.57,31.35-19.66,43.84-9.84,11.1-14.7,10.41-22-2.33-.55-1-1.13-1.92-1.76-3-6.57,1.58-3,5.44-1.68,8.26,9.61,20.92,9.3,42,.54,62.89-18,42.92-69,60.79-110,38.89-2.19-1.16-4.39-2.3-7.18-3.76-.23,11.27-.07,20.69,11.93,26.27,8.51,4,15.49,10.79,21.38,18.68,6.88,9.21,8.75,18.89,4.72,29.25-2,5.21-.48,7.31,3.54,10.11,21.29,14.83,36.23,34.36,41.64,60.1,2.26,10.74,2.84,21.78-1.83,32.31-4.06,9.18-11,12.08-19.64,7.34C476.57,539.05,470.3,534.23,463.25,529.54ZM519,249.63c-9.66,3.61-11.52-4.56-14.79-10.48-3,1.53-6.18,1.6-8.24,4.59,13,6.36,21.33,17,28.22,29l.07,5.54c-7.4,5.24-8.36-1.87-10.64-5.77-14.23-24.39-45-34.37-68.59-22.13-24.21,12.55-33.54,39.72-22.23,64.73,12.9,28.53,52.71,33.59,72.29,9.19a39,39,0,0,0-2.23-51A33.49,33.49,0,0,0,449,268.92c-9.83,7.06-14.76,16.75-13.3,29.16,1.37,11.61,8.32,18.78,18.78,22.74,9.4,3.57,17.87.75,25-5.64,6.86-6.18,7-14.48,4.91-22.71-2-8-8.66-10.88-16-11.59-6.42-.63-11.37,2.45-14.19,8.52-1.86,4-1.22,7.66,1.3,11.11,2.23,3.06,4.91,4.64,8.63,2.41-3.64-5.68-4.12-8.6-1.18-10.66,3.12-2.19,6.67-3.14,10.22-.62,4.35,3.07,3.72,7.08,2.1,11.31a14.92,14.92,0,0,1-24.68,5.48c-8.72-8.58-8.05-22.28,1.48-30.64,9.18-8.05,22.64-7.81,33.35.58,8.71,6.83,11.75,24.19,6.14,35-6.34,12.26-20.34,19.22-34.75,17.26-12.8-1.74-26-13.74-29-26.35a40.31,40.31,0,0,1,20.73-45.54c16.67-8.79,38.57-5,51.11,8.78,16.61,18.29,17,45.53.9,63.9-17.08,19.49-46.65,23-68.17,8.19-18.07-12.47-26.63-35.25-21.81-58.08,4.54-21.47,22.93-39.43,44.18-44,11-2.39,21.62-.45,32.75,1.69-1-3.68-1.87-6.62-2.72-9.6-7.93,1.48-16.54,6.67-20.32-5.66-.7-2.29-3.45-1.17-5.3-1-28.49,2.14-53.83,23.79-60.81,51.91-7.5,30.21,4.36,61.08,29.37,76.46,23.12,17.49,59.07,15.62,83.51-4.33,27.63-22.56,33.72-64.17,13.55-93.51C523.51,251.64,522.94,247.86,519,249.63ZM350.09,227.41c-3.16-4.47-7.69-7.23-12.4-9.69-2.15-1.12-5.19-4-6.71-2.09-6.26,8-11.81,2.14-17.45-.35-2.43,1.66-3.5,3.83-4.28,6.72,23.38,3.28,39.82,16.2,50.84,36.57q-.27,2.79-.53,5.6c-6.91,3.89-8-2.12-10.19-6.06-11.15-20.15-35.64-31.43-57.29-26.33-22.29,5.26-37.3,23.36-38.51,46.43-.95,18.33,10.53,36.87,27.21,43.91a43.31,43.31,0,0,0,48.1-10.23A38.86,38.86,0,0,0,333.35,265c-8.47-13.66-23.49-19.74-38.51-15.6C281.91,253,271.62,265.3,270.9,278c-.69,12.16,6.39,23.09,18,27.85a25,25,0,0,0,26.5-5.56c6.75-6.87,6.95-15,4.18-23.55-2.46-7.52-8.81-9.82-15.83-10.44-6.25-.56-10.85,2.47-13.6,8-2.21,4.48-1.52,8.76,1.73,12.54,2.62,3,5.53,3.63,8.84.68-2.75-2.27-6.29-4.39-3.16-8.65,2.56-3.48,6.3-3.46,9.91-2.5,4,1.09,4.74,4.43,4.33,8.08-.72,6.5-4.2,10.67-10.42,13-6.56,2.42-11.63.23-15.88-4.47-5.84-6.46-7-13.91-3.44-21.9,4-8.8,10.91-13.51,20.51-13.68,21-.37,34.5,22.65,24.51,41.63-6,11.36-19.85,18.87-32.28,17.49-14-1.56-27.65-13-31.15-26.21-4.8-18,3.26-36.53,20-45.84s38.9-5.66,51.76,8.58c15.36,17,17,41.7,3.93,59.9-14,19.49-40.28,26.63-62.57,17-37.74-16.32-43.19-70-9.7-95.79,2.78-2.14,5.72-4.05,9-6.39L268,221.55c-4.23,2.78-7.09,7.28-11.71,7.46-5.38.2-8.15,3.48-10.81,7-25,32.83-15.65,80.84,19.89,102.19,24.15,16,56.15,14,80.76-5.07C379.28,307.44,381.29,253.47,350.09,227.41Zm216.33,17c7.11-11.63,11.92-24,11.88-37.88,0-4.81-1.07-6.76-6.42-4.87-4.09,1.45-8.1,4-12.67,3.28-2.86-3.75.42-8.58-2.52-12.09a7.47,7.47,0,0,0-1.79,0c-4.29,1.28-9,4.44-12.77,3.54-7.13-1.72,1.92-8.44-2.38-12.11-5.32.06-9,5.26-14.78,5.23-.67-3.37-1.08-6.67-2-9.82-1.25-4.19-4.58-5.74-7.59-2.58-7.63,8-9.76,1.9-12.63-4.09-1.49-3.09-3.28-8.07-7.82-5-8.06,5.38-12.52,2.43-16.15-5.06-.54-1.12-2-1.78-2.92-2.56-3.66.89-3.83,6.25-8.1,5.48-2.77-3.95-5.42-7.89-8.24-11.71-2.48-3.36-6.25-4.15-8.51-.84-7.69,11.29-19.3,21-16.46,37a38.85,38.85,0,0,0-2.83,4.1c-1.71,3.24-3.79,6.86-1.09,10.2,2.58,3.19,6.24,2.67,10.08,1.53,3.28-1,6.93-.75,10.83-1.09-.39,3.27-.68,5.67-1.07,8.92,3.29,0,6.05.11,8.8,0s5.41-.54,8-.82c3.93,12.75,3.93,12.75,22.26,10.23.64,3.2,1.1,6.49,2,9.66.91,3.33,3.28,5,6.23,2.55,7.72-6.37,11.62-3.72,13.58,5.05.27,1.22,1.43,2.23,2.08,3.19,5.09-.33,5-6.35,9.1-7.36,4.54,3.75,4.52,10.35,9,13.85,4.31-1.18,5.43-6.78,10.49-6.91a19.9,19.9,0,0,1,2,3.71c1.55,5.26,3.53,11.05,9.26,12,5.52.9,7-5.51,10.07-8.92C564.78,248.44,566.47,246.9,566.42,244.38ZM226.69,212.25c.46,2.18.85,4.37,1.39,6.53,2.52,10.07,6.21,11.14,14,4.26,2.65-2.34,4.42-5.83,8.24-6.79,4.12,9.23,4.15,9.27,12,1.75,2.93-2.82,6.07-6.4,9.67-1.62,6.41,8.51,11,4.73,15.09-1.83,2.9-4.69,5.42-4.66,9.29-1.15,7.64,6.93,7.77,6.76,12.27-2.74.64-1.36.1-3.57,2.3-4,5.43.78,7.85,8.5,14.55,6.44.7-3.67-3.05-7.65,1-10.34,2.11-1.41,4.27.67,6.15,1.75,9.68,5.54,9.64,5.57,12.64-5.21.18-.66,1-1.16,1.6-1.88,3.77,2.23,7.36,4.39,11,6.48,4.62,2.67,7.64,2.17,9.28-3.7,1.71-6.12,1.52-12.22,1.49-18.38-3.07-11.3-4.56-23.07-10.68-33.44-4-6.72-6.27-7.08-10.89-1-2.6,3.41-5.19,6.84-7.77,10.25-4.36-3-3.82-9.16-9.66-10.44-2.68,3.74-4.61,9.16-8.34,11-7,3.54-3.46-7.65-9.21-7.82-2.11.89-3.3,3.06-4.75,5.15s-2.25,4.53-5.4,5.72c-2.1-2-4.3-4.08-6.51-6.16-3.13-2.93-6.16-2.32-7,1.61-2.08,10.25-7.54,8.53-13.69,4.31-5.78-4-9.62-2.14-11.52,3.85-1.69,5.35-4.11,5.23-8.63,3.22-9.84-4.38-10-4.12-12.07,6.61-4.7-1.83-9.33-3.61-13.93-5.44-3.62-1.44-6.49-.59-6.79,3.44C220.81,186.17,216.71,200.11,226.69,212.25Zm169.37,119.3c-5.07-11.29-9.12-22.82-9.44-35.42-.05-2.08.79-5.57-2.91-6.05-4.5-.59-3.71,3.55-4.31,5.79a94.47,94.47,0,0,1-16,33L348,343.31c-3.31,1.08-3.56,4.21-4.2,6.81-7.15,29.16-14.12,58.36-21.3,87.51-1.48,6,0,11.11,3.33,15.88,8.75,12.4,21.59,17.31,35.94,19.35,16.3,3.64,31.8,1.47,46-7.33,6.94-4.3,11.52-10.78,11-19.56-1.48-24.94-2.87-49.88-4.77-74.79-.54-7.11,1-15.29-3.48-21.08C405.71,343.93,401,337.64,396.06,331.55Zm-39.37,149.7-11.6-.32c-.49-1-.74-2.48-1.51-2.83-11.63-5.31-22.29-11.69-28.3-23.73a4.07,4.07,0,0,0-2.71-1.75C305.22,451.49,299.86,447,295,442c-3.47-3.62-6.26-3.74-9.82-.08-3.88,4-8.18,7.6-12.26,11.36-10,9.2-19.21,19.23-26,31.2-6.44,4.68-8.08,12-9.78,19-2.47,10.14,3,15.38,13.19,12.76,8.14-2.08,16.13-5,23.08-10,5.45-3.94,7.21-2,7.41,4.09.32,10.06,1.34,10.64,10.87,7.43,1.86-.62,3.55-1.71,5.39-2.42,15.66-6.11,15.72-6.14,26.56,7.57,2.67,3.37,5.31,4.64,9.34,2.29,5.82-3.4,11.89-6.36,17.67-9.81,4.81-2.86,8.4-2.33,11.15,2.73a59.36,59.36,0,0,0,3.66,5.66c5.85,8.33,10.9,8.48,17.11.54,9.51-12.14,9.51-12.14,20.15-1.47l.6.6c11.35,11.38,11.37,11.38,16.34-3.79,1.67-5.08,4.12-7.31,8.94-3,4.2,3.72,8.56,7.25,12.7,11,6.27,5.69,8.24,5.32,12.55-2.2,2.18-3.81,3-8.46,6.69-11.33,5.83,2.46,9.74,7,13.88,11.13a36.3,36.3,0,0,0,12.35,8.52c4.92,2,7.85,1.62,8.82-4.55,3.82-24.14-2.26-44.86-20.45-61.62-1.34-4.7-5.87-6.5-8.93-9.56-10-10-11.94-10-23.05-1.76A7.9,7.9,0,0,1,441,457.5c-11.88,3.86-22,10.45-32.43,17.42C393,485.36,374.64,484.19,356.69,481.25Zm71-28.84c13.8-2.89,24.73-15.49,25.39-28.07s-12.93-28.57-29.23-34C425.1,411.07,426.36,431.43,427.66,452.41Zm-115.49-9.09c5.15-21.28,10-41.43,15.5-64-8.19,4.15-14,6.81-19.53,10-9.78,5.57-16.82,12.87-15.82,25.41C293.36,427.56,300,436.36,312.17,443.32Z" transform="translate(-50.88 -21.22)"/><path class="cls-3" d="M257.52,719.48c-19.07-.47-38.13-.8-57.12-3.21-7.57-1-11.83-4.36-14.67-11.5-13.09-32.81-11.59-65.65-1.34-98.71,1.67-5.36,5.07-8.81,10.53-9.64,33.45-5.07,66.86-7.16,100.19,1.28,9.56,2.41,14.72,7.53,15.9,17.69,3.26,28.13,2.14,56.1-2.15,84-1.64,10.66-9.06,16.07-22.77,18.44A142.29,142.29,0,0,1,257.52,719.48Zm-5.68-31.35c6.29-.78,14.1-1.51,21.82-2.82,4.92-.84,8.12-3.24,9.11-9.22,1.5-9,1.36-17.93,1.17-26.88-.12-6.2-3-10.22-9.91-11.42a139,139,0,0,0-55,1,8.75,8.75,0,0,0-7.31,8.19c-1,10.3-2.67,20.52-.44,31,1,4.66,2.8,6.8,7.25,7.71C229,687.81,239.68,687.55,251.84,688.13Z" transform="translate(-50.88 -21.22)"/><path class="cls-4" d="M586.72,594.85c0,10-.58,19.92.2,29.68.57,7.13-2.08,8.05-8.38,8.27-22.75.79-45.55-.49-68.29,1.9-5.49.58-6.33,2.68-6.43,7.31s1.54,6,6.22,6.6c21.39,2.85,43.19,2.64,64.24,8.1,14.49,3.77,25.89,18.49,26,33.44,0,8.92-3.71,15.45-11.84,19.71-12.68,6.65-26.69,6.9-40.23,7.56a617,617,0,0,1-62.47-.17c-5.72-.31-7.67-2.29-7.32-8.06.49-8.09.12-16.23.12-24.93,18.72-1.16,37.14,1,55.58,1.19,6.2,0,12.4.18,18.58,0,4-.12,7.32-1.61,6.86-6.55-.4-4.18-.52-8.44-6.58-8.77-14.58-.78-29.13-2-43.71-2.82-27.44-1.58-39.67-18.31-33.44-45.9,4.12-18.22,14.64-26.53,38.57-30.32C538.54,587.25,562.37,589.73,586.72,594.85Z" transform="translate(-50.88 -21.22)"/><path class="cls-4" d="M336.34,684.25c19.24-1.09,37.69,1,56.16,1.19,5.63.06,11.26.15,16.89.11,4.37,0,8.86-.23,8.79-6.35-.06-5.12-1-9.15-7.78-9.39-14.31-.49-28.59-1.75-42.89-2.53-25.77-1.41-36.31-13.81-33.65-39.79,2.32-22.66,14.12-32.86,40.65-36.65,21.17-3,42-.93,62.91,2.06,5.31.76,8.19,2.48,7.59,9-.72,7.78-1.21,15.82.65,23.55,1.38,5.73-.3,7.3-6,7.29-18.28,0-36.56.41-54.84.82-4.76.1-9.51,1.19-14.26,1.09-5.14-.1-7.52,1.31-7.71,7-.2,6,2.62,6.4,7.53,7.08,20.82,2.89,42,2.6,62.54,7.93,14.8,3.84,26.4,18.92,26.21,34.05-.14,10.95-6.16,18.06-18.46,22-10.82,3.49-22.13,4.26-33.25,4.7-20.79.83-41.64.92-62.46-.18-5.27-.28-7.57-1.79-7.08-7.47C338.57,701.41,337.58,693.05,336.34,684.25Z" transform="translate(-50.88 -21.22)"/><path class="cls-3" d="M654.37,676.86c0,10.62-.37,20.73.14,30.81.29,5.79-1.84,7.08-7.13,6.87-9.5-.37-19-.1-28.87-.1,1-24.07,2-47.3,2.85-70.53.44-12.37.71-24.75.74-37.12,0-3.88.47-6.59,5.07-6.68,25.79-.54,51.53-5,77.37-.78,22.11,3.64,36.44,25.24,30.58,46.73-3,11.11-11.19,17-22.19,19.33-1.64.34-3.3.55-4.94.86-.21,0-.37.37-1.13,1.21,9.42,17.3,19.47,34.66,27.16,54-14.85,2.29-29.38.94-43.81,1.45-3.76.13-3.61-2.48-3.85-5.11-1.09-12-4.43-23.55-7.85-35.11-1.83-6.18-4.7-8.07-10.57-7.23C663.55,676.15,659.09,676.4,654.37,676.86Zm.79-57.84c.88,6.5,1.87,12.59,2.5,18.71,1.49,14.33,1.42,14.33,15.79,14.75,22.64.65,25.86-2.68,24.83-24.82-.35-7.5-3.39-11.42-11.31-11.34C676.6,616.43,666.21,615.86,655.16,619Z" transform="translate(-50.88 -21.22)"/><path class="cls-3" d="M159.42,634.66c-9,.71-16.86,2.13-24.61,1.72-7.08-.38-8.46,2.7-8.54,8.57-.11,8.43-.92,16.86-.89,25.29,0,14.93-.44,29.81-1.59,44.69-.33,4.3-1.57,6.23-5.78,6.16-.28,0-.56,0-.84,0-7.88-.08-17.58,2.63-23.14-1-6.06-4-.92-14-1-21.41-.18-18.8-.3-37.57-2.22-57H60.4V594.37c12,0,24.56-.63,37.07.16q25.71,1.62,51.44,1.47c5.88,0,9.12,1.34,8.94,8.46C157.61,614.23,158.79,624,159.42,634.66Z" transform="translate(-50.88 -21.22)"/><path class="cls-5" d="M331.75,81.78c-5.36-5.57-5.88-13-7.94-19.82a2,2,0,0,1,1.76-2.38,2.7,2.7,0,0,1,3.16,2.06C330.41,68.17,334.32,74.28,331.75,81.78Z" transform="translate(-50.88 -21.22)"/><path class="cls-5" d="M409.32,58c-.56,4.49-1.15,8.93-1.63,13.38-.18,1.65-1,2.78-2.53,2.75a2.61,2.61,0,0,1-2.52-2.78c.39-5.86.95-11.71,1.53-17.55a2.24,2.24,0,0,1,2.94-2.15C410.67,52.7,408.76,55.83,409.32,58Z" transform="translate(-50.88 -21.22)"/><path class="cls-5" d="M492.67,77.14c.23,7.76-4.7,13.3-7.79,19.58-.25.51-2,.6-3,.34-1.09-.29-2-1.53-1.44-2.6C483.84,88.31,486.12,81.38,492.67,77.14Z" transform="translate(-50.88 -21.22)"/><path class="cls-5" d="M537,143.34c4.39-6.21,10-9.6,14.59-14,1-1,2.35-1.95,3.66-.83a3.7,3.7,0,0,1,1,2.93C555.7,134.57,541.65,143.67,537,143.34Z" transform="translate(-50.88 -21.22)"/><path class="cls-5" d="M409.89,22.8c2.38,4,.74,7.58,1,11,.15,1.86-.73,3.39-2.77,3.25a2.48,2.48,0,0,1-2.37-2.85C406.14,30.33,404.55,25.79,409.89,22.8Z" transform="translate(-50.88 -21.22)"/><path class="cls-5" d="M569.06,121c-2.3-.59-3.22-2-2.61-3.24,1.86-3.91,5.48-6,9.31-7.52,1-.37,2.75,1.07,2,2.8C575.86,117.06,571.66,118.4,569.06,121Z" transform="translate(-50.88 -21.22)"/><path class="cls-5" d="M499.69,66c-2.83-5.75,1.18-8.68,2.77-12.22.49-1.1,1.67-2.28,3.29-1.13,1.26.9,2,2.11,1,3.5C504.71,59.19,503.68,63.05,499.69,66Z" transform="translate(-50.88 -21.22)"/><path class="cls-2" d="M316.22,31.22c6.48,4.73,7.17,9.27,4.64,14.92C317.35,42.72,315.89,38.52,316.22,31.22Z" transform="translate(-50.88 -21.22)"/><path class="cls-2" d="M228.25,80.16c5.05.79,7.23,3.53,8,7.5.07.35-1.86,1.7-2.42,1.48C230.33,87.77,228,85.33,228.25,80.16Z" transform="translate(-50.88 -21.22)"/><path class="cls-6" d="M427.71,351.31c-25-15.38-36.87-46.25-29.37-76.46,7-28.12,32.32-49.77,60.81-51.91,1.85-.14,4.6-1.26,5.3,1,3.78,12.33,12.39,7.14,20.32,5.66.85,3,1.68,5.92,2.72,9.6-11.13-2.14-21.74-4.08-32.75-1.69-21.25,4.6-39.64,22.56-44.18,44-4.82,22.83,3.74,45.61,21.81,58.08,21.52,14.85,51.09,11.3,68.17-8.19,16.1-18.37,15.71-45.61-.9-63.9-12.54-13.8-34.44-17.57-51.11-8.78a40.31,40.31,0,0,0-20.73,45.54c3,12.61,16.24,24.61,29,26.35,14.41,2,28.41-5,34.75-17.26,5.61-10.85,2.57-28.21-6.14-35-10.71-8.39-24.17-8.63-33.35-.58-9.53,8.36-10.2,22.06-1.48,30.64A14.92,14.92,0,0,0,475.3,303c1.62-4.23,2.25-8.24-2.1-11.31-3.55-2.52-7.1-1.57-10.22.62-2.94,2.06-2.46,5,1.17,10.67-3.71,2.22-6.39.64-8.62-2.42-2.52-3.45-3.16-7.11-1.3-11.11,2.82-6.07,7.77-9.15,14.19-8.52,7.32.71,13.93,3.63,16,11.59,2.12,8.23,2,16.53-4.91,22.71-7.1,6.39-15.57,9.21-25,5.64-10.46-4-17.41-11.13-18.78-22.74-1.46-12.41,3.47-22.1,13.3-29.16a33.49,33.49,0,0,1,43.84,4.38,39,39,0,0,1,2.23,51c-19.58,24.4-59.39,19.34-72.29-9.19-11.31-25-2-52.18,22.23-64.73,23.61-12.24,54.36-2.26,68.59,22.13,2.28,3.9,3.24,11,10.64,5.77,4,11.76.08,22.78-4.29,33.21-13.61,32.45-51,51.38-86.5,39.44C431.7,350.33,429.4,348,427.71,351.31Z" transform="translate(-50.88 -21.22)"/><path class="cls-6" d="M265.4,338.16C229.86,316.81,220.47,268.8,245.51,236c2.66-3.48,5.43-6.76,10.81-7,4.62-.18,7.48-4.68,11.71-7.46l8.06,6.25c-3.32,2.34-6.26,4.25-9,6.39-33.49,25.78-28,79.47,9.7,95.79,22.29,9.64,48.59,2.5,62.57-17,13.05-18.2,11.43-42.89-3.93-59.9-12.86-14.24-35-17.91-51.76-8.58s-24.76,27.82-20,45.84c3.5,13.17,17.15,24.65,31.15,26.21,12.43,1.38,26.3-6.13,32.28-17.49,10-19-3.49-42-24.51-41.63-9.6.17-16.55,4.88-20.51,13.68-3.59,8-2.4,15.44,3.44,21.9,4.25,4.7,9.32,6.89,15.88,4.47,6.22-2.3,9.7-6.47,10.42-13,.41-3.65-.3-7-4.33-8.08-3.61-1-7.35-1-9.91,2.5-3.13,4.26.41,6.38,3.16,8.65-3.31,3-6.22,2.37-8.84-.68-3.25-3.78-3.94-8.06-1.73-12.54,2.75-5.56,7.35-8.59,13.6-8,7,.62,13.37,2.92,15.83,10.44,2.77,8.51,2.57,16.68-4.18,23.55a25,25,0,0,1-26.5,5.56c-11.63-4.76-18.71-15.69-18-27.85.72-12.74,11-25,23.94-28.6,15-4.14,30,1.94,38.51,15.6a38.86,38.86,0,0,1-4.47,46.85,43.31,43.31,0,0,1-48.1,10.23c-16.68-7-28.16-25.58-27.21-43.91,1.21-23.07,16.22-41.17,38.51-46.43,21.65-5.1,46.14,6.18,57.29,26.33,2.18,3.94,3.28,9.95,10.19,6.06a4.35,4.35,0,0,1,2.18,4.25c-1.74,17.15-5.15,33.64-17.5,46.91-19.94,21.43-44.29,27.83-72.48,22.06C269.76,337,267,334.14,265.4,338.16Z" transform="translate(-50.88 -21.22)"/><path class="cls-7" d="M246.94,484.44c6.77-12,16-22,26-31.2,4.08-3.76,8.38-7.37,12.26-11.36,3.56-3.66,6.35-3.54,9.82.08,4.86,5.07,10.22,9.53,17.57,10.66a4.07,4.07,0,0,1,2.71,1.75c6,12,16.67,18.42,28.3,23.73.77.35,1,1.86,1.5,2.83-5.35.05-10.72-.16-16,.23a13.07,13.07,0,0,1-11.83-5c-4.62-5.48-9.56-10.36-17.84-8.75-2.75.53-4.49-1.94-6.34-3.67-10.88-10.19-10.89-10.19-21.88.7-2.8,2.78-5.65,5.51-8.31,8.42-2.08,2.26-4.83,5.08-3.36,8.06,1.94,3.92,5.6,1.21,8.16.22,9.15-3.57,17.3-4,23,5.7,3,5.08,6.18,4.87,11,1.77,10.35-6.63,12.95-5.76,19.16,5.08,3.53,6.17,6.78,7.31,13.36,2.85,9.47-6.42,24.93-8.28,32.69.19,10,10.87,20.3,7.21,24.58-8.14-6.5-.77-11.43,6.37-18.39,3.3-6.11-2.69-12.44-4.78-16.41-10.66,17.95,2.94,36.35,4.11,51.91-6.33C419,468,429.15,461.36,441,457.5a7.9,7.9,0,0,0,2.15-1.28c11.11-8.24,13-8.27,23.05,1.76,3.06,3.06,7.59,4.86,8.93,9.56-2.75,1.15-3,3.61-3.62,6.14a87.76,87.76,0,0,1-15.7,32.3c-2.8,3.53-6,5.42-10,2.26-10.91-8.53-21.08-6.92-31,1.78-3.8,3.35-6.92,3.06-10.71-.85-8.07-8.33-11.75-8.71-20.64-1.1-5.13,4.38-7.83,2.92-11.84-1-10.25-10-13.87-10.4-26.66-4-3,1.51-6.33,2.71-8.84,4.85-6.53,5.55-10,2.69-13.44-3.61-5.67-10.42-7.64-11.16-17.62-5.67-6.47,3.56-11.68,3.17-16.56-2.18-3.69-4-8.4-4.6-13.57-5.48C265.54,489.37,255.11,491.5,246.94,484.44Z" transform="translate(-50.88 -21.22)"/><path class="cls-8" d="M246.94,484.44c8.17,7.06,18.6,4.93,28,6.52,5.17.88,9.88,1.44,13.57,5.48,4.88,5.35,10.09,5.74,16.56,2.18,10-5.49,11.95-4.75,17.62,5.67,3.43,6.3,6.91,9.16,13.44,3.61,2.51-2.14,5.83-3.34,8.84-4.85,12.79-6.39,16.41-6,26.66,4,4,3.93,6.71,5.39,11.84,1,8.89-7.61,12.57-7.23,20.64,1.1,3.79,3.91,6.91,4.2,10.71.85,9.88-8.7,20-10.31,31-1.78,4,3.16,7.23,1.27,10-2.26a87.76,87.76,0,0,0,15.7-32.3c.67-2.53.87-5,3.62-6.14,18.19,16.76,24.27,37.48,20.45,61.62-1,6.17-3.9,6.52-8.82,4.55a36.3,36.3,0,0,1-12.35-8.52c-4.14-4.18-8.05-8.67-13.88-11.13-3.65,2.87-4.51,7.52-6.69,11.33-4.31,7.52-6.28,7.89-12.55,2.2-4.14-3.77-8.5-7.3-12.7-11-4.82-4.28-7.27-2.05-8.94,3-5,15.17-5,15.17-16.34,3.79l-.6-.6c-10.64-10.67-10.64-10.67-20.15,1.47-6.21,7.94-11.26,7.79-17.11-.54a59.36,59.36,0,0,1-3.66-5.66c-2.75-5.06-6.34-5.59-11.15-2.73-5.78,3.45-11.85,6.41-17.67,9.81-4,2.35-6.67,1.08-9.34-2.29-10.84-13.71-10.9-13.68-26.56-7.57-1.84.71-3.53,1.8-5.39,2.42-9.53,3.21-10.55,2.63-10.87-7.43-.2-6.11-2-8-7.41-4.09-6.95,5-14.94,7.93-23.08,10-10.22,2.62-15.66-2.62-13.19-12.76C238.86,496.47,240.5,489.12,246.94,484.44Z" transform="translate(-50.88 -21.22)"/><path class="cls-9" d="M361.79,472.86c-14.35-2-27.19-6.95-35.94-19.35-3.36-4.77-4.81-9.89-3.33-15.88,7.18-29.15,14.15-58.35,21.3-87.51.64-2.6.89-5.73,4.2-6.8-6.35,29.54-12.22,59.19-19.23,88.58-4.66,19.58,3.39,22.5,16.79,24.93,16.72,3,29.54-.7,28.25-23.07-1.4-24.17,2.7-48.28,1.69-72.49-.1-2.45.92-4.93,1.33-7.41,2.33-14.17-1.38-21-13.48-25a94.47,94.47,0,0,0,16-33c.6-2.24-.19-6.38,4.31-5.79,3.7.48,2.86,4,2.91,6.05.32,12.6,4.37,24.13,9.44,35.42.49,10.62.62,21.27,1.55,31.85,2.26,25.66,4.35,51.31,4.91,77.08.2,9.29-3.9,15.63-11.29,21.17C382.32,468.34,371.34,468.49,361.79,472.86Z" transform="translate(-50.88 -21.22)"/><path class="cls-7" d="M226.69,212.25c-10-12.14-5.88-26.08-4.89-39.56.3-4,3.17-4.88,6.79-3.44,4.6,1.83,9.23,3.61,13.93,5.44,2.12-10.73,2.23-11,12.07-6.61,4.52,2,6.94,2.13,8.63-3.22,1.9-6,5.74-7.81,11.52-3.85,6.15,4.22,11.61,5.94,13.69-4.31.8-3.93,3.83-4.54,7-1.61,2.21,2.08,4.41,4.17,6.51,6.16,3.15-1.19,4-3.75,5.4-5.72s2.64-4.26,4.75-5.15c5.75.17,2.19,11.36,9.21,7.82,3.73-1.89,5.66-7.31,8.34-11,5.84,1.28,5.3,7.4,9.66,10.44,2.58-3.41,5.17-6.84,7.77-10.25,4.62-6,6.92-5.68,10.89,1,6.12,10.37,7.61,22.14,10.68,33.44-1.43.24-2.83.65-3.11,2.32-1.37,8.47-6.63,6.75-11.9,4.44-2.28-1-4.24-2.72-6.46-3.9-2.57-1.38-4.91-1.66-5.5,2.21-1.49,9.9-6.25,8.54-12.37,3.77-3.1-2.43-7.43-4.3-7.71,1.93-.43,9.67-4.48,7.77-9.66,3.86-4-3-6.79-4.22-9.49,2-3.46,7.94-6,8.3-11.93,2.23-3.8-3.89-6.37-3.47-9.5.35-1.59,1.95-3.6,3.55-5.32,5.4-3,3.19-6.06,3.11-8.5-.25-4.88-6.71-8.91-5.35-13.74.24-2.56,3-6.25,6.55-9.62-.09-2.31-4.53-5-1.71-7.32.42C233.63,209.31,231.4,213,226.69,212.25Zm87.8-30.62c0-5-.12-8.91,2.58-12.27A4.6,4.6,0,0,0,316,162.6c-2.67-2-4.83-.34-6.57,1.63-2.7,3.05-5.29,5-9.11,1.42-1.32-1.24-3.24-.54-4.75.35-5.77,3.4-11.62,5.43-18.41,2.69-2.37-.95-4.44,1.15-5.47,3.11-3.59,6.83-8.85,5.69-14.39,3.32-2.88-1.24-7.09-3.4-8.41-.35-3.91,9.06-10.18,7.82-17.31,5.67-2.27-.69-4.82-.33-5.79,2.14-1.7,4.34,1.76,7.38,3.51,10.72,1.12,2.16,3.18,1.93,5,.36,7.31-6.36,19.15,2.33,25.61-7.76.86-1.35,3.26,1.36,4.75,2.56,5.95,4.77,10.93,5,15.06-2.51,2.89-5.27,7-7,12.22-2.37,1.76,1.58,3.59,2.36,5.57-.39C304.48,173.49,304.57,173.56,314.49,181.63Z" transform="translate(-50.88 -21.22)"/><path class="cls-7" d="M434.54,190.28c-2.84-16,8.77-25.72,16.46-37,2.26-3.31,6-2.52,8.51.84,2.82,3.82,5.47,7.76,8.24,11.71,4.27.77,4.44-4.59,8.1-5.48.92.78,2.38,1.44,2.92,2.56,3.63,7.49,8.09,10.44,16.15,5.06,4.54-3,6.33,2,7.82,5,2.87,6,5,12.1,12.63,4.09,3-3.16,6.34-1.61,7.59,2.58.93,3.15,1.34,6.45,2,9.82,5.73,0,9.46-5.17,14.78-5.23,4.3,3.67-4.75,10.39,2.38,12.11,3.75.9,8.48-2.26,12.77-3.54a7.47,7.47,0,0,1,1.79,0c2.94,3.51-.34,8.34,2.52,12.09,4.57.67,8.58-1.83,12.67-3.28,5.35-1.89,6.41.06,6.42,4.87,0,13.92-4.77,26.25-11.88,37.88-7,3.09-11.79,1.35-14.17-6.25a31.35,31.35,0,0,0-3-6c-1.29-2.26-3.36-3.72-5.35-1.31-7,8.45-10.19,3.82-13-3.37-2.14-5.46-4.47-6.49-8.52-1-3.19,4.3-7,3.69-8.37-1.9-1.89-7.77-5.36-8.87-11.66-4-3.15,2.41-8.11,3.21-8.18-2.28-.15-11.08-6-10.44-13.26-7.66-6.44,2.48-9.7,0-10.33-6.22-.65-6.51-3.34-7.9-9.56-6-3,.91-8.87,2.81-9.25-3.39-.44-7-3.71-6.95-8.89-5.51C440.2,190.15,437.31,190,434.54,190.28Zm89,19.77c3.57-1.58,4.45-5.7,8.15-6.25,2.44-.37,4.32-1.82,4-4.51-.33-3.13-2.76-3.94-5.53-3.91-3.68,0-7.18.41-8.68-4.46-.87-2.82-4.19-2.55-6.66-2.27-5,.57-8.57-1.36-11.78-5-2.17-2.45-5.32-6.15-8.36-4-7.83,5.4-11.13.19-14.73-5.05-3-4.36-6.4-6.28-11.18-2.56-2.91,2.28-5.18.88-7.33-1.3-2-2-3.94-4-6-5.91-1.58-1.46-3.65-2.17-5.3-.56-2.73,2.65-3.48,6.28-3.56,10,0,1.79,1.42,4.07,2.81,3.52,7.56-3,10.62,2.08,13.78,7.13,1.86,3,4.18,1,5.9.28,5.15-2.28,8.55-.23,9.72,4.45,2.21,8.87,7.48,10.09,15,7.19,5.44-2.1,9.21-1.39,10.43,5.23.44,2.42,2.57,4.36,4.92,2.15C518,195.75,520.76,203.11,523.52,210.05Z" transform="translate(-50.88 -21.22)"/><path class="cls-10" d="M363.37,328.83c12.1,4,15.81,10.86,13.48,25-.41,2.48-1.43,5-1.33,7.41,1,24.21-3.09,48.32-1.69,72.49,1.29,22.37-11.53,26.1-28.25,23.07-13.4-2.43-21.45-5.35-16.79-24.93,7-29.39,12.88-59,19.23-88.58Z" transform="translate(-50.88 -21.22)"/><path class="cls-11" d="M361.79,472.86c9.55-4.37,20.53-4.52,29.44-11.21,7.39-5.54,11.49-11.88,11.29-21.17-.56-25.77-2.65-51.42-4.91-77.08-.93-10.58-1.06-21.23-1.55-31.85,4.93,6.09,9.65,12.38,14.45,18.55,4.51,5.79,2.94,14,3.48,21.08,1.9,24.91,3.29,49.85,4.77,74.79.52,8.78-4.06,15.26-11,19.56C393.59,474.33,378.09,476.5,361.79,472.86Z" transform="translate(-50.88 -21.22)"/><path class="cls-8" d="M434.54,190.28c2.77-.26,5.66-.13,8.31-.87,5.18-1.44,8.45-1.5,8.89,5.51.38,6.2,6.24,4.3,9.25,3.39,6.22-1.88,8.91-.49,9.56,6,.63,6.27,3.89,8.7,10.33,6.22,7.24-2.78,13.11-3.42,13.26,7.66.07,5.49,5,4.69,8.18,2.28,6.3-4.85,9.77-3.75,11.66,4,1.37,5.59,5.18,6.2,8.37,1.9,4-5.47,6.38-4.44,8.52,1,2.83,7.19,6,11.82,13,3.37,2-2.41,4.06-1,5.35,1.31a31.35,31.35,0,0,1,3,6c2.38,7.6,7.17,9.34,14.17,6.25.05,2.52-1.64,4.06-3.15,5.74-3.06,3.41-4.55,9.82-10.07,8.92-5.73-.93-7.71-6.72-9.26-12a19.9,19.9,0,0,0-2-3.71c-5.06.13-6.18,5.73-10.49,6.91-4.43-3.5-4.41-10.1-9-13.85-4.15,1-4,7-9.1,7.36-.65-1-1.81-2-2.08-3.19-2-8.77-5.86-11.42-13.58-5.05-2.95,2.44-5.32.78-6.23-2.55-.87-3.17-1.33-6.46-2-9.66-18.33,2.52-18.33,2.52-22.26-10.23-2.63.28-5.33.68-8,.82s-5.51,0-8.8,0c.39-3.25.68-5.65,1.07-8.92-3.9.34-7.55.11-10.83,1.09-3.84,1.14-7.5,1.66-10.08-1.53-2.7-3.34-.62-7,1.09-10.2A38.85,38.85,0,0,1,434.54,190.28Z" transform="translate(-50.88 -21.22)"/><path class="cls-8" d="M226.69,212.25c4.71.7,6.94-2.94,9.78-5.54,2.32-2.13,5-5,7.32-.42,3.37,6.64,7.06,3.07,9.62.09,4.83-5.59,8.86-6.95,13.74-.24,2.44,3.36,5.53,3.44,8.5.25,1.72-1.85,3.73-3.45,5.32-5.4,3.13-3.82,5.7-4.24,9.5-.35,5.9,6.07,8.47,5.71,11.93-2.23,2.7-6.18,5.46-5,9.49-2,5.18,3.91,9.23,5.81,9.66-3.86.28-6.23,4.61-4.36,7.71-1.93,6.12,4.77,10.88,6.13,12.37-3.77.59-3.87,2.93-3.59,5.5-2.21,2.22,1.18,4.18,2.89,6.46,3.9,5.27,2.31,10.53,4,11.9-4.44.28-1.67,1.68-2.08,3.11-2.32,0,6.16.22,12.26-1.49,18.38-1.64,5.87-4.66,6.37-9.28,3.7-3.62-2.09-7.21-4.25-11-6.48-.63.72-1.42,1.22-1.6,1.88-3,10.78-3,10.75-12.64,5.21-1.88-1.08-4-3.16-6.15-1.75-4,2.69-.27,6.67-1,10.34-6.7,2.06-9.12-5.66-14.55-6.44-2.2.43-1.66,2.64-2.3,4-4.5,9.5-4.63,9.67-12.27,2.74-3.87-3.51-6.39-3.54-9.29,1.15-4.05,6.56-8.68,10.34-15.09,1.83-3.6-4.78-6.74-1.2-9.67,1.62-7.81,7.52-7.84,7.48-12-1.75-3.82,1-5.59,4.45-8.24,6.79-7.83,6.88-11.52,5.81-14-4.26C227.54,216.62,227.15,214.43,226.69,212.25Z" transform="translate(-50.88 -21.22)"/><path class="cls-12" d="M265.4,338.16c1.63-4,4.36-1.18,6.36-.77,28.19,5.77,52.54-.63,72.48-22.06,12.35-13.27,15.76-29.76,17.5-46.91a4.35,4.35,0,0,0-2.18-4.25q.26-2.81.53-5.6c.52-6.65-2.37-12.47-4.7-18.37-1.69-4.29-6-7.49-5.3-12.79,31.2,26.06,29.19,80-3.93,105.68C321.55,352.14,289.55,354.15,265.4,338.16Z" transform="translate(-50.88 -21.22)"/><path class="cls-12" d="M427.71,351.31c1.69-3.3,4-1,5.78-.38,35.52,11.94,72.89-7,86.5-39.44,4.37-10.43,8.29-21.45,4.29-33.21,0-1.85,0-3.69-.07-5.54,1.26-8.37-5.62-14.92-5.19-23.11,3.92-1.77,4.49,2,5.75,3.84,20.17,29.34,14.08,71-13.55,93.51C486.78,366.93,450.83,368.8,427.71,351.31Z" transform="translate(-50.88 -21.22)"/><path class="cls-13" d="M356.69,481.25c4,5.88,10.3,8,16.41,10.66,7,3.07,11.89-4.07,18.39-3.3-4.28,15.35-14.62,19-24.58,8.14-7.76-8.47-23.22-6.61-32.69-.19-6.58,4.46-9.83,3.32-13.36-2.85-6.21-10.84-8.81-11.71-19.16-5.08-4.84,3.1-8,3.31-11-1.77-5.74-9.68-13.89-9.27-23-5.7-2.56,1-6.22,3.7-8.16-.22-1.47-3,1.28-5.8,3.36-8.06,2.66-2.91,5.51-5.64,8.31-8.42,11-10.89,11-10.89,21.88-.7,1.85,1.73,3.59,4.2,6.34,3.67,8.28-1.61,13.22,3.27,17.84,8.75a13.07,13.07,0,0,0,11.83,5c5.32-.39,10.69-.18,16-.23Z" transform="translate(-50.88 -21.22)"/><path class="cls-14" d="M427.66,452.41c-1.3-21-2.56-41.34-3.84-62.05,16.3,5.41,29.88,21.54,29.23,34S441.46,449.52,427.66,452.41Z" transform="translate(-50.88 -21.22)"/><path class="cls-15" d="M312.17,443.32c-12.17-7-18.81-15.76-19.85-28.67-1-12.54,6-19.84,15.82-25.41,5.53-3.15,11.34-5.81,19.53-10C322.19,401.89,317.32,422,312.17,443.32Zm2.37-34c.18-8.93-2.88-13.07-7.62-10.29-4.56,2.68-8.49,6.56-10.32,11.81-1.48,4.28,0,7.8,4,9.9,3.8,2,7.61,2,10.65-1.59A12.94,12.94,0,0,0,314.54,409.31Z" transform="translate(-50.88 -21.22)"/><path class="cls-6" d="M350.09,227.41c-.7,5.3,3.61,8.5,5.3,12.79,2.33,5.9,5.22,11.72,4.7,18.37-11-20.37-27.46-33.29-50.84-36.57.78-2.89,1.85-5.06,4.28-6.72,5.64,2.49,11.19,8.32,17.45.35,1.52-1.94,4.56,1,6.71,2.09C342.4,220.18,346.93,222.94,350.09,227.41Z" transform="translate(-50.88 -21.22)"/><path class="cls-6" d="M519,249.63c-.43,8.19,6.45,14.74,5.19,23.11-6.89-12-15.24-22.64-28.22-29,2.06-3,5.24-3.06,8.24-4.59C507.5,245.07,509.36,253.24,519,249.63Z" transform="translate(-50.88 -21.22)"/><path class="cls-16" d="M251.84,688.13c-12.16-.58-22.82-.32-33.35-2.47-4.45-.91-6.26-3-7.25-7.71-2.23-10.46-.52-20.68.44-31a8.75,8.75,0,0,1,7.31-8.19,139,139,0,0,1,55-1c6.89,1.2,9.79,5.22,9.91,11.42.19,8.95.33,17.88-1.17,26.88-1,6-4.19,8.38-9.11,9.22C265.94,686.62,258.13,687.35,251.84,688.13Z" transform="translate(-50.88 -21.22)"/><path class="cls-16" d="M655.16,619c11.05-3.16,21.44-2.59,31.81-2.7,7.92-.08,11,3.84,11.31,11.34,1,22.14-2.19,25.47-24.83,24.82-14.37-.42-14.3-.42-15.79-14.75C657,631.61,656,625.52,655.16,619Z" transform="translate(-50.88 -21.22)"/><path class="cls-13" d="M314.49,181.63c-9.92-8.07-10-8.14-17,1.56-2,2.75-3.81,2-5.57.39-5.22-4.68-9.33-2.9-12.22,2.37-4.13,7.55-9.11,7.28-15.06,2.51-1.49-1.2-3.89-3.91-4.75-2.56-6.46,10.09-18.3,1.4-25.61,7.76-1.81,1.57-3.87,1.8-5-.36-1.75-3.34-5.21-6.38-3.51-10.72,1-2.47,3.52-2.83,5.79-2.14,7.13,2.15,13.4,3.39,17.31-5.67,1.32-3.05,5.53-.89,8.41.35,5.54,2.37,10.8,3.51,14.39-3.32,1-2,3.1-4.06,5.47-3.11,6.79,2.74,12.64.71,18.41-2.69,1.51-.89,3.43-1.59,4.75-.35,3.82,3.58,6.41,1.63,9.11-1.42,1.74-2,3.9-3.63,6.57-1.63a4.6,4.6,0,0,1,1.08,6.76C314.37,172.72,314.53,176.6,314.49,181.63Z" transform="translate(-50.88 -21.22)"/><path class="cls-13" d="M523.52,210.05c-2.76-6.94-5.49-14.3-14.38-5.91-2.35,2.21-4.48.27-4.92-2.15-1.22-6.62-5-7.33-10.43-5.23-7.5,2.9-12.77,1.68-15-7.19-1.17-4.68-4.57-6.73-9.72-4.45-1.72.77-4,2.68-5.9-.28-3.16-5.05-6.22-10.11-13.78-7.13-1.39.55-2.85-1.73-2.81-3.52.08-3.68.83-7.31,3.56-10,1.65-1.61,3.72-.9,5.3.56,2.06,1.91,4,3.91,6,5.91,2.15,2.18,4.42,3.58,7.33,1.3,4.78-3.72,8.19-1.8,11.18,2.56,3.6,5.24,6.9,10.45,14.73,5.05,3-2.1,6.19,1.6,8.36,4,3.21,3.63,6.82,5.56,11.78,5,2.47-.28,5.79-.55,6.66,2.27,1.5,4.87,5,4.5,8.68,4.46,2.77,0,5.2.78,5.53,3.91.28,2.69-1.6,4.14-4,4.51C528,204.35,527.09,208.47,523.52,210.05Z" transform="translate(-50.88 -21.22)"/><path class="cls-10" d="M314.54,409.31a12.94,12.94,0,0,1-3.28,9.83c-3,3.55-6.85,3.59-10.65,1.59-4-2.1-5.49-5.62-4-9.9,1.83-5.25,5.76-9.13,10.32-11.81C311.66,396.24,314.72,400.38,314.54,409.31Z" transform="translate(-50.88 -21.22)"/></svg>