<?xml version="1.0" encoding="utf-8"?>
<!-- Generator: Adobe Illustrator 24.2.0, SVG Export Plug-In . SVG Version: 6.00 Build 0)  -->
<svg version="1.1" id="Layer_1" xmlns="http://www.w3.org/2000/svg" xmlns:xlink="http://www.w3.org/1999/xlink" x="0px" y="0px"
	 viewBox="0 0 673.83 698.74" style="enable-background:new 0 0 673.83 698.74;" xml:space="preserve">
<style type="text/css">
	.st0{fill:#584841;}
	.st1{fill:#4E3D35;}
	.st2{fill:#493931;}
	.st3{fill:#4A3931;}
	.st4{fill:#F6F5F5;}
	.st5{fill:#4D4C4D;}
	.st6{fill:#49484A;}
	.st7{fill:#F5AA8A;}
	.st8{fill:#F9C2A8;}
	.st9{fill:#F1916E;}
	.st10{fill:#D0D0D2;}
	.st11{fill:#5E5E60;}
	.st12{fill:#EE8E6D;}
	.st13{fill:#F0A787;}
</style>
<g>
	<path class="st0" d="M348.31,14.3c-0.08,0-0.17,0-0.26-0.01c-2.2-0.16-2.54-2.22-2.6-3.76c-0.14-3.48,0.45-6.94,1.82-10.57
		l0.02-0.06h3.55l0.02,3.19c0.01,2.58,0.03,5.15,0.03,7.73c0,0.88-0.15,2.09-0.89,2.84C349.57,14.09,349,14.3,348.31,14.3z"/>
	<path class="st0" d="M350.74,0c0.02,3.61,0.04,7.21,0.05,10.82c0.01,1.88-0.69,3.53-2.74,3.38c-1.93-0.14-2.43-1.76-2.51-3.66
		c-0.15-3.67,0.54-7.14,1.82-10.53C348.49,0,349.62,0,350.74,0z"/>
	<path class="st1" d="M430.99,522.14c-2.39,0-5.02-0.71-7.81-2.11c-3.02-1.51-5.87-3.49-8.62-5.4l-1.32-0.92
		c-2.23-1.54-4.37-3.15-6.64-4.86c-0.99-0.75-2-1.51-3.04-2.28c-1.52,1.43-2.82,3.3-4.08,5.11c-2.74,3.93-5.56,7.99-10.83,7.99
		c-0.88,0-1.83-0.12-2.81-0.34c-4.38-1.02-7.72-4.05-10.95-6.98c-2.29-2.07-4.65-4.22-7.39-5.67c-3.09,6.67-6.37,12.64-12.31,12.64
		c-5.27,0-12.38-4.65-22.37-14.65c-7.03,8.45-13.38,12.56-19.42,12.56c-6.85,0-13.17-5.29-19.31-16.18l-4.32,2.48
		c-3.28,1.88-6.56,3.76-9.85,5.63c-4.96,2.83-8.58,4.09-11.73,4.09c-4.4,0-8.09-2.46-12.37-8.22c-3.22-4.35-6.07-6.29-9.21-6.29
		c-2.05,0-4.32,0.83-6.94,2.53c-1.98,1.29-4.38,1.99-6.7,2.67c-0.65,0.19-1.3,0.38-1.94,0.58c-3.06,0.97-5.59,1.44-7.73,1.44
		c-5.46,0-9.07-3.02-12.45-10.43c-2.39,0.84-4.76,1.84-7.05,2.81c-4.49,1.9-9.13,3.86-14.17,4.7c-1.62,0.27-3.21,0.41-4.72,0.41
		c-5.52,0-10.08-1.81-13.18-5.23c-3.4-3.75-4.85-9.19-4.21-15.73c1.55-15.79,10.35-27.75,20.84-40.65
		c10.34-12.72,21.61-23.92,33.49-33.3l0.38-0.3c2.08-1.62,4.04-3.16,3.06-6.44c-7.78-26.17,8.77-38.58,25.98-47.28
		c0.52-0.26,1.04-0.54,1.56-0.82c1.97-1.05,4.02-2.13,6.15-2.52c11.71-2.13,13.25-10.74,14.88-19.85c0.21-1.19,0.43-2.38,0.66-3.58
		c-12.32,4.58-24.15,6.9-35.17,6.9c-22.19,0-41.47-9.32-57.3-27.7c-24.42-28.35-26.56-60.92-6.35-96.77
		c-0.43,0.03-0.85,0.04-1.26,0.04c-6.77,0-10.35-3.68-11.63-11.94c-0.63-4.05-1.97-7.95-3.79-10.98c-5.4-9.02-6.74-18.02-4.1-27.54
		c0.53-1.9,0.57-3.78,0.15-6.51c-0.63-4.1,0.13-7.55,2.19-9.96c1.83-2.14,4.56-3.27,7.87-3.27c1.13,0,2.33,0.13,3.57,0.4
		c0.74,0.16,1.45,0.35,2.14,0.54c1.39,0.38,2.69,0.74,3.95,0.74c2.24,0,3.98-1.17,5.67-3.79c0.78-1.22,2.1-1.81,4.03-1.81
		c2.5,0,5.53,1.01,7.95,1.83c0.39,0.13,0.8,0.31,1.23,0.51c0.87,0.39,1.77,0.8,2.62,0.8c1.06,0,1.86-0.67,2.45-2.05
		c2.27-5.29,5.3-7.86,9.25-7.86c3.51,0,7.39,2.03,10.73,4.02c0.26,0.16,0.61,0.19,1.14,0.24c0.31,0.03,0.69,0.07,1.14,0.14
		c0.69-0.92,1.28-2.08,1.91-3.32c1.45-2.84,2.94-5.77,6.91-6.33c0.45-0.06,0.89-0.09,1.33-0.09c3.51,0,6.09,2.06,8.59,4.05
		c0.63,0.5,1.25,1,1.89,1.47c5.57-6.66,8.52-9.63,11.18-9.63c2.25,0,4.28,2.12,7.45,6.3c5.4-5.59,8.35-8.5,10.89-8.5
		c2.26,0,4.25,2.24,7.55,6.19c1.85-0.39,2.9-1.77,3.91-3.11c0.46-0.61,0.94-1.24,1.49-1.77c3.83-3.71,6.83-5.43,9.42-5.43
		c3.08,0,5.71,2.32,8.53,7.53c10.21,18.86,13.68,36.62,10.6,54.32c-1.64,9.39-3.9,12.88-8.36,12.88c-2.47,0-5.65-1.03-10.66-3.45
		c-0.82-0.4-1.64-0.77-2.52-1.18l-1.26-0.58c-3.33,4.64-1.85,7.33,2.25,10.94c18.32,16.1,27.94,35.61,28.6,57.98
		c0.01,0.45-0.01,0.94-0.04,1.42c-0.13,2.2-0.26,4.48,3.39,4.8c0.24,0.02,0.47,0.03,0.68,0.03c2.95,0,3.29-1.91,3.7-4.13
		c0.07-0.4,0.15-0.81,0.24-1.22c6.37-27.77,23.08-47.05,49.66-57.31c5.15-1.99,5.15-1.99,5.39-7.39c-0.75,0.12-1.5,0.28-2.23,0.42
		c-1.71,0.35-3.32,0.67-4.97,0.68h-0.11c-5.05,0-8.79-1.54-10.82-4.44c-2.04-2.93-2.19-7.01-0.42-11.81
		c2.52-6.85,3.81-12.37,4.18-17.89c0.45-6.56,3.18-12.35,8.13-17.22l0.49-0.48c2.36-2.32,4.8-4.71,6.48-7.83
		c2.63-4.9,5.95-7.49,9.59-7.49c2.99,0,6.12,1.68,9.3,5.01c0.28,0.29,0.54,0.57,0.79,0.84c1.89,2.02,3.38,3.62,6.23,3.62
		c1.01,0,2.16-0.2,3.49-0.6c0.62-0.19,1.23-0.28,1.81-0.28c3.57,0,6,3.43,8.35,6.74c0.98,1.38,1.91,2.69,2.92,3.77
		c5.24-1.9,8.41-3.05,10.9-3.05c4.15,0,6.2,3.19,11.65,11.69c5.31-2.22,8.47-3.35,10.94-3.35c4.19,0,6.05,3.3,9.57,11.4
		c5.45-1.68,8.65-2.53,10.91-2.53c4.06,0,4.97,2.85,6.19,9.86c4.69-0.8,7.8-1.32,10.03-1.32c4.86,0,5.34,2.6,6.71,10.3
		c0.22-0.01,0.45-0.02,0.68-0.02c0.54-0.01,1.1-0.03,1.63-0.13c4.71-0.97,7.88-1.4,10.28-1.4c2.92,0,4.84,0.65,6.06,2.05
		c2.3,2.65,2.06,8.19,0.92,16.27c-2.42,17.14-9.04,31.91-19.68,43.9c-4.88,5.5-8.28,7.84-11.39,7.84c-3.51,0-6.64-2.95-10.8-10.19
		c-0.38-0.65-0.76-1.3-1.17-1.98l-0.55-0.93c-1.94,0.48-3.08,1.17-3.5,2.13c-0.58,1.33,0.32,2.95,1.2,4.52
		c0.28,0.5,0.55,0.99,0.76,1.45c9.35,20.35,9.53,41.54,0.54,62.97c-12.31,29.36-40.9,48.33-72.84,48.33
		c-12.92,0-25.83-3.25-37.34-9.39c-0.55-0.3-1.1-0.64-1.63-0.98c-1.56-0.99-3.17-2.02-5.41-2.02h-0.01
		c-0.2,9.66-0.36,19.63,11.89,25.33c7.67,3.57,14.67,9.69,21.41,18.7c7.14,9.56,8.69,19.16,4.74,29.35
		c-1.98,5.09-0.52,7.19,3.5,9.99c22.57,15.72,36.6,35.96,41.69,60.16c2.75,13.06,2.17,23.35-1.83,32.38
		C440.18,518.93,436.14,522.14,430.99,522.14z M400.43,491.05c5.15,2.17,8.84,5.96,12.41,9.62c0.5,0.51,1,1.03,1.5,1.53
		c3.99,4.03,7.9,6.73,12.31,8.5c1.81,0.72,3.16,1.06,4.28,1.06c2.45,0,3.81-1.71,4.42-5.53c3.96-25.08-2.72-45.21-20.43-61.54
		c-0.94-3.26-3.41-5.13-5.8-6.95c-1.07-0.82-2.18-1.66-3.13-2.61c-5.33-5.34-8.25-7.72-11.49-7.72c-2.88,0-5.98,1.92-11.43,5.97
		c-0.74,0.55-1.42,1.05-2.18,1.3c-11.57,3.75-21.52,10.1-32.41,17.41c-8.42,5.65-18.44,8.39-30.65,8.39
		c-6.09,0-12.67-0.63-21.33-2.05l-11.65-0.32l-0.03-0.05c-0.16-0.31-0.29-0.68-0.42-1.04c-0.27-0.75-0.55-1.51-1.03-1.74
		c-11.09-5.07-22.21-11.46-28.36-23.78c-0.42-0.84-1.7-1.55-2.63-1.7c-7.61-1.16-12.97-5.82-17.63-10.68
		c-1.79-1.87-3.34-2.74-4.87-2.74c-1.51,0-3.04,0.85-4.81,2.66c-2.63,2.71-5.51,5.28-8.29,7.76c-1.34,1.19-2.67,2.39-3.98,3.6
		c-11.89,10.97-20.14,20.88-25.96,31.18c-6.26,4.56-7.97,11.59-9.63,18.39l-0.14,0.58c-1.08,4.43-0.67,8.02,1.17,10.37
		c1.51,1.92,3.96,2.94,7.08,2.94h0c1.47,0,3.09-0.22,4.81-0.66c9.75-2.49,17.07-5.67,23.05-9.99c1.93-1.4,3.42-2.08,4.56-2.08
		c1.94,0,2.87,1.92,3.01,6.24c0.22,6.81,0.79,9.07,3.73,9.07c1.56,0,3.84-0.66,7.01-1.73c1.02-0.34,2-0.83,2.96-1.31
		c0.78-0.39,1.59-0.79,2.42-1.12c6.29-2.45,10.08-3.92,13.06-3.92c4.51,0,7.18,3.38,13.62,11.53c1.89,2.39,3.58,3.46,5.48,3.46
		c1.14,0,2.36-0.39,3.74-1.19c2.75-1.6,5.6-3.14,8.35-4.62c3.08-1.66,6.26-3.37,9.32-5.19c1.98-1.18,3.68-1.75,5.21-1.75
		c2.44,0,4.43,1.48,6.08,4.52c1.07,1.97,2.38,3.84,3.65,5.64c2.99,4.26,5.78,6.34,8.52,6.34c2.62,0,5.38-1.9,8.44-5.8
		c4.87-6.22,7.31-9.34,9.97-9.34c2.49,0,5.11,2.63,10.33,7.86l0.6,0.6c5.2,5.21,8.07,8.08,10.04,8.08c2.26,0,3.56-3.95,6.14-11.83
		c1.2-3.66,2.66-5.36,4.61-5.36c1.29,0,2.76,0.75,4.49,2.29c1.85,1.65,3.77,3.28,5.63,4.86c2.34,1.99,4.76,4.05,7.07,6.15
		c3.07,2.79,4.86,3.88,6.4,3.88c2.11,0,3.8-2.22,5.99-6.05c0.7-1.22,1.27-2.55,1.83-3.83c1.18-2.73,2.4-5.56,4.89-7.53l0.05-0.04
		L400.43,491.05z M322.74,267.21c-2.68,0-2.91,2.09-3.14,4.11c-0.07,0.6-0.13,1.17-0.26,1.67c-3.18,11.97-8.58,23.07-16.05,32.99
		l-15.37,14.49c-2.88,0.95-3.42,3.39-3.94,5.76c-0.08,0.34-0.15,0.67-0.23,1c-3.21,13.12-6.39,26.24-9.57,39.36
		c-3.82,15.78-7.78,32.11-11.73,48.14c-1.36,5.53-0.28,10.7,3.32,15.8c7.6,10.78,19,16.91,35.87,19.31
		c5.01,1.12,9.96,1.68,14.73,1.68c11.06,0,21.55-3.03,31.17-9c7.64-4.74,11.42-11.47,10.95-19.47l-0.67-11.44
		c-1.22-20.77-2.48-42.25-4.09-63.35c-0.14-1.84-0.14-3.78-0.14-5.66c0-5.45,0-11.1-3.32-15.37c-1.55-1.99-3.09-4-4.64-6.01
		c-3.18-4.14-6.47-8.42-9.81-12.54c-4.49-9.99-9.12-22-9.46-35.47c-0.01-0.33,0.01-0.7,0.02-1.09c0.08-1.99,0.17-4.48-2.84-4.87
		C323.25,267.23,322.98,267.21,322.74,267.21z M367.78,428.99c0.25,0.02,0.49,0.02,0.74,0.02c10.84,0,22.96-15.9,24.14-25.49
		c1.64-13.39-10.06-28.23-28.45-36.11c-0.02,15.28,1.18,30.49,2.34,45.2C366.98,417.99,367.41,423.54,367.78,428.99z M267.09,357.68
		c-8.52,2.59-14.29,5.83-19.93,9.2c-11.31,6.74-16.02,14.95-14.84,25.83c1.3,11.97,7.55,20.71,19.64,27.5L267.09,357.68z
		 M401.58,199.87c-0.51,0-1.04,0.07-1.54,0.14c-0.35,0.05-0.7,0.09-1.05,0.12c-28.25,2.12-53.79,23.93-60.72,51.84
		c-7.51,30.26,4.27,60.94,29.32,76.35c10.2,7.71,23.52,11.96,37.52,11.96c16.73,0,33.02-5.78,45.88-16.28
		c27.45-22.41,33.52-64.3,13.53-93.38c-0.27-0.4-0.51-0.87-0.76-1.38c-0.7-1.42-1.43-2.88-3.08-2.88c-0.52,0-1.12,0.15-1.78,0.45
		c-1.6,0.6-3.06,0.9-4.35,0.9c-4.96,0-7.07-4.34-9.11-8.53c-0.45-0.93-0.92-1.9-1.42-2.8c-0.92,0.46-1.86,0.79-2.77,1.11
		c-2,0.7-3.89,1.36-5.28,3.31c14.24,7.01,22.53,19.17,28.16,28.99l0.05,2.82l0.03,2.77c-1.83,1.35-3.32,1.96-4.6,1.96
		c-2.67,0-3.88-2.67-5.04-5.26c-0.39-0.87-0.76-1.69-1.19-2.41c-9.83-16.85-27.73-27.31-46.72-27.31c-7.74,0-15.05,1.76-21.74,5.22
		c-24.13,12.51-33.46,39.68-22.19,64.6c6.8,15.03,22.19,24.75,39.2,24.75c12.98,0,24.98-5.68,32.92-15.57
		c11.93-14.86,10.97-36.73-2.22-50.88c-6.25-6.7-15.16-10.55-24.43-10.55c-6.99,0-13.66,2.14-19.29,6.18
		c-10.2,7.33-14.66,17.11-13.26,29.06c1.27,10.82,7.57,18.44,18.71,22.66c2.72,1.03,5.46,1.55,8.13,1.55
		c5.81,0,11.44-2.42,16.74-7.18c5.85-5.26,7.45-12.66,4.88-22.6c-1.75-6.79-7.1-10.67-15.89-11.52c-0.54-0.05-1.08-0.08-1.6-0.08
		c-5.58,0-9.9,2.96-12.5,8.55c-1.76,3.8-1.34,7.4,1.29,11.01c1.68,2.3,3.38,3.41,5.23,3.41c1,0,2.07-0.33,3.18-0.98
		c-3.73-5.85-4.01-8.66-1.1-10.71c2.02-1.42,3.99-2.14,5.84-2.14c1.56,0,3.08,0.51,4.5,1.52c4.5,3.19,3.68,7.38,2.13,11.43
		c-2.33,6.07-7.89,9.99-14.16,9.99c-3.95,0-7.74-1.59-10.68-4.48c-4.13-4.06-6.31-9.42-6.15-15.08c0.17-5.96,2.88-11.54,7.64-15.71
		c4.4-3.86,9.84-5.9,15.73-5.9c6.2,0,12.34,2.24,17.75,6.48c8.74,6.86,11.8,24.27,6.17,35.16c-5.63,10.88-17.12,17.64-30.01,17.64
		c-1.61,0-3.24-0.11-4.85-0.33c-12.78-1.74-26.12-13.84-29.12-26.43c-4.4-18.43,3.95-36.77,20.78-45.65
		c5.88-3.1,12.65-4.74,19.58-4.74c12.29,0,23.83,4.94,31.64,13.54c16.54,18.21,16.93,45.74,0.9,64.03
		c-9.68,11.05-23.81,17.38-38.76,17.38c-10.63,0-20.84-3.17-29.54-9.17c-18.1-12.49-26.67-35.33-21.85-58.18
		c4.5-21.3,22.7-39.44,44.25-44.11c3.41-0.74,6.91-1.1,10.71-1.1c7.48,0,15.15,1.46,21.93,2.76l-2.63-9.29
		c-4.34,1.02-7.16,1.67-9.32,1.67c-3.86,0-5.77-2.04-10.88-7.51C403.59,200.24,402.73,199.87,401.58,199.87z M207.86,198.77
		c-1.38,0.91-2.61,2.01-3.81,3.08c-2.45,2.18-4.77,4.24-7.89,4.36c-5.19,0.19-7.93,3.25-10.73,6.93
		c-11.86,15.55-16.53,35.63-12.8,55.08c3.76,19.63,15.66,36.75,32.66,46.95c10.6,7.02,23.01,10.72,35.9,10.72
		c15.71,0,31.6-5.61,44.75-15.79c15.94-12.34,25.69-32.52,26.09-53.99c0.38-20.66-7.69-39.44-22.16-51.53
		c-2.98-4.22-7.1-6.92-12.38-9.68c-0.51-0.27-1.07-0.63-1.65-1.02c-1.29-0.84-2.62-1.71-3.69-1.71c-0.51,0-0.92,0.2-1.24,0.61
		c-2.16,2.75-4.42,4.08-6.9,4.08c-2.54,0-5.02-1.38-7.42-2.72c-1.07-0.59-2.17-1.21-3.26-1.69c-2.35,1.66-3.36,3.82-4.11,6.54
		c22.28,3.16,39.37,15.47,50.8,36.6l-0.03,0.54l-0.48,5.12c-1.57,0.93-2.86,1.35-4,1.35c-2.87,0-4.14-2.71-5.37-5.33
		c-0.32-0.69-0.66-1.4-1.01-2.04c-9.1-16.45-27.8-27.5-46.53-27.5c-3.63,0-7.2,0.41-10.64,1.22c-22.15,5.22-37.24,23.41-38.43,46.34
		c-0.96,18.34,10.46,36.77,27.15,43.81c5.22,2.2,10.78,3.32,16.53,3.32c12.03,0,23.49-4.93,31.45-13.52
		c11.79-12.73,13.63-31.95,4.46-46.73c-6.63-10.7-17.24-16.83-29.1-16.83c-3.09,0-6.22,0.43-9.29,1.28
		c-12.89,3.55-23.15,15.81-23.87,28.51c-0.68,12.12,6.37,23.01,17.96,27.75c2.7,1.11,5.64,1.67,8.72,1.67
		c6.62,0,13.23-2.69,17.66-7.2c5.97-6.07,7.33-13.74,4.16-23.45c-2.06-6.31-7.06-9.61-15.74-10.38c-0.49-0.04-0.96-0.06-1.43-0.06
		c-5.29,0-9.47,2.78-12.07,8.05c-2.14,4.33-1.55,8.63,1.72,12.43c1.48,1.72,2.95,2.55,4.51,2.55c1.35,0,2.78-0.66,4.27-1.95
		c-2.07-1.23-4.01-2.64-4.42-4.56c-0.26-1.23,0.12-2.54,1.17-4c1.5-2.09,3.53-3.11,6.21-3.11c1.14,0,2.39,0.19,3.81,0.57
		c3.48,0.93,4.92,3.61,4.41,8.18c-0.72,6.44-4.15,10.71-10.49,13.05c-1.8,0.66-3.55,1-5.22,1c-3.91,0-7.43-1.8-10.77-5.5
		c-5.91-6.54-7.07-13.95-3.45-22.01c4.02-8.94,10.95-13.57,20.6-13.74l0.51,0c9.55,0,18.25,4.98,23.29,13.31
		c5.28,8.75,5.58,19.39,0.8,28.47c-5.49,10.42-17.57,17.7-29.37,17.7c-1.01,0-2.02-0.06-3-0.16c-14.01-1.56-27.73-13.1-31.24-26.28
		c-4.82-18.13,3.22-36.6,20.01-45.96c6.05-3.37,13.04-5.15,20.21-5.15c12.23,0,23.77,5.01,31.67,13.76
		c15.42,17.07,17.04,41.75,3.93,60.02c-9.57,13.33-25.27,21.3-42.01,21.3c-7.16,0-14.12-1.44-20.68-4.27
		c-17.28-7.47-29.04-23.58-31.47-43.08c-2.57-20.65,5.56-40.41,21.75-52.87c1.87-1.44,3.83-2.79,5.9-4.21
		c0.98-0.67,1.98-1.36,3.03-2.1L207.86,198.77z M481.88,220.39c0.22,0.4,0.46,0.78,0.7,1.17c0.51,0.81,1.03,1.66,1.3,2.56
		c1.7,5.77,3.68,11.02,9.18,11.92c0.34,0.06,0.68,0.08,1,0.08c3.21,0,4.93-2.81,6.6-5.54c0.74-1.21,1.5-2.46,2.39-3.44l0.48-0.53
		c1.38-1.5,2.68-2.92,2.64-5.13c8.15-13.36,11.92-25.39,11.88-37.89c-0.01-3.38-0.52-5.48-3.02-5.48c-0.85,0-1.93,0.23-3.28,0.71
		c-0.99,0.35-2,0.77-2.98,1.18c-2.61,1.09-5.31,2.22-8.16,2.22c-0.51,0-1.02-0.04-1.52-0.11c-1.33-1.46-1.35-2.98-1.36-4.46
		c0-0.49-0.01-0.99-0.06-1.48c-0.07-0.61-0.03-1.25,0.01-1.86c0.1-1.6,0.19-3.12-1.35-4.32c-0.05,0.01-0.1,0.01-0.16,0.01
		c-0.1,0-0.21-0.01-0.32-0.02c-0.17-0.01-0.35-0.03-0.52-0.03c-0.22,0-0.39,0.02-0.55,0.07c-1.36,0.41-2.79,1.01-4.16,1.59
		c-2.45,1.04-4.98,2.11-7.22,2.11c-0.51,0-0.99-0.05-1.44-0.16c-1.37-0.33-2.23-0.86-2.64-1.62c-0.64-1.19-0.08-2.75,0.52-4.4
		c0.8-2.2,1.62-4.47-0.31-6.11c-2.49,0.06-4.65,1.27-6.93,2.56c-2.35,1.33-4.78,2.7-7.72,2.7h-0.08l-0.07-0.08
		c-0.21-1.04-0.39-2.08-0.57-3.12c-0.41-2.33-0.8-4.53-1.44-6.7c-0.77-2.58-2.37-4.18-4.18-4.18c-1.09,0-2.21,0.57-3.23,1.65
		c-2.48,2.6-4.51,3.86-6.23,3.86c-2.8,0-4.38-3.34-6.04-6.87c0,0-0.77-1.62-0.89-1.89c-1.07-2.29-2.39-5.15-4.75-5.15
		c-0.77,0-1.63,0.31-2.55,0.92c-2.79,1.86-5.19,2.77-7.33,2.77c-3.56,0-6.33-2.43-8.96-7.87c-0.36-0.75-1.16-1.29-1.93-1.82
		c-0.35-0.24-0.68-0.47-0.97-0.71c-1.49,0.4-2.42,1.65-3.31,2.85c-1.04,1.4-2.02,2.72-3.93,2.72c-0.26,0-0.54-0.03-0.82-0.08
		c-0.9-1.24-1.74-2.44-2.56-3.64c-1.86-2.68-3.77-5.45-5.73-8.11c-1.37-1.85-3.12-2.92-4.81-2.92c-1.39,0-2.61,0.72-3.54,2.08
		c-1.62,2.37-3.44,4.71-5.19,6.98c-6.63,8.53-13.48,17.35-11.25,29.95c-0.31,0.5-0.63,0.92-0.94,1.34c-0.67,0.9-1.37,1.83-1.9,2.83
		l-0.19,0.37c-1.63,3.08-3.47,6.57-0.91,9.73c1.29,1.6,2.97,2.37,5.12,2.37c1.68,0,3.47-0.47,4.85-0.88
		c2.27-0.67,4.69-0.78,7.26-0.88c1.16-0.05,2.37-0.1,3.59-0.21l0.12-0.01l-1,8.31c1.98,0.46,4.04,0.68,6.28,0.68
		c3.02,0,5.97-0.41,8.83-0.8l1.59-0.22l0.02,0.08c2.73,8.88,3.56,11.55,9.84,11.55c2.81,0,6.81-0.55,12.34-1.31l0.09-0.01l0.02,0.09
		c0.19,0.98,0.37,1.96,0.55,2.95c0.4,2.21,0.81,4.5,1.41,6.7c0.62,2.28,1.91,3.64,3.44,3.64c0.83,0,1.72-0.38,2.64-1.14
		c2.88-2.38,5.25-3.53,7.24-3.53c3.07,0,5.2,2.83,6.5,8.65c0.18,0.83,0.81,1.57,1.36,2.23c0.24,0.29,0.47,0.57,0.65,0.84
		c2.64-0.11,3.81-1.83,5.04-3.65c1.07-1.58,2.17-3.22,4.37-3.61c1.99,1.89,3.08,4.35,4.13,6.73c1.14,2.57,2.31,5.23,4.51,7.1
		c1.83-0.54,3.14-1.98,4.41-3.36c1.58-1.73,3.22-3.51,6.05-3.59l0.06,0L481.88,220.39z M165.45,145.79c-2.24,0-3.52,1.38-3.71,4
		c-0.18,2.43-0.46,4.92-0.74,7.32c-1.25,10.94-2.55,22.25,5.61,32.16c0.17,0.73,0.3,1.42,0.44,2.1c0.29,1.47,0.6,2.99,0.97,4.46
		c1.48,5.92,3.35,8.57,6.03,8.57c0,0,0,0,0,0c1.97,0,4.46-1.39,7.84-4.36c0.81-0.72,1.56-1.56,2.28-2.37c1.64-1.85,3.33-3.77,6-4.44
		l0.08-0.02l0.03,0.08c2.11,4.74,3.17,7.12,4.75,7.12c1.44,0,3.43-1.92,7.05-5.4l0.53-0.51c1.76-1.71,3.57-3.48,5.55-3.48
		c1.31,0,2.54,0.78,3.75,2.38c2.48,3.29,4.78,4.89,7.02,4.89c2.57,0,5.08-2.13,7.9-6.71c1.56-2.53,3.05-3.71,4.67-3.71
		c1.34,0,2.86,0.81,4.77,2.54c3.49,3.16,5.37,4.81,6.82,4.81c1.73,0,2.92-2.52,5.29-7.53c0.19-0.4,0.27-0.87,0.36-1.38
		c0.2-1.16,0.41-2.37,2.01-2.68c2.32,0.33,4.09,1.88,5.81,3.38c1.92,1.67,3.9,3.4,6.57,3.4c0.67,0,1.38-0.11,2.1-0.33
		c0.23-1.32-0.11-2.69-0.44-4.01c-0.59-2.36-1.15-4.59,1.44-6.33c0.49-0.33,1.01-0.49,1.57-0.49c1.23,0,2.42,0.78,3.57,1.54
		c0.38,0.25,0.75,0.49,1.12,0.7l0.11,0.07c3.91,2.24,6.27,3.59,7.81,3.59c2.11,0,2.82-2.55,4.54-8.72c0.16-0.56,0.57-0.95,1-1.36
		c0.21-0.2,0.44-0.41,0.65-0.65l0.05-0.06c0,0,2.41,1.43,3.56,2.12c2.53,1.5,5,2.97,7.48,4.41c1.79,1.03,3.25,1.53,4.46,1.53
		c2.2,0,3.68-1.65,4.67-5.18c1.58-5.64,1.53-11.39,1.49-16.95l-0.01-1.4c-0.77-2.84-1.46-5.78-2.12-8.62
		c-1.95-8.37-3.97-17.03-8.54-24.76c-2.21-3.75-3.77-5.27-5.39-5.27c-1.47,0-3.06,1.27-5.33,4.24c-1.78,2.33-3.55,4.67-5.32,7.01
		l-2.51,3.31l-0.08-0.05c-1.86-1.3-2.84-3.15-3.78-4.94c-1.28-2.43-2.5-4.73-5.77-5.47c-0.81,1.14-1.57,2.46-2.31,3.74
		c-1.69,2.94-3.44,5.97-6.04,7.29c-0.94,0.47-1.72,0.7-2.38,0.7c-1.9,0-2.45-1.89-3.02-3.9c-0.64-2.23-1.3-4.53-3.85-4.61
		c-1.73,0.73-2.85,2.4-4.03,4.17c-0.21,0.31-0.42,0.62-0.63,0.93c-0.29,0.42-0.56,0.87-0.83,1.32c-1.04,1.72-2.11,3.49-4.62,4.44
		l-0.06,0.02l-1.98-1.88c-1.5-1.42-3.03-2.88-4.58-4.32c-1.26-1.18-2.53-1.81-3.66-1.81c-1.56,0-2.7,1.23-3.13,3.37
		c-1.05,5.18-3.04,7.7-6.09,7.7c-2,0-4.39-1.03-7.76-3.33c-2.02-1.38-3.85-2.09-5.44-2.09c-2.7,0-4.69,1.98-5.93,5.88
		c-1.01,3.2-2.31,4.57-4.33,4.57c-1.08,0-2.41-0.38-4.44-1.29c-3.71-1.65-6.07-2.65-7.62-2.65c-2.5,0-3.04,2.69-4.32,9.19
		l-0.02,0.12l-4.34-1.69c-3.26-1.26-6.48-2.51-9.7-3.8C167.31,146,166.32,145.79,165.45,145.79z"/>
	<path class="st1" d="M503.77,174.37c0.8-0.05,1.63,0,2.41-0.16c17.17-3.53,19.69-1.22,17.14,16.81
		c-2.32,16.45-8.57,31.35-19.65,43.84c-9.85,11.1-14.7,10.41-22.03-2.34c-0.55-0.96-1.13-1.92-1.76-2.97
		c-6.58,1.58-2.97,5.44-1.68,8.26c9.61,20.91,9.3,42,0.54,62.89c-17.99,42.91-69,60.79-110.05,38.89c-2.19-1.17-4.08-3.05-7.19-3.01
		c-0.21,10.51-0.05,19.93,11.95,25.52c8.5,3.95,15.49,10.79,21.38,18.67c6.88,9.21,8.75,18.89,4.73,29.26
		c-2.02,5.2-0.49,7.31,3.53,10.11c21.29,14.83,36.23,34.35,41.64,60.1c2.26,10.74,2.84,21.78-1.83,32.32
		c-4.06,9.17-10.82,11.82-19.68,7.39c-3.49-1.75-6.7-4.08-9.93-6.31c-3.23-2.22-6.32-4.65-9.74-7.18c-5.39,5-7.73,15.1-17.69,12.78
		c-7.46-1.74-11.72-9.19-18.4-12.69c-6.39,13.83-12.16,20.51-34.64-2.02c-14.41,17.38-26.9,17.36-38.69-3.61
		c-4.74,2.72-9.49,5.45-14.25,8.16c-10.84,6.18-16.67,5.74-23.97-4.1c-4.92-6.63-9.31-8.32-16.29-3.78
		c-2.51,1.64-5.69,2.31-8.62,3.24c-10.51,3.33-15.5,1.1-20.1-9.02c-7.09,2.47-13.65,6.25-21.28,7.53
		c-14.28,2.38-23.42-5.87-21.99-20.44c1.6-16.29,11.08-28.62,20.81-40.59c9.94-12.24,21.04-23.48,33.48-33.28
		c2.25-1.77,4.53-3.3,3.47-6.84c-7.21-24.27,6.01-37.1,25.93-47.16c2.5-1.26,5.01-2.84,7.69-3.33
		c13.36-2.43,13.53-13.13,15.66-23.69c-35.97,13.43-67.9,7.89-92.53-20.71c-25.44-29.53-25.55-62.68-6.25-96.82
		c-8.64,0.63-11.81-4.29-12.97-11.8c-0.59-3.79-1.84-7.74-3.8-11.02c-5.2-8.69-6.8-17.7-4.09-27.46c0.6-2.17,0.51-4.24,0.15-6.55
		c-1.42-9.19,4.39-14.68,13.51-12.71c4.51,0.97,8.1,3.3,11.87-2.55c2.07-3.21,7.75-1.32,11.87,0.06c2.05,0.69,4.8,2.97,6.42-0.79
		c4.76-11.1,12.09-8.41,19.84-3.79c0.45,0.27,1.09,0.2,2.31,0.39c2.6-3.19,3.23-8.86,8.84-9.65c5.14-0.72,8.24,2.87,11.81,5.47
		c10.14-12.11,11.73-12.39,18.6-3.31c10.57-10.94,11.18-11.02,18.41-2.35c2.79-0.56,3.74-3.22,5.5-4.92
		c7.89-7.63,12.66-7.39,17.79,2.08c9.15,16.9,13.94,34.97,10.59,54.25c-2.44,14.01-6.15,15.51-18.88,9.36
		c-1.22-0.59-2.46-1.14-3.86-1.79c-3.53,4.88-1.78,7.62,2.22,11.14c17.4,15.29,27.87,34.23,28.56,57.9
		c0.07,2.51-1.13,5.92,3.44,6.32c4.3,0.38,4.1-2.65,4.73-5.39c6.39-27.86,22.92-46.94,49.6-57.24c5.25-2.02,5.22-2.1,5.46-7.61
		c-2.51,0.4-4.9,1.11-7.31,1.12c-10.32,0.04-14.83-6.39-11.25-16.12c2.14-5.82,3.76-11.64,4.19-17.92c0.45-6.58,3.27-12.4,8.1-17.16
		c2.58-2.54,5.19-4.99,6.99-8.34c4.82-8.97,11.65-9.86,18.73-2.46c3.03,3.16,4.63,5.7,10.61,3.89c6.14-1.86,9.12,6.11,13.02,10.25
		c13.8-5.01,13.8-5.01,22.55,8.65c13.4-5.61,14.81-5.06,20.49,8.05c14.1-4.35,15.13-3.91,17.08,7.32
		C501.73,162.91,501.73,162.91,503.77,174.37z M464.05,249.83c0.02,1.85,0.04,3.69,0.07,5.54c-7.4,5.24-8.36-1.86-10.64-5.77
		c-14.23-24.39-44.98-34.37-68.59-22.13c-24.21,12.55-33.54,39.72-22.23,64.73c12.9,28.53,52.71,33.6,72.29,9.19
		c12.04-15,11.09-36.73-2.23-51.01c-11.28-12.09-30.2-14.18-43.85-4.38c-9.83,7.06-14.76,16.75-13.3,29.16
		c1.37,11.62,8.32,18.78,18.78,22.75c9.4,3.56,17.87,0.75,24.97-5.64c6.86-6.18,7.03-14.48,4.91-22.7
		c-2.05-7.96-8.66-10.89-15.98-11.6c-6.42-0.62-11.37,2.45-14.19,8.52c-1.86,4-1.22,7.66,1.3,11.11c2.23,3.06,4.91,4.63,8.63,2.4
		c-3.63-5.68-4.12-8.59-1.18-10.66c3.12-2.19,6.68-3.14,10.23-0.62c4.35,3.08,3.72,7.08,2.09,11.31c-4,10.43-16.75,13.28-24.67,5.48
		c-8.72-8.58-8.06-22.28,1.48-30.64c9.18-8.05,22.64-7.81,33.35,0.58c8.71,6.83,11.75,24.19,6.14,35.04
		c-6.34,12.26-20.34,19.22-34.75,17.26c-12.8-1.74-26.03-13.74-29.04-26.35c-4.39-18.37,3.96-36.69,20.73-45.54
		c16.66-8.79,38.56-5.03,51.1,8.78c16.62,18.3,17,45.53,0.9,63.9c-17.08,19.49-46.65,23.04-68.17,8.19
		c-18.07-12.47-26.62-35.25-21.8-58.08c4.53-21.47,22.93-39.43,44.18-44.03c11.01-2.39,21.62-0.44,32.75,1.7
		c-1.04-3.69-1.87-6.62-2.7-9.54c-12.07,2.82-12.11,2.86-20.2-5.79c-1.71-1.83-3.59-1.11-5.45-0.97
		c-28.48,2.14-53.83,23.8-60.81,51.91c-7.5,30.21,4.36,61.08,29.37,76.46c23.12,17.49,59.07,15.62,83.51-4.33
		c27.64-22.56,33.72-64.17,13.55-93.51c-1.26-1.83-1.83-5.61-5.75-3.84c-9.66,3.61-11.52-4.56-14.8-10.48
		c-3,1.53-6.18,1.6-8.24,4.59C448.8,227.19,457.15,237.81,464.05,249.83z M289.92,204.5c-3.16-4.47-7.69-7.23-12.4-9.69
		c-2.15-1.12-5.19-4.03-6.71-2.09c-6.26,7.97-11.81,2.14-17.45-0.35c-2.43,1.65-3.49,3.83-4.27,6.72
		c23.37,3.28,39.82,16.2,50.83,36.57c-0.18,1.87-0.35,3.73-0.53,5.6c-6.9,3.89-8.01-2.12-10.19-6.06
		c-11.15-20.15-35.63-31.43-57.28-26.33c-22.29,5.26-37.31,23.36-38.51,46.43c-0.96,18.33,10.53,36.87,27.21,43.91
		c16.45,6.94,36.05,2.77,48.09-10.22c11.85-12.79,13.68-31.99,4.47-46.85c-8.47-13.66-23.48-19.74-38.51-15.6
		c-12.93,3.56-23.22,15.86-23.94,28.6c-0.69,12.16,6.39,23.09,18.02,27.85c8.73,3.57,19.75,1.3,26.49-5.56
		c6.75-6.87,6.96-15.04,4.18-23.55c-2.45-7.52-8.81-9.82-15.83-10.45c-6.25-0.55-10.85,2.48-13.6,8.04
		c-2.21,4.48-1.52,8.75,1.73,12.54c2.62,3.04,5.53,3.63,9.02,0.52c-3.34-1.97-6.32-4.32-3.33-8.48c2.51-3.51,6.29-3.47,9.9-2.5
		c4.03,1.08,4.74,4.43,4.33,8.07c-0.73,6.51-4.2,10.67-10.43,12.97c-6.56,2.42-11.63,0.23-15.88-4.47
		c-5.84-6.46-7.02-13.91-3.44-21.9c3.95-8.8,10.91-13.51,20.51-13.68c21.02-0.37,34.5,22.65,24.5,41.63
		c-5.98,11.36-19.85,18.87-32.27,17.48c-14-1.56-27.65-13.04-31.16-26.21c-4.8-18.03,3.26-36.53,19.97-45.84
		c16.75-9.33,38.89-5.66,51.76,8.58c15.36,17.01,16.98,41.7,3.93,59.9c-13.98,19.49-40.27,26.63-62.57,16.99
		c-37.74-16.32-43.19-70.01-9.7-95.79c2.78-2.14,5.72-4.05,9.04-6.39c-3.12-2.42-5.65-4.38-8.06-6.25
		c-4.23,2.78-7.09,7.28-11.71,7.45c-5.38,0.2-8.15,3.48-10.81,6.97c-25.04,32.83-15.65,80.84,19.88,102.18
		c24.16,15.99,56.16,13.98,80.76-5.07C319.12,284.53,321.12,230.56,289.92,204.5z M374.37,167.37c-0.95,1.36-2.06,2.64-2.83,4.1
		c-1.71,3.25-3.79,6.87-1.09,10.21c2.58,3.19,6.24,2.67,10.08,1.53c3.29-0.98,6.93-0.75,10.83-1.09c-0.39,3.27-0.68,5.67-0.99,8.28
		c5.91,1.4,11.4,0.41,16.74-0.3c3.95,12.84,3.95,12.84,22.29,10.31c0.64,3.21,1.1,6.49,1.96,9.66c0.91,3.33,3.28,4.99,6.24,2.55
		c7.71-6.37,11.62-3.72,13.58,5.06c0.27,1.21,1.43,2.23,2.03,3.1c5.24-0.12,4.9-6.4,9.51-7.23c3.94,3.86,4.31,10.19,8.56,13.81
		c4.35-1.18,5.47-6.79,10.52-6.92c0.69,1.26,1.6,2.41,1.98,3.71c1.55,5.27,3.53,11.06,9.26,11.99c5.52,0.89,7.01-5.51,10.07-8.92
		c1.51-1.68,3.2-3.22,3.15-5.73c7.11-11.64,11.92-23.97,11.88-37.88c-0.01-4.81-1.07-6.76-6.43-4.87c-4.09,1.44-8.1,3.94-12.62,3.28
		c-1.67-1.87-1.13-3.93-1.34-5.85c-0.23-2.11,0.83-4.53-1.38-6.25c-0.56,0-1.14-0.13-1.64,0.02c-4.3,1.28-9.02,4.44-12.77,3.54
		c-7.14-1.72,1.92-8.44-2.39-12.11c-5.31,0.07-9.04,5.27-14.77,5.23c-0.67-3.36-1.08-6.67-2.02-9.82c-1.24-4.19-4.57-5.73-7.58-2.57
		c-7.63,8.01-9.77,1.89-12.64-4.09c-1.49-3.09-3.28-8.08-7.81-5.05c-8.06,5.38-12.52,2.43-16.15-5.06c-0.54-1.12-2-1.78-2.92-2.56
		c-3.67,0.89-3.83,6.24-8.11,5.47c-2.76-3.94-5.42-7.88-8.24-11.71c-2.48-3.36-6.25-4.15-8.51-0.84
		C383.14,141.65,371.54,151.36,374.37,167.37z M166.53,189.34c0.46,2.18,0.85,4.37,1.39,6.53c2.52,10.07,6.21,11.14,14.04,4.25
		c2.66-2.34,4.42-5.83,8.24-6.79c4.12,9.24,4.15,9.27,11.96,1.75c2.94-2.83,6.07-6.4,9.67-1.62c6.41,8.51,11.04,4.74,15.09-1.82
		c2.9-4.7,5.42-4.66,9.29-1.15c7.64,6.93,7.77,6.76,12.27-2.74c0.64-1.36,0.1-3.57,2.3-4c5.43,0.78,7.86,8.49,14.55,6.43
		c0.7-3.67-3.05-7.64,0.97-10.34c2.11-1.41,4.27,0.67,6.15,1.75c9.68,5.54,9.64,5.57,12.63-5.21c0.19-0.67,0.98-1.17,1.61-1.89
		c3.77,2.23,7.35,4.4,10.98,6.49c4.62,2.67,7.64,2.17,9.28-3.71c1.71-6.11,1.52-12.21,1.49-18.38c-3.06-11.3-4.55-23.07-10.67-33.43
		c-3.97-6.72-6.27-7.09-10.89-1.04c-2.61,3.41-5.19,6.84-7.78,10.25c-4.36-3.04-3.82-9.16-9.65-10.44
		c-2.68,3.74-4.62,9.16-8.34,11.05c-7.02,3.55-3.46-7.65-9.21-7.81c-2.11,0.89-3.31,3.06-4.75,5.14c-1.37,1.97-2.25,4.54-5.4,5.72
		c-2.1-1.98-4.3-4.08-6.51-6.15c-3.13-2.93-6.16-2.33-6.96,1.61c-2.08,10.25-7.54,8.53-13.69,4.31c-5.77-3.96-9.62-2.14-11.51,3.85
		c-1.69,5.35-4.11,5.23-8.63,3.22c-9.84-4.38-9.96-4.12-12.08,6.61c-4.7-1.83-9.33-3.6-13.93-5.44c-3.62-1.44-6.49-0.58-6.79,3.44
		C160.64,163.26,156.55,177.2,166.53,189.34z M287.85,320.4c-3.31,1.08-3.56,4.21-4.2,6.81c-7.15,29.16-14.11,58.36-21.3,87.51
		c-1.48,5.99-0.03,11.11,3.34,15.88c8.75,12.4,21.59,17.31,35.94,19.35c16.29,3.64,31.8,1.47,45.97-7.33
		c6.94-4.31,11.51-10.78,10.99-19.56c-1.48-24.94-2.87-49.89-4.77-74.79c-0.54-7.11,1.03-15.29-3.48-21.08
		c-4.8-6.17-9.52-12.46-14.45-18.55c-5.07-11.29-9.12-22.82-9.44-35.41c-0.05-2.08,0.79-5.58-2.91-6.06
		c-4.5-0.58-3.71,3.55-4.31,5.8c-3.21,12.06-8.55,23.01-16.03,32.96C298.09,310.75,292.97,315.58,287.85,320.4z M186.78,461.53
		c-6.44,4.68-8.08,12.03-9.78,18.99c-2.47,10.14,2.96,15.38,13.18,12.76c8.15-2.08,16.13-4.98,23.08-10.01
		c5.45-3.95,7.21-2.02,7.41,4.09c0.32,10.06,1.35,10.64,10.88,7.43c1.86-0.63,3.55-1.72,5.38-2.43c15.67-6.1,15.73-6.13,26.57,7.58
		c2.66,3.37,5.31,4.64,9.34,2.29c5.82-3.4,11.89-6.36,17.67-9.81c4.81-2.87,8.4-2.34,11.15,2.73c1.07,1.97,2.37,3.82,3.65,5.65
		c5.86,8.34,10.9,8.49,17.11,0.55c9.5-12.14,9.5-12.14,20.15-1.47c0.2,0.2,0.4,0.4,0.6,0.6c11.35,11.38,11.37,11.38,16.34-3.79
		c1.66-5.08,4.11-7.31,8.94-3.03c4.19,3.72,8.55,7.25,12.7,11.01c6.26,5.69,8.24,5.33,12.54-2.2c2.18-3.81,3.05-8.46,6.69-11.33
		c5.84,2.46,9.74,6.95,13.88,11.13c3.59,3.62,7.55,6.59,12.35,8.52c4.92,1.97,7.85,1.62,8.83-4.54
		c3.81-24.14-2.27-44.86-20.46-61.62c-1.33-4.69-5.87-6.5-8.93-9.56c-10.02-10.03-11.94-10-23.05-1.76
		c-0.67,0.5-1.37,1.03-2.15,1.29c-11.88,3.86-22.03,10.44-32.43,17.42c-15.56,10.44-33.96,9.26-51.91,6.33
		c-3.87-0.11-7.74-0.22-11.6-0.32c-0.49-0.97-0.73-2.47-1.5-2.83c-11.63-5.31-22.3-11.69-28.31-23.73c-0.42-0.84-1.72-1.6-2.7-1.75
		c-7.36-1.12-12.71-5.58-17.57-10.65c-3.48-3.63-6.26-3.74-9.82-0.08c-3.88,3.99-8.18,7.6-12.26,11.36
		C202.79,439.53,193.55,449.56,186.78,461.53z M364.11,367.26c-0.04,20.97,2.2,41.41,3.58,61.82c11.39,0.84,23.89-15.87,25.07-25.54
		C394.38,390.27,382.87,375.26,364.11,367.26z M252.03,420.36c5.15-21.27,10.01-41.4,15.2-62.83c-8.54,2.58-14.37,5.83-20.12,9.26
		c-9.82,5.86-16.23,13.57-14.89,25.93C233.58,405.19,240.18,413.74,252.03,420.36z"/>
	<path class="st2" d="M205.81,696.7c-1.38,0-2.75-0.02-4.13-0.04c-1.38-0.02-2.75-0.04-4.13-0.04l-2.62-0.05
		c-18.18-0.38-36.97-0.76-55.37-3.2c-6.94-0.92-11.18-4.16-13.75-10.51c-12.54-30.97-13.02-63.8-1.48-100.37
		c1.67-5.3,5.39-8.41,11.05-9.23c20.11-2.92,36.38-4.28,51.19-4.28c17.15,0,32.65,1.81,47.39,5.54
		c10.94,2.76,15.85,7.91,16.96,17.77c3.14,27.86,2.35,56.38-2.35,84.79c-1.69,10.23-8.88,15.75-23.31,17.89
		c-3.92,0.58-9.07,1.29-14.22,1.6C209.5,696.66,207.83,696.7,205.81,696.7z M188.51,612.7c-9.97,0-20.02,1.12-29.87,3.33
		c-4.12,0.93-6.63,3.86-7.06,8.25c-0.13,1.36-0.27,2.72-0.42,4.08c-0.92,8.76-1.86,17.81,0.03,26.87c0.95,4.57,2.88,6.51,7.37,7.44
		c7.73,1.59,15.54,1.83,23.81,2.09c2.96,0.09,6.02,0.19,9.13,0.35l5.59-0.7c4.72-0.59,9.83-1.22,14.94-1.87
		c6.67-0.85,9.77-3.87,10.69-10.43c1.16-8.27,1.21-16.39,0.92-26.03c-0.18-6.23-3.2-9.81-9.21-10.93
		C205.77,613.53,197.05,612.7,188.51,612.7z"/>
	<path class="st2" d="M197.55,696.52c-19.36-0.4-38.72-0.7-57.97-3.25c-6.81-0.9-11.05-3.97-13.67-10.45
		c-13.48-33.29-12.08-66.7-1.47-100.3c1.71-5.43,5.6-8.38,10.97-9.16c32.9-4.78,65.75-7.03,98.54,1.25
		c9.71,2.45,15.67,6.89,16.89,17.68c3.2,28.41,2.3,56.65-2.34,84.76c-1.72,10.41-9.25,15.74-23.22,17.81
		c-4.71,0.7-9.46,1.31-14.21,1.6C206.56,696.74,202.05,696.52,197.55,696.52z M191.5,665.21c6.12-0.76,13.34-1.65,20.55-2.57
		c6.22-0.79,9.79-3.51,10.78-10.51c1.22-8.72,1.18-17.38,0.92-26.05c-0.17-5.69-2.63-9.78-9.29-11.03
		c-18.73-3.5-37.3-3.27-55.84,0.89c-4.3,0.97-6.71,4-7.13,8.34c-1,10.3-2.57,20.53-0.39,30.98c0.99,4.74,3.06,6.61,7.45,7.51
		C169.07,664.94,179.74,664.61,191.5,665.21z"/>
	<path class="st3" d="M458.75,695.3c-10.8,0-21.85-0.29-32.83-0.85c-3.31-0.17-5.31-0.84-6.48-2.17c-1.16-1.32-1.57-3.31-1.33-6.47
		c0.41-5.42,0.32-10.87,0.23-16.64c-0.04-2.57-0.08-5.21-0.08-7.93v-0.1l0.1,0c3.3-0.15,6.69-0.23,10.35-0.23
		c8.35,0,16.71,0.4,24.8,0.79c6.85,0.33,13.94,0.67,20.9,0.76c2.91,0.04,5.82,0.07,8.73,0.07c3.69,0,6.91-0.06,9.84-0.17
		c2.42-0.09,4.17-0.75,5.22-1.94c0.87-0.99,1.23-2.35,1.07-4.05c-0.04-0.44-0.07-0.88-0.1-1.33c-0.25-3.58-0.51-7.29-5.99-7.61
		c-6.62-0.39-13.35-0.87-19.86-1.34c-8.64-0.62-17.57-1.27-26.36-1.69c-22.42-1.09-28.69-6.72-31.94-28.69
		c-3.09-20.93,5.37-37.04,22.63-43.11c12.27-4.31,25.51-6.41,40.47-6.41c9.04,0,18.68,0.74,30.34,2.32
		c3.96,0.54,7.85,1.26,11.97,2.03c1.91,0.36,3.85,0.72,5.83,1.07l0.08,0.01v39h-0.1c-5.31,0-10.62-0.01-15.92-0.02
		c-5.29-0.01-10.58-0.02-15.87-0.02c-9.62,0-17.45,0.03-24.62,0.11c-3.06,0.03-6.17,0.34-9.18,0.63c-3.18,0.31-6.46,0.64-9.69,0.64
		l-0.62,0c-4.86,0-6.52,1.71-6.58,6.77c-0.06,5.11,1.68,6.25,6.62,6.92c7.46,1,15.09,1.63,22.48,2.24
		c13.52,1.12,27.5,2.27,40.94,5.75c14.37,3.72,25.71,17.64,26.39,32.38c0.46,9.89-3.56,16.84-12.27,21.24
		c-12.05,6.09-25.26,6.69-38.04,7.27l-2.29,0.11C478.09,695.07,468.4,695.3,458.75,695.3z"/>
	<path class="st3" d="M418.35,661.25c19.1-0.89,37.56,1.09,56.04,1.32c6.19,0.08,12.39,0.14,18.58-0.1
		c3.67-0.14,6.79-1.65,6.38-6.11c-0.38-4.02,0.06-8.67-6.19-9.04c-15.41-0.91-30.8-2.29-46.22-3.04
		c-22.17-1.08-28.6-6.67-31.84-28.6c-3.07-20.76,5.46-36.99,22.56-43c23.2-8.15,46.92-7.32,70.76-4.09c5.82,0.79,11.58,2,17.8,3.1
		c0,12.42,0,24.72,0,38.82c-18.86,0-37.63-0.12-56.41,0.07c-6.44,0.06-12.87,1.33-19.3,1.27c-5.19-0.05-6.81,1.78-6.87,6.87
		c-0.06,5.11,1.68,6.34,6.7,7.02c21.12,2.84,42.63,2.61,63.41,7.99c14.4,3.73,25.64,17.52,26.32,32.29
		c0.44,9.59-3.35,16.67-12.21,21.15c-12.75,6.44-26.73,6.73-40.28,7.37c-20.49,0.97-41.08,0.88-61.63-0.17
		c-6.14-0.31-8.19-2.33-7.72-8.54C418.8,677.98,418.35,670.07,418.35,661.25z"/>
	<path class="st3" d="M316.73,695.23c-11,0-21.78-0.27-32.03-0.81c-3.03-0.16-4.78-0.74-5.86-1.95c-1.04-1.16-1.45-2.96-1.29-5.68
		c0.34-5.8,0.27-11.54,0.19-17.63c-0.03-2.61-0.07-5.25-0.07-7.94v-0.09l0.09,0c3.13-0.17,6.39-0.25,9.96-0.25
		c7.75,0,15.77,0.4,23.53,0.78c6.91,0.34,14.06,0.69,21.12,0.78l1.85,0.02c3.92,0.05,7.97,0.09,11.96,0.09c1.03,0,2.06,0,3.08-0.01
		c3.01-0.02,5.63-0.17,7.22-1.78c0.99-1,1.46-2.48,1.44-4.52c-0.06-5.54-1.37-9.02-7.74-9.25c-8.75-0.31-17.64-0.91-26.24-1.48
		c-5.46-0.37-11.1-0.75-16.65-1.05c-12.96-0.7-21.93-4.18-27.44-10.63c-5.57-6.52-7.61-16.11-6.24-29.31
		c2.33-22.52,14.39-33.18,41.61-36.79c6.55-0.87,13.28-1.29,20.56-1.29c14.22,0,28.48,1.68,40.72,3.25c5.73,0.74,9.13,2.7,8.43,10.2
		c-0.69,7.34-1.2,15.14,0.68,22.66c0.7,2.83,0.63,4.59-0.26,5.71c-0.9,1.16-2.68,1.65-5.94,1.65c-18.29,0-36.81,0.42-54.72,0.82
		l-0.12,0c-2.14,0.05-4.32,0.3-6.43,0.55c-2.34,0.27-4.77,0.56-7.15,0.56c0,0-1.06-0.01-1.24-0.01c-5,0-6.83,1.81-7.01,6.93
		c-0.2,5.86,2.62,6.25,7.31,6.9l0.18,0.03c7.55,1.05,15.28,1.7,22.76,2.32c13.14,1.09,26.72,2.22,39.79,5.62
		c14.7,3.82,26.46,19.16,26.23,34.19c-0.17,10.89-6.25,18.11-18.57,22.08c-11.05,3.55-22.5,4.27-33.28,4.7
		C336.65,695.02,326.41,695.23,316.73,695.23z"/>
	<path class="st3" d="M277.78,661.23c17.68-0.94,36.13,1.09,54.6,1.31c5.63,0.07,11.26,0.15,16.89,0.11c4.4-0.03,8.82-0.29,8.75-6.4
		c-0.05-5.19-1.1-9.11-7.84-9.35c-14.31-0.5-28.59-1.75-42.89-2.53c-25.73-1.4-36.28-13.85-33.59-39.83
		c2.37-22.88,14.75-33.15,41.52-36.7c20.65-2.74,40.89-0.66,61.25,1.96c6.22,0.8,9,3.1,8.35,10.09c-0.7,7.49-1.17,15.26,0.68,22.7
		c1.45,5.83-0.45,7.24-6.1,7.24c-18.28,0-36.56,0.41-54.84,0.82c-4.76,0.11-9.52,1.21-14.26,1.1c-5.2-0.12-7.47,1.41-7.66,7.02
		c-0.21,6.02,2.72,6.35,7.58,7.03c20.82,2.91,42.04,2.61,62.54,7.94c14.77,3.84,26.39,18.98,26.15,34.09
		c-0.17,10.95-6.18,18.02-18.5,21.98c-10.82,3.48-22.13,4.25-33.25,4.69c-20.79,0.83-41.63,0.91-62.46-0.18
		c-5.33-0.28-7.38-1.92-7.05-7.52C278.14,678.48,277.78,670.12,277.78,661.23z"/>
	<path class="st2" d="M630.73,700.18c-3.63,0-4.44-1.75-4.66-4.97c-0.74-10.6-3.67-20.92-6.5-30.9c-0.4-1.41-0.8-2.81-1.19-4.22
		c-1.51-5.42-3.94-7.63-8.36-7.63c-0.84,0-1.76,0.08-2.8,0.24c-2.84,0.44-5.7,0.68-8.72,0.95c-1.36,0.12-2.75,0.24-4.19,0.38
		c0,3.08-0.02,6.13-0.04,9.16c-0.04,7.61-0.09,14.81,0.13,22.14c0.08,2.64-0.29,4.18-1.21,5.13c-0.84,0.87-2.19,1.27-4.23,1.27
		c-0.2,0-0.41,0-0.63-0.01c-3.58-0.13-7.47-0.19-12.23-0.19c-2.86,0-5.75,0.02-8.66,0.04c-2.98,0.02-5.99,0.04-9.05,0.04h-0.1l0-0.1
		c0.28-7.09,0.57-14.12,0.85-21.11c0.69-16.89,1.33-32.85,1.91-49.16c0.51-14.43,0.76-26.49,0.79-37.95
		c0.01-3.82,0.82-6.05,4.92-6.15c7.97-0.18,16.07-0.75,23.91-1.29c9.56-0.67,19.44-1.35,29.18-1.35c8.97,0,16.92,0.59,24.3,1.79
		c10.87,1.77,20.45,7.95,26.28,16.93c5.73,8.83,7.39,19.37,4.67,29.68c-3.26,12.34-12.39,18.88-28.75,20.57
		c2.04,3.83,4.11,7.62,6.16,11.39c7.97,14.65,15.5,28.48,21.44,43.83l0.05,0.12l-0.13,0.02c-8.6,1.12-16.95,1.21-24.1,1.21
		c-1.46,0-2.91,0-4.36-0.01c-1.44,0-2.89-0.01-4.32-0.01c-2.72,0-6.3,0.02-9.9,0.14C631.01,700.17,630.87,700.18,630.73,700.18z
		 M595.08,596.14c0.28,2.08,0.58,4.11,0.86,6.1c0.63,4.36,1.23,8.49,1.66,12.67l0.02,0.21c1.44,13.97,1.44,13.97,15.76,14.35
		c1.35,0.04,2.64,0.06,3.86,0.06c9.65,0,14.77-1.28,17.67-4.43c3.64-3.94,3.87-11.06,3.06-21.26c-0.56-7.1-3.77-10.27-10.41-10.28
		c-1.25,0-2.51-0.01-3.76-0.02c-1.46-0.01-2.91-0.02-4.37-0.02C612.24,593.5,603.84,593.71,595.08,596.14z"/>
	<path class="st2" d="M673.83,698.74c-14.71,1.92-28.72,0.86-42.68,1.33c-3.77,0.13-4.75-1.36-4.99-4.87
		c-0.84-12.07-4.45-23.54-7.7-35.14c-1.86-6.67-5.12-8.41-11.26-7.46c-4.15,0.64-8.36,0.87-13,1.33c0,10.68-0.21,21.05,0.1,31.4
		c0.14,4.61-1.01,6.47-5.97,6.29c-9.79-0.35-19.61-0.1-29.95-0.1c0.95-23.88,1.94-47.07,2.76-70.27c0.45-12.65,0.76-25.3,0.79-37.96
		c0.01-3.73,0.76-5.95,4.82-6.05c25.78-0.59,51.52-5.07,77.36-0.85c22.27,3.64,36.59,24.79,30.87,46.49
		c-3.64,13.81-14.46,19.06-28.81,20.51C656.02,661.89,666.32,679.33,673.83,698.74z M594.97,596.06c0.9,6.63,1.9,12.72,2.53,18.85
		c1.47,14.26,1.39,14.26,15.87,14.65c22.63,0.61,26.46-3.46,24.7-25.75c-0.53-6.68-3.44-10.36-10.51-10.37
		C616.92,593.42,606.25,592.92,594.97,596.06z"/>
	<path class="st2" d="M42.75,698.39c-5.71,0-8.51-0.07-9.89-1.54c-1.42-1.52-1.22-4.47-0.81-10.36l0.08-1.24
		c1.41-20.93,0.24-42.01-0.89-62.39c-0.21-3.71-1.88-4-4.22-4l-1.18,0.01c-3.48,0.02-6.97,0.02-10.57,0.02l-15.37-0.01v-46.89H0
		c4.72,0,9.57-0.05,14.27-0.1c4.78-0.05,9.72-0.1,14.61-0.1c7.41,0,13.51,0.12,19.19,0.38c13.65,0.63,27.63,0.75,39.66,0.82
		c3.38,0.02,6.56,0.2,8.4,2.15c1.34,1.42,1.91,3.75,1.73,7.11c-0.36,6.72,0.19,13.36,0.77,20.4c0.25,2.99,0.5,6.09,0.68,9.17
		l0.01,0.1l-0.1,0.01c-2.86,0.21-5.65,0.46-8.33,0.71c-5.62,0.51-10.93,1-16.23,1c-0.51,0-1.02,0-1.52-0.01l-0.35,0
		c-4.99,0-6.04,2.03-6.51,6.57c-1.06,10.24-1.01,20.67-0.96,30.77c0.04,9.28,0.09,18.87-0.73,28.29
		c-1.66,19.15-1.66,19.15-20.9,19.16L42.75,698.39z"/>
	<path class="st2" d="M0,618.77c0-16.17,0-31.31,0-46.7c15.73,0,31.93-0.57,48.06,0.18c13.23,0.61,26.44,0.75,39.66,0.82
		c6.29,0.04,10.48,0.77,10.03,9.15c-0.52,9.68,0.87,19.47,1.44,29.58c-9.38,0.68-17.74,1.85-26.07,1.7c-5.43-0.1-6.48,2.1-6.96,6.66
		c-2.03,19.65,0.01,39.41-1.69,59.06c-1.65,19.06-1.7,19.06-20.81,19.07c-12.74,0.01-12.32,0.04-11.43-13.04
		c1.4-20.8,0.26-41.61-0.89-62.41c-0.24-4.41-2.6-4.09-5.5-4.08C17.71,618.8,9.58,618.77,0,618.77z"/>
	<path class="st0" d="M272.17,61.29c-5.64-7.39-6.86-14.31-8.03-21.01c-0.11-0.63-0.22-1.25-0.33-1.88c-0.1-0.53,0.01-1,0.31-1.36
		c0.35-0.41,0.93-0.65,1.59-0.65c0.81,0,1.9,0.39,2.32,1.48c0.34,0.88,0.7,1.76,1.06,2.64c2.4,5.87,4.87,11.95,3.27,20.73
		l-0.04,0.22L272.17,61.29z"/>
	<path class="st0" d="M272.25,61.23c-6.16-8.07-7.04-15.66-8.35-22.85c-0.42-2.3,3.22-2.57,4.03-0.48
		C270.49,44.55,274.09,51.14,272.25,61.23z"/>
	<path class="st0" d="M344.89,51.32c-0.73-0.05-1.36-0.37-1.82-0.92c-0.61-0.72-0.91-1.78-0.81-2.92c0.33-3.87,0.7-8.26,1.37-12.53
		c0.09-0.57,0.06-1.24,0.03-1.95c-0.06-1.36-0.12-2.77,0.66-3.58c0.43-0.45,1.08-0.67,1.96-0.67c0.24,0,0.51,0.02,0.8,0.05
		c2.45,0.3,2.26,2.07,2.08,3.63c-0.1,0.89-0.19,1.73,0.16,2.28c-0.16,1.45-0.34,2.8-0.52,4.11c-0.42,3.1-0.81,6.02-1.09,8.95
		c-0.15,1.53-0.57,3.56-2.57,3.56C345.05,51.33,344.97,51.33,344.89,51.32z"/>
	<path class="st0" d="M349.22,34.76c-0.6,4.66-1.22,8.82-1.62,13c-0.18,1.88-0.73,3.61-2.71,3.46c-1.81-0.13-2.7-1.91-2.55-3.73
		c0.35-4.19,0.72-8.38,1.37-12.53c0.37-2.37-1.29-6.65,3.34-6.07C350.75,29.35,348.21,33.15,349.22,34.76z"/>
	<path class="st0" d="M422.85,74.81c-0.89,0-1.9-0.58-2.4-1.38c-0.34-0.54-0.4-1.1-0.17-1.59c0.48-1.02,0.95-2.05,1.41-3.09
		c2.48-5.56,5.05-11.3,10.95-14.69l0.15-0.09l0,0.17c-0.08,7.55-4.1,13.43-7.98,19.12l-0.57,0.83
		C423.92,74.56,423.44,74.81,422.85,74.81z"/>
	<path class="st0" d="M432.69,54.14c-0.09,7.89-4.47,13.93-8.53,19.89c-1.24,1.81-4.62-0.41-3.79-2.16
		C423.45,65.39,425.73,58.14,432.69,54.14z"/>
	<path class="st0" d="M476.55,120.65c3.31-4.71,7.17-7.84,10.91-10.87c1.54-1.25,3-2.43,4.41-3.71c0.49-0.44,1.46-0.78,2.27-0.78
		c0.33,0,0.6,0.06,0.81,0.17c0.79,0.42,1.36,1.97,1.26,2.89c-0.32,3.02-14.17,12.43-19.57,12.46l-0.19,0L476.55,120.65z"/>
	<path class="st0" d="M476.63,120.71c4.64-6.61,10.42-10.14,15.31-14.57c0.68-0.61,2.26-0.98,2.96-0.6
		c0.72,0.39,1.31,1.87,1.21,2.79C495.79,111.32,481.93,120.68,476.63,120.71z"/>
	<path class="st0" d="M508.05,98.06c-0.51,0-1.02-0.27-1.4-0.73c-0.43-0.53-0.62-1.21-0.5-1.78c0.79-3.74,3.79-5.42,6.69-7.04
		c0.69-0.38,1.37-0.77,2.02-1.17c0.26-0.16,0.54-0.25,0.82-0.25c1,0,1.91,1.04,2.21,2.53c-1.47,3.62-4.65,5.55-7.72,7.42
		c-0.41,0.25-0.83,0.5-1.23,0.76C508.65,97.97,508.35,98.06,508.05,98.06z"/>
	<path class="st0" d="M517.79,89.64c-1.65,4.01-5.47,5.93-8.91,8.07c-1.47,0.92-2.9-0.85-2.63-2.14c0.97-4.57,5.27-6.02,8.67-8.15
		C516.11,86.67,517.43,87.82,517.79,89.64z"/>
	<path class="st0" d="M440.06,43.17c-0.44-0.58-0.79-0.99-1.06-1.31c-0.45-0.52-0.67-0.78-0.68-1.08
		c-0.13-4.22,1.67-7.84,5.67-11.39c0.22-0.2,0.48-0.3,0.76-0.3c0.92,0,1.89,1.07,1.89,1.64c0.01,4.28-2.36,7.28-5.1,10.75
		c-0.43,0.55-0.88,1.11-1.32,1.69l-0.08,0.1L440.06,43.17z"/>
	<path class="st0" d="M440.13,43.11c-1.12-1.48-1.71-1.9-1.72-2.33c-0.15-4.76,2.29-8.34,5.63-11.31c1-0.89,2.49,0.65,2.49,1.27
		C446.55,35.66,443.34,38.93,440.13,43.11z"/>
	<path class="st1" d="M259.45,24.59c-0.41-1.1-0.83-2.13-1.23-3.13c-1.59-3.91-2.96-7.29-2.09-11.28l0.02-0.11l0.11,0.04
		c2.98,1.15,4.93,2.96,5.65,5.22c0.82,2.6,0.03,5.81-2.29,9.29l-0.11,0.16L259.45,24.59z"/>
	<path class="st1" d="M259.55,24.56c-2.02-5.46-4.39-9.4-3.31-14.36C262.57,12.65,264.01,17.86,259.55,24.56z"/>
	<path class="st1" d="M174.15,66.43c-0.28,0-0.53-0.05-0.76-0.15c-4.03-1.82-5.7-4.63-5.42-9.09l0.01-0.11l0.11,0.02
		c5.26,0.74,7.11,4,8.22,7.1c0.16,0.43,0.09,0.87-0.19,1.27C175.71,66.03,174.9,66.43,174.15,66.43z"/>
	<path class="st1" d="M168.07,57.19c5.04,0.71,6.95,3.73,8.14,7.03c0.49,1.37-1.54,2.52-2.78,1.96
		C170.08,64.67,167.76,62.22,168.07,57.19z"/>
	<path class="st4" d="M395.21,331.72c-7.42,0-14.8-1.21-21.91-3.61c-0.39-0.13-0.8-0.34-1.23-0.56c-0.76-0.39-1.54-0.79-2.29-0.79
		c-0.86,0-1.56,0.55-2.14,1.68l-0.05,0.1l-0.09-0.06c-25.12-15.45-36.94-46.22-29.41-76.57c6.95-28,32.56-49.86,60.9-51.99
		c0.34-0.03,0.69-0.07,1.04-0.12c0.52-0.07,1.05-0.14,1.57-0.14c1.21,0,2.11,0.39,2.92,1.26c5.07,5.42,6.96,7.45,10.73,7.45
		c2.15,0,4.98-0.66,9.27-1.67l0.19-0.04l2.77,9.79l-0.16-0.03c-6.81-1.31-14.53-2.79-22.05-2.79c-3.78,0-7.27,0.36-10.66,1.09
		c-21.48,4.66-39.62,22.73-44.1,43.96c-4.81,22.78,3.73,45.53,21.76,57.98c8.66,5.98,18.84,9.14,29.43,9.14
		c14.9,0,28.97-6.31,38.61-17.31c15.96-18.22,15.58-45.63-0.9-63.77c-7.78-8.56-19.26-13.47-31.49-13.47
		c-6.9,0-13.64,1.63-19.49,4.72c-16.75,8.83-25.06,27.09-20.68,45.42c2.99,12.52,16.25,24.55,28.96,26.28
		c1.6,0.22,3.22,0.33,4.82,0.33c12.81,0,24.23-6.72,29.83-17.53c5.59-10.81,2.57-28.11-6.11-34.91c-5.37-4.21-11.47-6.44-17.62-6.44
		c-5.84,0-11.23,2.02-15.6,5.85c-4.71,4.13-7.4,9.66-7.57,15.56c-0.16,5.6,2,10.91,6.09,14.93c2.9,2.85,6.64,4.42,10.54,4.42
		c6.19,0,11.67-3.87,13.97-9.86c1.53-3.98,2.33-8.09-2.06-11.19c-1.39-0.98-2.86-1.48-4.38-1.48c-1.81,0-3.74,0.71-5.73,2.1
		c-2.81,1.98-2.5,4.73,1.2,10.53l0.06,0.09l-0.09,0.05c-1.17,0.7-2.3,1.06-3.36,1.06c-1.91,0-3.68-1.14-5.39-3.5
		c-2.68-3.67-3.11-7.34-1.31-11.21c2.63-5.67,7.01-8.66,12.68-8.66c0.53,0,1.07,0.03,1.61,0.08c8.89,0.86,14.29,4.79,16.07,11.67
		c2.59,10.02,0.97,17.48-4.94,22.8c-5.33,4.8-11.01,7.23-16.87,7.23c-2.7,0-5.46-0.53-8.2-1.57c-11.22-4.25-17.56-11.93-18.84-22.83
		c-1.42-12.03,3.07-21.87,13.34-29.25c5.66-4.07,12.37-6.22,19.4-6.22c9.33,0,18.28,3.87,24.57,10.61
		c13.26,14.21,14.22,36.2,2.23,51.14c-7.98,9.95-20.04,15.65-33.08,15.65c-17.09,0-32.55-9.76-39.38-24.87
		c-11.31-25.02-1.94-52.3,22.28-64.86c6.71-3.48,14.06-5.24,21.83-5.24c19.06,0,37.02,10.5,46.89,27.41
		c0.43,0.73,0.82,1.6,1.19,2.43c1.14,2.53,2.32,5.14,4.86,5.14c1.24,0,2.69-0.6,4.44-1.84l0.11-0.08l0.04,0.13
		c3.99,11.75,0.07,22.88-4.29,33.28C449.11,314.4,423.1,331.72,395.21,331.72z"/>
	<path class="st4" d="M367.55,328.4c-25.01-15.38-36.86-46.25-29.37-76.46c6.98-28.12,32.32-49.77,60.81-51.91
		c1.86-0.14,3.74-0.86,5.45,0.97c8.09,8.65,8.13,8.61,20.2,5.79c0.82,2.92,1.66,5.85,2.7,9.54c-11.13-2.14-21.74-4.08-32.75-1.7
		c-21.25,4.6-39.64,22.56-44.18,44.03c-4.82,22.83,3.73,45.61,21.8,58.08c21.52,14.85,51.09,11.3,68.17-8.19
		c16.1-18.37,15.72-45.61-0.9-63.9c-12.54-13.8-34.44-17.57-51.1-8.78c-16.78,8.85-25.12,27.17-20.73,45.54
		c3.01,12.61,16.24,24.61,29.04,26.35c14.41,1.96,28.41-4.99,34.75-17.26c5.61-10.85,2.57-28.21-6.14-35.04
		c-10.71-8.4-24.17-8.63-33.35-0.58c-9.54,8.36-10.2,22.06-1.48,30.64c7.92,7.8,20.67,4.95,24.67-5.48
		c1.62-4.23,2.25-8.24-2.09-11.31c-3.55-2.51-7.11-1.57-10.23,0.62c-2.94,2.06-2.45,4.98,1.18,10.67c-3.72,2.22-6.39,0.65-8.62-2.41
		c-2.52-3.45-3.16-7.11-1.3-11.11c2.82-6.07,7.77-9.15,14.19-8.52c7.31,0.71,13.92,3.64,15.98,11.6c2.12,8.22,1.95,16.53-4.91,22.7
		c-7.1,6.39-15.57,9.21-24.97,5.64c-10.46-3.96-17.41-11.13-18.78-22.75c-1.46-12.4,3.47-22.09,13.3-29.16
		c13.65-9.81,32.56-7.72,43.85,4.38c13.32,14.28,14.27,36,2.23,51.01c-19.58,24.4-59.39,19.34-72.29-9.19
		c-11.31-25.01-1.98-52.17,22.23-64.73c23.61-12.24,54.35-2.26,68.59,22.13c2.28,3.9,3.24,11.01,10.64,5.77
		c4,11.76,0.08,22.78-4.29,33.21c-13.61,32.46-50.98,51.38-86.5,39.44C371.53,327.42,369.24,325.1,367.55,328.4z"/>
	<path class="st4" d="M230.49,316.6c-6.01,0-12.37-0.68-18.91-2.02c-0.51-0.1-1.05-0.35-1.62-0.62c-0.78-0.36-1.59-0.74-2.34-0.74
		c-0.99,0-1.72,0.65-2.29,2.06l-0.04,0.11l-0.1-0.06c-17.05-10.24-28.98-27.4-32.75-47.09c-3.73-19.51,0.95-39.65,12.84-55.24
		c2.83-3.72,5.61-6.81,10.88-7c3.05-0.11,5.34-2.15,7.76-4.31c1.22-1.08,2.48-2.2,3.89-3.13l0.06-0.04l8.22,6.38l-0.11,0.08
		c-1.08,0.76-2.13,1.48-3.14,2.18c-2.07,1.42-4.03,2.77-5.9,4.21c-16.13,12.42-24.24,32.11-21.67,52.69
		c2.42,19.44,14.14,35.48,31.35,42.93c6.53,2.82,13.46,4.26,20.6,4.26c16.67,0,32.32-7.93,41.85-21.21
		c13.05-18.19,11.44-42.77-3.92-59.77c-7.86-8.7-19.34-13.69-31.52-13.69c-7.14,0-14.09,1.77-20.11,5.13
		c-16.71,9.31-24.72,27.69-19.92,45.73c3.49,13.1,17.14,24.58,31.07,26.13c0.97,0.11,1.98,0.16,2.98,0.16
		c11.73,0,23.74-7.24,29.2-17.6c4.75-9.01,4.45-19.58-0.8-28.27c-5-8.28-13.64-13.22-23.11-13.22l-0.5,0
		c-9.57,0.17-16.44,4.75-20.42,13.62c-3.59,7.98-2.44,15.31,3.42,21.79c3.3,3.65,6.78,5.43,10.63,5.43c1.64,0,3.37-0.33,5.15-0.99
		c6.26-2.31,9.65-6.53,10.36-12.89c0.5-4.46-0.89-7.06-4.26-7.97c-1.4-0.38-2.63-0.56-3.75-0.56c-2.61,0-4.59,0.99-6.04,3.02
		c-1.01,1.41-1.38,2.67-1.14,3.84c0.4,1.88,2.37,3.27,4.44,4.49l0.12,0.07l-0.1,0.09c-1.56,1.39-3.08,2.09-4.51,2.09
		c-1.62,0-3.14-0.86-4.66-2.62c-3.32-3.87-3.92-8.24-1.74-12.65c2.64-5.34,6.88-8.16,12.25-8.16c0.47,0,0.95,0.02,1.44,0.07
		c5.52,0.49,13.17,2.11,15.92,10.51c3.19,9.79,1.82,17.52-4.21,23.65c-4.47,4.55-11.13,7.26-17.8,7.26c-3.11,0-6.07-0.57-8.8-1.68
		c-11.67-4.77-18.77-15.75-18.08-27.95c0.72-12.78,11.04-25.12,24.02-28.69c3.09-0.85,6.24-1.28,9.35-1.28
		c11.93,0,22.6,6.17,29.27,16.93c9.22,14.86,7.38,34.18-4.48,46.97c-8,8.63-19.51,13.58-31.59,13.58c-5.78,0-11.37-1.12-16.61-3.33
		c-16.76-7.07-28.23-25.58-27.27-44c1.2-23.01,16.35-41.27,38.59-46.52c3.45-0.81,7.04-1.23,10.68-1.23
		c18.8,0,37.57,11.09,46.71,27.6c0.36,0.65,0.69,1.36,1.02,2.05c1.2,2.56,2.44,5.21,5.19,5.21c1.1,0,2.36-0.41,3.85-1.25l0.05-0.03
		l0.05,0.03c1.62,1.03,2.41,2.57,2.23,4.34c-1.67,16.41-4.94,33.45-17.53,46.98C269.26,308.49,251.21,316.6,230.49,316.6z"/>
	<path class="st4" d="M205.23,315.25c-35.54-21.35-44.93-69.35-19.88-102.18c2.66-3.49,5.43-6.76,10.81-6.97
		c4.62-0.17,7.48-4.67,11.71-7.45c2.41,1.87,4.94,3.83,8.06,6.25c-3.32,2.33-6.26,4.25-9.04,6.39
		c-33.49,25.78-28.04,79.47,9.7,95.79c22.29,9.64,48.58,2.5,62.57-16.99c13.05-18.19,11.43-42.89-3.93-59.9
		c-12.86-14.24-35.01-17.91-51.76-8.58c-16.7,9.31-24.76,27.81-19.97,45.84c3.5,13.16,17.16,24.65,31.16,26.21
		c12.43,1.38,26.29-6.13,32.27-17.48c9.99-18.98-3.48-42.01-24.5-41.63c-9.6,0.17-16.56,4.88-20.51,13.68
		c-3.59,7.99-2.4,15.44,3.44,21.9c4.25,4.7,9.33,6.89,15.88,4.47c6.22-2.3,9.7-6.46,10.43-12.97c0.41-3.65-0.3-6.99-4.33-8.07
		c-3.61-0.97-7.39-1-9.9,2.5c-2.99,4.17,0,6.51,3.33,8.48c-3.5,3.11-6.41,2.53-9.02-0.52c-3.25-3.79-3.94-8.06-1.73-12.54
		c2.75-5.56,7.35-8.59,13.6-8.04c7.02,0.62,13.37,2.92,15.83,10.45c2.78,8.5,2.57,16.68-4.18,23.55
		c-6.74,6.86-17.77,9.13-26.49,5.56c-11.63-4.76-18.71-15.69-18.02-27.85c0.72-12.74,11.01-25.04,23.94-28.6
		c15.02-4.14,30.03,1.94,38.51,15.6c9.22,14.86,7.39,34.06-4.47,46.85c-12.04,13-31.65,17.16-48.09,10.22
		c-16.68-7.04-28.17-25.58-27.21-43.91c1.2-23.07,16.22-41.17,38.51-46.43c21.65-5.11,46.13,6.18,57.28,26.33
		c2.18,3.94,3.29,9.95,10.19,6.06c1.56,0.99,2.36,2.46,2.18,4.25c-1.74,17.16-5.15,33.64-17.5,46.92
		c-19.94,21.42-44.29,27.83-72.47,22.06C209.6,314.07,206.87,311.23,205.23,315.25z"/>
	<path class="st5" d="M349.81,489.64c-1.79,0-3.61-1.04-5.9-3.36c-4.58-4.64-7.51-6.44-10.44-6.44c-2.62,0-5.36,1.41-9.43,4.88
		c-2.54,2.16-4.48,3.12-6.29,3.12c-1.94,0-3.84-1.08-6.36-3.6c-5.36-5.38-9.14-8.29-13.74-8.29c-3.47,0-7.46,1.64-12.77,4.29
		c-0.8,0.4-1.63,0.76-2.47,1.13c-2.01,0.88-4.09,1.79-5.67,3.19c-2.61,2.31-4.84,3.43-6.83,3.43c-2.7,0-5.07-2.09-7.45-6.57
		c-3.31-6.23-5.34-9-8.63-9c-2.23,0-5.04,1.29-8.84,3.38c-2.84,1.56-5.37,2.33-7.71,2.33c-3.25,0-6.18-1.49-8.97-4.54
		c-3.43-3.76-7.85-4.49-12.53-5.27l-0.98-0.16c-2.72-0.46-5.57-0.61-8.33-0.76c-6.84-0.36-13.91-0.74-19.75-5.79l-0.06-0.05
		l0.04-0.07c5.83-10.31,14.1-20.24,26-31.22c1.31-1.21,2.65-2.4,3.98-3.6c2.78-2.48,5.65-5.05,8.27-7.75
		c1.81-1.86,3.38-2.72,4.95-2.72c1.59,0,3.18,0.89,5.02,2.8c4.64,4.84,9.97,9.47,17.51,10.62c0.98,0.15,2.33,0.91,2.78,1.8
		c6.12,12.27,17.2,18.63,28.26,23.69c0.56,0.26,0.86,1.07,1.14,1.85c0.13,0.36,0.26,0.71,0.41,1.02l0.07,0.14l-0.16,0
		c-0.35,0.01-0.69,0.01-1.04,0.01l-2.21-0.01c-1.04,0-2.27,0.02-3.47,0.17c-1.99,0.25-3.89,0.38-5.66,0.38
		c-9.18,0-16.02-3.49-20.9-10.66c-0.84-1.23-2.66-3.3-5.41-3.3c-0.32,0-0.64,0.03-0.96,0.08c-0.96,0.17-1.92,0.25-2.83,0.25
		c-5,0-9.15-2.43-13.07-7.66c-2.01-2.68-4.07-3.99-6.29-3.99c-1.95,0-3.98,1-6.19,3.07c-4.58,4.27-9.76,9.1-14.51,14.03
		c-2.31,2.4-4.61,5.19-2.76,7.99c0.62,0.93,1.43,1.38,2.49,1.38c1.17,0,2.46-0.54,3.71-1.06c0.48-0.2,0.96-0.4,1.41-0.56
		c3.38-1.19,7.33-2.41,10.98-2.41c5.24,0,9.23,2.55,12.2,7.8c1.61,2.85,3.34,4.17,5.43,4.17c1.6,0,3.48-0.75,6.07-2.43
		c4.36-2.83,7.06-3.98,9.33-3.98c3.65,0,6.19,3.29,9.36,8.96c2.32,4.16,4.39,5.93,6.93,5.93c1.87,0,4.02-0.96,6.77-3.03
		c4.63-3.48,10.53-5.4,16.62-5.4c6.41,0,11.94,2.13,15.17,5.86c2.8,3.23,6.22,6.52,10.39,6.52c1.02,0,2.08-0.2,3.13-0.59
		c6.32-2.36,10.48-7.15,12.04-13.85c-0.31-0.03-0.62-0.04-0.92-0.04c-2.62,0-4.98,1.06-7.27,2.08c-2.21,0.99-4.49,2.01-6.92,2.01
		c-1.24,0-2.43-0.26-3.64-0.79c-0.76-0.34-1.53-0.66-2.3-0.99c-5.47-2.33-10.63-4.53-14.11-9.7l-0.13-0.19l0.23,0.04
		c8.65,1.42,15.22,2.05,21.3,2.05c12.17,0,22.15-2.73,30.54-8.36c10.9-7.31,20.86-13.67,32.46-17.43c0.73-0.24,1.4-0.73,2.04-1.21
		l0.08-0.06c5.49-4.07,8.62-6.01,11.55-6.01c3.31,0,6.26,2.4,11.63,7.77c0.94,0.94,2.05,1.78,3.11,2.59
		c2.42,1.84,4.91,3.74,5.84,7.01l0.02,0.08l-0.08,0.03c-2.41,1.01-2.85,2.98-3.36,5.27c-0.06,0.27-0.12,0.54-0.19,0.81
		c-2.52,10.53-7.38,20.58-15.29,31.66c-1.45,2.02-3.69,4.71-6.46,4.71c-1.14,0-2.3-0.46-3.44-1.36c-5.07-4-9.95-5.95-14.92-5.95
		c-5.68,0-11.34,2.57-17.31,7.86C352.59,489.01,351.2,489.64,349.81,489.64z"/>
	<path class="st5" d="M296.53,458.34c17.95,2.94,36.35,4.11,51.91-6.33c10.4-6.98,20.55-13.56,32.43-17.42
		c0.77-0.25,1.48-0.79,2.15-1.29c11.11-8.24,13.03-8.27,23.05,1.76c3.06,3.06,7.6,4.87,8.93,9.56c-2.74,1.16-3,3.59-3.61,6.15
		c-2.78,11.63-8.36,21.95-15.27,31.62c-2.53,3.54-5.76,6.49-9.76,3.33c-11.57-9.13-22.04-7.23-32.36,1.91
		c-3.77,3.34-6.71,1.92-10.02-1.42c-7.96-8.05-11.73-8.61-20.01-1.57c-5.06,4.3-7.95,4.11-12.52-0.47
		c-10.12-10.16-13.8-10.42-26.63-4.02c-2.77,1.38-5.92,2.35-8.16,4.34c-6.41,5.67-10.35,4.01-14.13-3.11
		c-5.56-10.46-7.61-11.16-17.61-5.66c-6.47,3.56-11.68,3.15-16.55-2.2c-3.69-4.04-8.4-4.59-13.57-5.47
		c-9.42-1.6-19.86,0.54-28.02-6.52c6.77-11.97,16.01-22,25.98-31.2c4.08-3.76,8.38-7.37,12.26-11.36c3.56-3.66,6.35-3.55,9.82,0.08
		c4.86,5.07,10.21,9.53,17.57,10.65c0.99,0.15,2.28,0.91,2.7,1.75c6.01,12.04,16.68,18.42,28.31,23.73c0.77,0.35,1.01,1.86,1.5,2.83
		c-2.25,0.05-4.52-0.11-6.74,0.17c-10.69,1.37-19.96-0.68-26.47-10.24c-1.44-2.11-3.69-3.75-6.47-3.26
		c-7.05,1.24-11.92-2.18-15.81-7.36c-3.99-5.32-8.17-5.1-12.63-0.93c-4.92,4.59-9.85,9.19-14.52,14.04
		c-2.08,2.16-4.74,5.15-2.78,8.11c1.89,2.86,5.18,0.7,7.72-0.2c8.87-3.13,17.32-4.8,23.06,5.34c3.16,5.59,6.6,5.05,11.65,1.78
		c9.78-6.33,12.8-5.35,18.54,4.95c3.66,6.57,7.1,8.01,13.84,2.94c10.06-7.57,25.28-6.9,31.65,0.45c3.75,4.32,8.03,8.05,13.63,5.96
		c5.97-2.23,10.49-6.86,12.13-14.04c-6.95-0.75-11.85,6.33-18.83,3.26C306.79,466.3,300.48,464.21,296.53,458.34z"/>
	<path class="st6" d="M430.94,511.96c-1.14,0-2.52-0.34-4.35-1.08c-4.44-1.78-8.37-4.5-12.38-8.54c-0.5-0.51-1-1.02-1.5-1.53
		c-3.54-3.63-7.21-7.39-12.29-9.55c-2.42,1.94-3.62,4.72-4.78,7.41c-0.56,1.29-1.13,2.63-1.84,3.86c-2.23,3.9-3.95,6.15-6.16,6.15
		c-1.83,0-3.94-1.57-6.53-3.93c-2.31-2.1-4.73-4.16-7.07-6.15c-1.86-1.58-3.78-3.22-5.63-4.86c-1.7-1.51-3.12-2.24-4.36-2.24
		c-1.85,0-3.25,1.66-4.42,5.22c-2.69,8.22-3.92,11.97-6.33,11.97c-2.06,0-4.95-2.89-10.18-8.14l-0.6-0.6
		c-5.18-5.19-7.78-7.8-10.19-7.8c-2.56,0-4.99,3.09-9.81,9.26c-3.09,3.95-5.9,5.87-8.59,5.87c-2.81,0-5.65-2.1-8.68-6.42
		c-1.27-1.81-2.58-3.68-3.66-5.66c-1.61-2.97-3.54-4.42-5.9-4.42c-1.49,0-3.16,0.56-5.11,1.72c-3.06,1.82-6.24,3.54-9.32,5.19
		c-2.75,1.48-5.6,3.01-8.35,4.62c-1.4,0.82-2.66,1.22-3.84,1.22c-1.96,0-3.7-1.09-5.63-3.53c-6.4-8.1-9.06-11.46-13.47-11.46
		c-2.94,0-6.71,1.47-12.96,3.9c-0.84,0.33-1.65,0.73-2.43,1.12c-0.96,0.48-1.95,0.97-2.98,1.32c-3.19,1.07-5.48,1.74-7.08,1.74
		c-3.29,0-3.73-2.82-3.93-9.27c-0.13-4.18-1-6.05-2.81-6.05c-1.09,0-2.54,0.67-4.44,2.04c-6,4.34-13.34,7.52-23.11,10.02
		c-1.74,0.45-3.38,0.67-4.86,0.67c-3.18,0-5.69-1.04-7.23-3.01c-1.89-2.4-2.3-6.04-1.21-10.54l0.14-0.58
		c1.66-6.83,3.38-13.9,9.67-18.47l0.06-0.05l0.06,0.05c5.78,5,12.82,5.38,19.63,5.74c2.76,0.15,5.62,0.3,8.35,0.76l0.98,0.16
		c4.72,0.78,9.17,1.52,12.65,5.33c2.75,3.01,5.63,4.48,8.82,4.48c2.31,0,4.79-0.75,7.61-2.3c3.83-2.1,6.66-3.41,8.93-3.41
		c3.4,0,5.46,2.81,8.81,9.11c2.34,4.41,4.65,6.46,7.27,6.46c1.94,0,4.13-1.11,6.7-3.38c1.61-1.42,3.7-2.34,5.72-3.23
		c0.83-0.36,1.66-0.73,2.46-1.13c5.34-2.66,9.35-4.31,12.86-4.31c4.67,0,8.48,2.94,13.88,8.35c2.48,2.48,4.34,3.54,6.22,3.54
		c1.76,0,3.66-0.95,6.16-3.08c4.12-3.5,6.89-4.92,9.56-4.92c3.45,0,6.73,2.6,10.59,6.5c2.26,2.28,4.03,3.3,5.76,3.3
		c1.34,0,2.69-0.62,4.12-1.88c6-5.32,11.71-7.91,17.44-7.91c5.02,0,9.94,1.96,15.05,5.99c1.11,0.87,2.22,1.32,3.32,1.32
		c2.04,0,4.04-1.47,6.3-4.63c7.9-11.05,12.75-21.09,15.26-31.58c0.06-0.27,0.13-0.54,0.19-0.81c0.5-2.24,0.98-4.35,3.48-5.41
		l0.06-0.02l0.05,0.04c17.76,16.37,24.46,36.56,20.49,61.71C434.93,510.21,433.5,511.96,430.94,511.96z"/>
	<path class="st6" d="M186.78,461.53c8.16,7.06,18.6,4.93,28.02,6.52c5.16,0.87,9.88,1.43,13.57,5.47
		c4.88,5.34,10.08,5.76,16.55,2.2c10-5.5,12.05-4.8,17.61,5.66c3.78,7.12,7.72,8.78,14.13,3.11c2.24-1.99,5.39-2.96,8.16-4.34
		c12.83-6.4,16.51-6.13,26.63,4.02c4.57,4.59,7.46,4.77,12.52,0.47c8.28-7.04,12.05-6.48,20.01,1.57c3.3,3.34,6.24,4.77,10.02,1.42
		c10.32-9.14,20.79-11.04,32.36-1.91c4,3.15,7.23,0.2,9.76-3.33c6.91-9.67,12.49-19.99,15.27-31.62c0.61-2.56,0.86-4.99,3.61-6.15
		c18.19,16.77,24.27,37.49,20.46,61.62c-0.97,6.16-3.91,6.52-8.83,4.54c-4.8-1.93-8.76-4.9-12.35-8.52
		c-4.14-4.18-8.04-8.67-13.88-11.13c-3.64,2.88-4.51,7.52-6.69,11.33c-4.31,7.52-6.28,7.89-12.54,2.2
		c-4.15-3.77-8.51-7.3-12.7-11.01c-4.83-4.28-7.28-2.05-8.94,3.03c-4.97,15.17-4.99,15.16-16.34,3.79c-0.2-0.2-0.4-0.4-0.6-0.6
		c-10.64-10.67-10.64-10.67-20.15,1.47c-6.21,7.94-11.26,7.79-17.11-0.55c-1.29-1.84-2.59-3.69-3.65-5.65
		c-2.75-5.07-6.34-5.6-11.15-2.73c-5.79,3.45-11.85,6.41-17.67,9.81c-4.03,2.35-6.68,1.08-9.34-2.29
		c-10.84-13.71-10.9-13.68-26.57-7.58c-1.83,0.71-3.53,1.8-5.38,2.43c-9.53,3.21-10.56,2.63-10.88-7.43
		c-0.19-6.11-1.95-8.03-7.41-4.09c-6.95,5.03-14.93,7.92-23.08,10.01c-10.22,2.61-15.66-2.62-13.18-12.76
		C178.7,473.56,180.33,466.21,186.78,461.53z"/>
	<path class="st7" d="M301.62,450.05c-16.93-2.41-28.37-8.57-36.01-19.39c-3.63-5.15-4.73-10.37-3.35-15.96
		c3.95-16.04,7.91-32.36,11.73-48.14c3.18-13.12,6.36-26.25,9.57-39.36c0.08-0.33,0.15-0.66,0.23-1c0.53-2.42,1.09-4.92,4.04-5.88
		l0.17-0.05l-0.04,0.17c-1.89,8.81-3.74,17.62-5.59,26.44c-4.28,20.41-8.71,41.52-13.63,62.14c-1.98,8.29-1.76,13.88,0.66,17.59
		c2.95,4.52,9.01,5.94,16.05,7.21c3.34,0.61,6.4,0.91,9.1,0.91c6.39,0,11.04-1.64,14.22-5.01c3.68-3.9,5.3-10.25,4.8-18.87
		c-0.72-12.53,0.04-25.24,0.78-37.54c0.69-11.44,1.4-23.28,0.91-34.94c-0.07-1.6,0.34-3.23,0.74-4.81c0.22-0.86,0.44-1.75,0.58-2.63
		c2.33-14.17-1.3-20.92-13.41-24.91l-0.13-0.04l0.08-0.11c7.45-9.9,12.84-20.98,16.02-32.93c0.13-0.48,0.19-1.04,0.26-1.63
		c0.23-2.01,0.48-4.29,3.34-4.29c0.25,0,0.53,0.02,0.82,0.06c3.2,0.42,3.1,3,3.02,5.07c-0.02,0.38-0.03,0.75-0.02,1.08
		c0.34,13.44,4.96,25.42,9.43,35.38c0.16,3.35,0.28,6.67,0.4,9.99c0.26,7.19,0.52,14.62,1.16,21.89
		c2.17,24.67,4.34,50.94,4.91,77.08c0.19,8.68-3.31,15.24-11.33,21.26c-5.42,4.06-11.68,5.74-17.74,7.37
		c-3.91,1.05-7.96,2.13-11.71,3.85l-0.03,0.01L301.62,450.05z"/>
	<path class="st7" d="M301.63,449.95c-14.35-2.04-27.19-6.95-35.94-19.35c-3.36-4.77-4.81-9.89-3.34-15.88
		c7.19-29.15,14.15-58.35,21.3-87.51c0.64-2.6,0.89-5.73,4.2-6.81c-6.35,29.54-12.22,59.2-19.22,88.58
		c-4.67,19.58,3.38,22.5,16.79,24.93c16.72,3.03,29.54-0.69,28.24-23.07c-1.4-24.17,2.7-48.28,1.69-72.49
		c-0.1-2.45,0.92-4.93,1.32-7.41c2.33-14.17-1.38-21.04-13.48-25.02c7.48-9.95,12.83-20.9,16.03-32.96c0.6-2.24-0.2-6.38,4.31-5.8
		c3.7,0.48,2.86,3.97,2.91,6.06c0.32,12.6,4.36,24.13,9.44,35.42c0.49,10.62,0.62,21.27,1.55,31.85
		c2.26,25.66,4.35,51.31,4.91,77.08c0.2,9.29-3.9,15.63-11.29,21.17C322.16,445.43,311.18,445.58,301.63,449.95z"/>
	<path class="st5" d="M167.67,189.53c-0.38,0-0.77-0.03-1.16-0.09c-8.27-10.02-6.97-21.37-5.71-32.35c0.27-2.4,0.56-4.89,0.74-7.31
		c0.2-2.7,1.59-4.19,3.91-4.19c0.9,0,1.91,0.22,3.01,0.66c3.22,1.28,6.45,2.53,9.7,3.8l4.11,1.6c1.29-6.53,1.84-9.24,4.49-9.24
		c1.62,0,3.98,1.02,7.7,2.67c2,0.89,3.3,1.27,4.35,1.27c1.92,0,3.16-1.32,4.14-4.43c1.26-3.99,3.32-6.02,6.12-6.02
		c1.63,0,3.5,0.71,5.55,2.12c3.28,2.25,5.71,3.3,7.65,3.3c2.94,0,4.87-2.47,5.9-7.54c0.45-2.24,1.67-3.53,3.33-3.53
		c1.18,0,2.5,0.64,3.8,1.86c1.54,1.45,3.08,2.9,4.58,4.32l1.89,1.79c2.4-0.92,3.45-2.66,4.46-4.33c0.28-0.46,0.55-0.91,0.84-1.33
		c0.21-0.31,0.42-0.62,0.63-0.93c1.2-1.79,2.34-3.48,4.17-4.25c2.74,0.07,3.45,2.55,4.08,4.74c0.55,1.93,1.08,3.75,2.83,3.75
		c0.63,0,1.38-0.22,2.29-0.68c2.55-1.29,4.28-4.3,5.95-7.21c0.75-1.3,1.52-2.65,2.36-3.81l0.04-0.05l0.06,0.01
		c3.41,0.75,4.65,3.1,5.97,5.59c0.92,1.74,1.87,3.54,3.64,4.81l2.4-3.16c1.77-2.34,3.54-4.68,5.33-7.01
		c2.31-3.03,3.95-4.32,5.49-4.32c1.7,0,3.31,1.56,5.56,5.37c4.58,7.75,6.6,16.42,8.56,24.81c0.66,2.84,1.35,5.78,2.13,8.64
		l0.03,0.11l-0.11,0.02c-1.38,0.24-2.76,0.61-3.02,2.24c-0.7,4.31-2.49,6.41-5.48,6.41c-2.07,0-4.47-0.98-6.56-1.9
		c-1.31-0.57-2.53-1.39-3.71-2.18c-0.89-0.6-1.81-1.21-2.76-1.72c-1.16-0.62-2.09-0.92-2.85-0.92c-1.37,0-2.19,1-2.5,3.05
		c-0.76,5.05-2.43,7.51-5.1,7.51c-1.85,0-4.21-1.17-7.43-3.68c-1.86-1.46-3.58-2.26-4.84-2.26c-1.68,0-2.59,1.39-2.71,4.12
		c-0.22,4.87-1.34,7.15-3.55,7.15c-1.79,0-4.08-1.54-6.28-3.21c-1.96-1.48-3.56-2.46-4.98-2.46c-1.66,0-3.04,1.39-4.35,4.38
		c-2,4.6-3.64,6.47-5.66,6.47c-1.64,0-3.57-1.26-6.45-4.21c-1.79-1.84-3.29-2.7-4.7-2.7c-1.5,0-2.93,0.94-4.64,3.04
		c-0.94,1.15-2.03,2.19-3.1,3.19c-0.75,0.71-1.52,1.44-2.23,2.21c-1.46,1.57-2.95,2.37-4.42,2.37c-1.55,0-2.98-0.88-4.24-2.62
		c-2.19-3.01-4.27-4.47-6.38-4.47c-2.14,0-4.42,1.5-7.2,4.72c-1.58,1.83-3.46,3.71-5.42,3.71c-1.61,0-3.08-1.28-4.37-3.81
		c-0.81-1.6-1.71-2.37-2.76-2.37c-1.35,0-2.73,1.27-4.06,2.5l-0.34,0.32c-0.55,0.51-1.09,1.06-1.61,1.6
		C172.82,187.46,170.82,189.53,167.67,189.53z M169.43,157.33c-1.82,0-3.15,0.86-3.74,2.42c-1.23,3.26,0.46,5.81,2.1,8.28
		c0.51,0.77,1.03,1.56,1.46,2.36c0.52,0.97,1.24,1.47,2.14,1.47c0.82,0,1.76-0.42,2.72-1.2c2.66-2.18,5.18-3.24,7.69-3.24
		c1.87,0,3.75,0.61,5.58,1.82c0.79,0.52,1.48,0.77,2.1,0.77c1.24,0,2.07-1.03,2.94-2.13c0.26-0.33,0.53-0.67,0.82-0.99
		c2.39-2.64,4.37-3.82,6.42-3.82c1.8,0,3.67,0.93,5.7,2.84c2.21,2.08,4.4,3.13,6.5,3.13c2.72,0,5.2-1.86,7.16-5.38
		c2.17-3.89,4.49-5.78,7.08-5.78c1.78,0,3.72,0.92,5.77,2.74c1.06,0.94,1.92,1.38,2.73,1.38c0.94,0,1.81-0.59,2.68-1.82
		c3.57-5.03,5.37-7.55,7.68-7.55c2.01,0,4.42,1.92,8.76,5.42c0.29-1.32,0.43-2.61,0.57-3.86c0.32-2.83,0.62-5.51,2.56-7.85
		c0.78-0.93,1.12-2.09,0.98-3.25c-0.16-1.29-0.9-2.48-2.09-3.35c-0.78-0.57-1.57-0.86-2.33-0.86c-1.67,0-3.07,1.35-4.1,2.54
		c-1.52,1.73-3.2,3.34-5.24,3.34c-1.29,0-2.6-0.64-4.02-1.96c-0.45-0.42-1.01-0.63-1.65-0.63c-0.83,0-1.81,0.34-2.98,1.03
		c-4.63,2.73-8.35,3.95-12.08,3.96c-2.16,0-4.26-0.42-6.42-1.28c-0.37-0.15-0.75-0.22-1.12-0.22c-1.81,0-3.36,1.72-4.21,3.32
		c-1.84,3.49-4.27,5.18-7.44,5.18c-2.39,0-4.93-0.95-7.09-1.87l-0.69-0.3c-1.69-0.74-3.61-1.58-5.17-1.58
		c-1.19,0-1.98,0.5-2.41,1.52c-2.11,4.94-5.1,7.25-9.43,7.25c-2.5,0-5.22-0.73-8-1.55C170.69,157.43,170.05,157.33,169.43,157.33z"
		/>
	<path class="st5" d="M166.53,189.34c-9.98-12.14-5.88-26.08-4.89-39.56c0.3-4.03,3.17-4.89,6.79-3.44
		c4.6,1.83,9.23,3.61,13.93,5.44c2.12-10.73,2.24-10.99,12.08-6.61c4.52,2.01,6.93,2.13,8.63-3.22c1.89-5.98,5.74-7.8,11.51-3.85
		c6.16,4.22,11.62,5.94,13.69-4.31c0.8-3.93,3.83-4.54,6.96-1.61c2.21,2.08,4.41,4.17,6.51,6.15c3.15-1.18,4.03-3.75,5.4-5.72
		c1.45-2.08,2.64-4.26,4.75-5.14c5.75,0.17,2.19,11.36,9.21,7.81c3.73-1.88,5.66-7.31,8.34-11.05c5.83,1.28,5.29,7.4,9.65,10.44
		c2.58-3.41,5.17-6.83,7.78-10.25c4.61-6.05,6.92-5.68,10.89,1.04c6.12,10.36,7.61,22.13,10.67,33.43c-1.43,0.25-2.83,0.65-3.1,2.33
		c-1.38,8.46-6.63,6.75-11.9,4.44c-2.28-1-4.24-2.71-6.46-3.9c-2.58-1.38-4.92-1.66-5.5,2.21c-1.5,9.9-6.25,8.55-12.37,3.77
		c-3.1-2.43-7.43-4.29-7.71,1.94c-0.43,9.67-4.49,7.77-9.67,3.86c-4.02-3.04-6.79-4.23-9.48,1.96c-3.46,7.94-6.03,8.29-11.94,2.23
		c-3.79-3.89-6.37-3.48-9.49,0.35c-1.59,1.95-3.6,3.54-5.32,5.4c-2.97,3.19-6.06,3.12-8.5-0.24c-4.87-6.72-8.91-5.35-13.73,0.24
		c-2.57,2.98-6.25,6.54-9.63-0.09c-2.31-4.54-5-1.71-7.32,0.41C173.47,186.4,171.23,190.04,166.53,189.34z M253.77,158.23
		c1-4.44,0.34-8.45,3.14-11.82c1.69-2.04,1.3-4.96-1.13-6.74c-2.7-1.98-4.84-0.29-6.57,1.69c-2.71,3.09-5.33,4.89-9.11,1.37
		c-1.34-1.24-3.25-0.5-4.75,0.39c-5.78,3.41-11.63,5.38-18.41,2.67c-2.35-0.94-4.42,1.19-5.46,3.15c-3.61,6.84-8.87,5.63-14.4,3.27
		c-2.88-1.23-7.09-3.37-8.4-0.31c-3.9,9.15-10.22,7.72-17.31,5.64c-2.29-0.67-4.84-0.29-5.78,2.19c-1.64,4.33,1.78,7.38,3.56,10.72
		c1.15,2.16,3.18,1.8,5.01,0.3c4.06-3.32,8.42-4.53,13.16-1.42c3.22,2.11,4.3-0.49,5.98-2.36c3.6-3.98,7.05-5.6,11.98-0.97
		c4.86,4.57,10.05,4.49,13.81-2.27c3.01-5.39,6.93-8.13,12.69-3.02c1.78,1.58,3.6,2.31,5.56-0.46
		C244.23,150.55,244.33,150.62,253.77,158.23z"/>
	<path class="st5" d="M500.4,223.02c-4.02,0-6.77-2.54-8.4-7.77c-0.56-1.8-1.55-3.5-2.51-5.15l-0.5-0.86
		c-0.91-1.59-2.04-2.5-3.1-2.5c-0.72,0-1.43,0.41-2.09,1.21c-2.54,3.08-4.7,4.58-6.61,4.58h0c-3.03,0-4.95-3.83-6.58-7.98
		c-1.23-3.13-2.45-4.58-3.84-4.58c-1.25,0-2.73,1.17-4.51,3.59c-1.36,1.84-2.91,2.85-4.35,2.85c-1.92,0-3.44-1.75-4.19-4.8
		c-1.14-4.68-2.83-6.86-5.31-6.86c-1.64,0-3.66,0.95-6.2,2.89c-1.53,1.17-3.33,1.87-4.82,1.87c-1.29,0-3.47-0.55-3.52-4.23
		c-0.08-6.33-2.01-9.28-6.08-9.28c-1.78,0-3.95,0.53-7.05,1.72c-1.66,0.64-3.15,0.96-4.42,0.96c-3.53,0-5.56-2.44-6.05-7.27
		c-0.47-4.7-2.02-6.7-5.2-6.7c-1.14,0-2.52,0.25-4.23,0.77l-0.17,0.05c-1.33,0.4-3.14,0.95-4.82,0.95c-2.73,0-4.21-1.51-4.4-4.48
		c-0.27-4.34-1.61-6.19-4.48-6.19c-1.06,0-2.35,0.23-4.29,0.77c-1.83,0.51-3.81,0.61-5.72,0.7c-0.87,0.04-1.75,0.09-2.61,0.17
		l-0.09,0.01l-0.02-0.09c-2.25-12.69,4.63-21.55,11.29-30.11c1.76-2.26,3.57-4.6,5.19-6.97c0.97-1.42,2.25-2.17,3.71-2.17
		c1.75,0,3.57,1.09,4.97,3c1.96,2.66,3.88,5.43,5.74,8.11c0.83,1.2,1.66,2.39,2.5,3.59c0.21,0.01,0.47,0.03,0.72,0.03
		c1.8,0,2.76-1.28,3.77-2.64c0.92-1.23,1.86-2.51,3.51-2.91c0.37,0.26,0.7,0.48,1.04,0.71c0.79,0.54,1.61,1.1,2,1.9
		c2.6,5.36,5.31,7.76,8.78,7.76c2.1,0,4.46-0.89,7.22-2.73c0.95-0.63,1.85-0.96,2.66-0.96c2.48,0,3.84,2.92,4.93,5.26
		c0.13,0.27,0.89,1.89,0.89,1.89c1.64,3.48,3.19,6.76,5.86,6.76c1.66,0,3.65-1.24,6.09-3.8c1.07-1.12,2.23-1.71,3.38-1.71
		c1.91,0,3.58,1.66,4.37,4.32c0.65,2.18,1.03,4.38,1.45,6.72c0.18,1,0.35,2.01,0.56,3.03c2.91-0.02,5.29-1.37,7.6-2.67
		c2.3-1.3,4.48-2.53,7.09-2.56c2.1,1.76,1.21,4.2,0.43,6.36c-0.58,1.6-1.13,3.12-0.53,4.23c0.38,0.71,1.2,1.21,2.52,1.52
		c0.43,0.1,0.9,0.16,1.39,0.16c2.2,0,4.71-1.06,7.14-2.09c1.38-0.59,2.82-1.19,4.19-1.6c0.17-0.05,0.37-0.08,0.6-0.08
		c0.17,0,0.35,0.01,0.53,0.03c0.18,0.01,0.36,0.03,0.53,0.03c1.68,1.28,1.58,2.92,1.49,4.51c-0.04,0.61-0.07,1.24-0.01,1.83
		c0.05,0.49,0.06,1,0.06,1.5c0.01,1.44,0.03,2.92,1.25,4.29c0.43,0.04,0.93,0.07,1.43,0.07c2.82,0,5.5-1.12,8.08-2.2
		c0.98-0.41,1.99-0.83,2.99-1.19c1.37-0.48,2.46-0.72,3.34-0.72c2.67,0,3.21,2.17,3.22,5.68c0.03,12.54-3.75,24.6-11.9,37.94
		C504.11,222.53,502.12,223.02,500.4,223.02z M456.87,178.1c2.65,0,3.91,2.76,6.92,9.43c0.88-0.85,1.6-1.75,2.31-2.61
		c1.48-1.83,2.76-3.4,4.92-3.95c2.5-0.63,4.97-1.71,4.35-4.92c-0.64-3.32-3.37-3.41-6-3.49l-0.6-0.02
		c-0.14-0.01-0.28-0.01-0.43-0.01c-0.31,0-0.63,0.01-0.95,0.02c-0.32,0.01-0.65,0.02-0.97,0.02c-1.73,0-3.43-0.32-4.15-2.68
		c-0.87-2.88-2.72-4.17-5.98-4.17c-0.6,0-1.25,0.04-2.06,0.13c-0.5,0.05-0.99,0.08-1.47,0.08c-3.66,0-6.74-1.55-9.69-4.88
		c-1.84-2.08-4.31-4.87-6.65-4.87c-0.56,0-1.09,0.17-1.57,0.49c-2.33,1.56-4.35,2.32-6.19,2.32c-3.94,0-6.33-3.49-8.88-7.18
		l-0.41-0.6c-1.84-2.66-3.84-4.02-5.94-4.02c-1.44,0-2.98,0.64-4.58,1.89c-1.08,0.85-2.11,1.26-3.14,1.26
		c-1.4,0-2.75-0.73-4.38-2.36c-2.02-2.04-4.32-4.34-6.69-6.44c-0.75-0.66-1.64-1.03-2.49-1.03c-0.75,0-1.45,0.28-2.01,0.82
		c-2.95,2.8-3.48,6.76-3.61,9.89c-0.04,1.01,0.42,2.23,1.13,2.96c0.37,0.39,0.76,0.59,1.14,0.59c0.13,0,0.25-0.02,0.38-0.07
		c1.51-0.59,2.92-0.89,4.19-0.89c4.69,0,7.23,4.03,9.68,7.92l0.09,0.14c0.65,1.03,1.41,1.54,2.33,1.54c0.89,0,1.82-0.47,2.64-0.89
		c0.3-0.15,0.58-0.3,0.85-0.42c1.39-0.61,2.69-0.91,3.86-0.91c2.98,0,5.1,1.97,5.97,5.54c1.38,5.65,4.16,8.4,8.5,8.4
		c1.82,0,3.94-0.46,6.47-1.41c1.87-0.7,3.4-1.04,4.67-1.04c2.96,0,4.78,1.89,5.56,5.78c0.46,2.3,1.35,3.37,2.8,3.37
		c0.68,0,1.5-0.24,2.43-0.72C453.1,179.13,455.2,178.1,456.87,178.1z"/>
	<path class="st5" d="M374.37,167.37c-2.84-16.01,8.77-25.72,16.46-37c2.26-3.32,6.04-2.52,8.51,0.84
		c2.82,3.82,5.47,7.76,8.24,11.71c4.28,0.77,4.44-4.58,8.11-5.47c0.92,0.77,2.38,1.44,2.92,2.56c3.63,7.5,8.09,10.44,16.15,5.06
		c4.54-3.02,6.33,1.96,7.81,5.05c2.87,5.98,5.01,12.1,12.64,4.09c3.01-3.16,6.34-1.62,7.58,2.57c0.93,3.15,1.35,6.46,2.02,9.82
		c5.73,0.03,9.46-5.16,14.77-5.23c4.3,3.68-4.75,10.39,2.39,12.11c3.75,0.9,8.47-2.26,12.77-3.54c0.5-0.15,1.08-0.02,1.64-0.02
		c2.2,1.72,1.14,4.14,1.38,6.25c0.21,1.92-0.33,3.97,1.34,5.85c4.51,0.66,8.53-1.84,12.62-3.28c5.36-1.89,6.41,0.06,6.43,4.87
		c0.04,13.92-4.77,26.25-11.88,37.88c-7,3.08-11.79,1.35-14.17-6.25c-0.66-2.12-1.9-4.08-3.01-6.03c-1.29-2.25-3.36-3.72-5.35-1.31
		c-6.98,8.45-10.19,3.81-13.02-3.37c-2.15-5.46-4.47-6.49-8.53-1.02c-3.18,4.3-7,3.68-8.36-1.91c-1.9-7.76-5.36-8.86-11.67-4.02
		c-3.14,2.42-8.1,3.21-8.18-2.28c-0.15-11.08-6.02-10.44-13.26-7.66c-6.45,2.48-9.71,0.04-10.33-6.22c-0.65-6.51-3.34-7.9-9.56-6.02
		c-3,0.91-8.87,2.8-9.25-3.39c-0.43-7.01-3.71-6.95-8.89-5.51C380.04,167.24,377.15,167.11,374.37,167.37z M463.75,187.69
		c2.79-2.67,4.09-5.83,7.29-6.63c2.66-0.67,5.05-1.8,4.42-5.04c-0.71-3.65-3.83-3.48-6.7-3.6c-2.41-0.09-5.38,0.77-6.4-2.57
		c-1.31-4.32-4.73-4.47-8.15-4.11c-4.69,0.49-8.06-1.38-11.07-4.77c-2.22-2.5-5.54-6.28-8.35-4.39c-8.24,5.52-11.55,0.06-15.34-5.43
		c-2.84-4.1-6.3-5.58-10.66-2.15c-2.89,2.27-5.17,1.13-7.38-1.1c-2.18-2.2-4.37-4.39-6.69-6.44c-1.38-1.22-3.28-1.49-4.64-0.2
		c-2.79,2.66-3.49,6.3-3.64,9.96c-0.07,1.8,1.41,4.11,2.78,3.58c7.57-2.96,10.65,2.07,13.84,7.14c1.85,2.94,4.21,1.03,5.95,0.27
		c5.2-2.27,8.56-0.09,9.7,4.56c2.22,9.08,7.73,9.82,15.11,7.06c5-1.87,8.83-1.69,10.1,4.66c0.57,2.84,1.91,4.48,5.37,2.72
		C458.65,176.41,458.71,176.52,463.75,187.69z"/>
	<path class="st8" d="M294.54,434.93c-2.71,0-5.78-0.31-9.14-0.91c-7.08-1.28-13.18-2.72-16.18-7.3c-2.46-3.77-2.68-9.41-0.69-17.75
		c4.91-20.62,9.34-41.73,13.63-62.14c1.85-8.82,3.7-17.63,5.59-26.44l15.43-14.58l0.06,0.02c12.23,4.03,15.9,10.84,13.54,25.13
		c-0.15,0.88-0.37,1.78-0.59,2.64c-0.39,1.57-0.8,3.18-0.73,4.75c0.49,11.67-0.23,23.51-0.91,34.96
		c-0.74,12.29-1.5,25.01-0.78,37.52c0.5,8.67-1.13,15.07-4.86,19.02C305.69,433.27,300.99,434.93,294.54,434.93z"/>
	<path class="st8" d="M303.21,305.92c12.1,3.99,15.81,10.85,13.48,25.02c-0.41,2.48-1.43,4.97-1.32,7.41
		c1.01,24.21-3.09,48.32-1.69,72.49c1.29,22.38-11.53,26.1-28.24,23.07c-13.41-2.43-21.46-5.35-16.79-24.93
		c7-29.38,12.87-59.04,19.22-88.58C292.97,315.58,298.09,310.75,303.21,305.92z"/>
	<path class="st9" d="M316.38,451.74c-4.78,0-9.75-0.57-14.77-1.69l-0.29-0.06l0.27-0.12c3.77-1.72,7.82-2.81,11.74-3.86
		c6.04-1.62,12.29-3.29,17.67-7.34c7.96-5.98,11.43-12.48,11.25-21.09c-0.56-26.14-2.73-52.41-4.91-77.07
		c-0.64-7.28-0.91-14.71-1.16-21.9c-0.12-3.32-0.24-6.64-0.39-9.95l-0.01-0.3l0.19,0.24c3.35,4.13,6.65,8.42,9.84,12.57
		c1.54,2,3.07,3.99,4.62,5.98c3.37,4.33,3.36,10,3.36,15.49c0,1.88,0,3.82,0.14,5.64c1.61,21.1,2.87,42.58,4.09,63.35l0.67,11.45
		c0.48,8.08-3.34,14.87-11.04,19.65C338,448.7,327.48,451.74,316.38,451.74z"/>
	<path class="st9" d="M301.63,449.95c9.55-4.37,20.53-4.52,29.44-11.21c7.39-5.54,11.49-11.88,11.29-21.17
		c-0.55-25.77-2.65-51.42-4.91-77.08c-0.93-10.58-1.06-21.23-1.55-31.85c4.94,6.09,9.65,12.38,14.45,18.55
		c4.51,5.79,2.94,13.97,3.48,21.08c1.9,24.91,3.29,49.86,4.77,74.79c0.52,8.78-4.06,15.26-10.99,19.56
		C333.43,451.42,317.92,453.59,301.63,449.95z"/>
	<path class="st6" d="M494.05,236.32c-0.33,0-0.68-0.03-1.03-0.09c-5.61-0.91-7.69-6.45-9.34-12.06c-0.26-0.88-0.75-1.67-1.27-2.51
		c-0.23-0.37-0.46-0.74-0.67-1.12c-2.71,0.1-4.23,1.76-5.84,3.52c-1.29,1.4-2.62,2.86-4.6,3.4c-2.32-1.92-3.51-4.6-4.65-7.19
		c-1.05-2.36-2.13-4.81-4-6.64c-2.03,0.41-3.06,1.94-4.16,3.55c-1.2,1.79-2.45,3.63-5.28,3.7c-0.26-0.3-0.49-0.58-0.73-0.86
		c-0.56-0.68-1.2-1.45-1.4-2.32c-1.28-5.71-3.34-8.49-6.3-8.49c-1.95,0-4.27,1.14-7.12,3.49c-0.95,0.79-1.88,1.19-2.77,1.19
		c-1.63,0-2.99-1.42-3.63-3.79c-0.6-2.21-1.02-4.5-1.42-6.72c-0.17-0.96-0.34-1.91-0.53-2.86c-5.49,0.76-9.46,1.3-12.27,1.3
		c-6.41,0-7.26-2.69-10-11.61l-1.42,0.19c-2.86,0.39-5.82,0.8-8.85,0.8c-2.3,0-4.4-0.23-6.42-0.71l-0.09-0.02l0.99-8.25
		c-1.18,0.1-2.35,0.15-3.48,0.2c-2.56,0.11-4.97,0.21-7.21,0.88c-1.39,0.41-3.2,0.89-4.91,0.89c-2.22,0-3.94-0.8-5.28-2.45
		c-2.64-3.27-0.77-6.82,0.89-9.95l0.19-0.37c0.53-1.01,1.23-1.95,1.91-2.85c0.31-0.42,0.62-0.83,0.92-1.26
		c0.94-0.12,1.81-0.17,2.69-0.21c1.9-0.09,3.86-0.19,5.67-0.69c1.96-0.54,3.26-0.78,4.34-0.78c3,0,4.4,1.91,4.68,6.37
		c0.18,2.89,1.55,4.3,4.2,4.3c1.64,0,3.44-0.55,4.76-0.94l0.17-0.05c1.73-0.52,3.13-0.78,4.29-0.78c3.3,0,4.92,2.06,5.4,6.88
		c0.47,4.7,2.44,7.08,5.85,7.08c1.25,0,2.71-0.32,4.35-0.95c3.12-1.2,5.31-1.73,7.12-1.73c4.2,0,6.19,3.01,6.28,9.48
		c0.03,2.6,1.21,4.03,3.32,4.03c1.45,0,3.2-0.68,4.69-1.83c2.57-1.98,4.64-2.94,6.32-2.94c2.59,0,4.34,2.23,5.51,7.01
		c0.72,2.95,2.18,4.65,4,4.65c1.38,0,2.86-0.99,4.19-2.77c1.83-2.47,3.36-3.67,4.67-3.67c1.48,0,2.76,1.5,4.02,4.71
		c1.6,4.08,3.49,7.85,6.4,7.85c1.84,0,3.95-1.47,6.45-4.5c0.7-0.85,1.46-1.28,2.24-1.28c1.55,0,2.72,1.63,3.27,2.6l0.5,0.86
		c0.96,1.66,1.96,3.37,2.53,5.19c1.61,5.13,4.29,7.63,8.21,7.63c1.69,0,3.65-0.48,5.82-1.44l0.14-0.06l0,0.15
		c0.05,2.29-1.35,3.81-2.69,5.27l-0.48,0.53c-0.87,0.97-1.63,2.21-2.37,3.41C499.12,233.45,497.37,236.31,494.05,236.32
		C494.05,236.32,494.05,236.32,494.05,236.32z"/>
	<path class="st6" d="M374.37,167.37c2.78-0.26,5.66-0.13,8.31-0.86c5.18-1.44,8.46-1.5,8.89,5.51c0.38,6.19,6.25,4.3,9.25,3.39
		c6.23-1.88,8.91-0.49,9.56,6.02c0.63,6.26,3.89,8.7,10.33,6.22c7.24-2.78,13.11-3.42,13.26,7.66c0.07,5.49,5.03,4.69,8.18,2.28
		c6.31-4.85,9.77-3.75,11.67,4.02c1.37,5.59,5.18,6.21,8.36,1.91c4.06-5.48,6.38-4.44,8.53,1.02c2.83,7.18,6.04,11.82,13.02,3.37
		c1.99-2.42,4.06-0.95,5.35,1.31c1.12,1.95,2.35,3.91,3.01,6.03c2.38,7.6,7.17,9.33,14.17,6.25c0.05,2.52-1.64,4.05-3.15,5.73
		c-3.07,3.42-4.56,9.82-10.07,8.92c-5.73-0.93-7.71-6.72-9.26-11.99c-0.38-1.3-1.29-2.45-1.98-3.71c-5.06,0.13-6.18,5.74-10.52,6.92
		c-4.25-3.61-4.61-9.95-8.56-13.81c-4.61,0.83-4.27,7.11-9.51,7.23c-0.59-0.88-1.76-1.89-2.03-3.1c-1.96-8.77-5.86-11.42-13.58-5.06
		c-2.95,2.44-5.33,0.78-6.24-2.55c-0.87-3.17-1.33-6.45-1.96-9.66c-18.33,2.52-18.33,2.52-22.29-10.31
		c-5.34,0.71-10.83,1.69-16.74,0.3c0.31-2.61,0.6-5.01,0.99-8.28c-3.9,0.34-7.55,0.11-10.83,1.09c-3.84,1.14-7.5,1.66-10.08-1.53
		c-2.7-3.34-0.62-6.96,1.09-10.21C372.31,170.01,373.42,168.73,374.37,167.37z"/>
	<path class="st6" d="M174.05,204.61c-2.79,0-4.71-2.69-6.23-8.72c-0.37-1.48-0.68-3-0.97-4.48c-0.14-0.69-0.28-1.37-0.42-2.06
		l-0.03-0.14l0.14,0.02c0.39,0.06,0.77,0.09,1.13,0.09c3.06,0,5.04-2.03,6.95-4c0.52-0.54,1.06-1.1,1.62-1.6l0.34-0.31
		c1.36-1.25,2.76-2.55,4.19-2.55c1.13,0,2.09,0.81,2.94,2.48c1.25,2.46,2.66,3.71,4.19,3.71c1.88,0,3.72-1.84,5.27-3.64
		c2.86-3.31,5.12-4.79,7.35-4.79c2.17,0,4.31,1.49,6.54,4.56c1.22,1.69,2.6,2.54,4.08,2.54c1.41,0,2.85-0.78,4.27-2.31
		c0.71-0.77,1.49-1.5,2.24-2.22c1.06-1,2.15-2.04,3.08-3.18c1.76-2.15,3.24-3.11,4.8-3.11c1.47,0,3.01,0.88,4.84,2.76
		c2.83,2.91,4.72,4.15,6.3,4.15c1.92,0,3.51-1.84,5.47-6.35c1.34-3.07,2.78-4.5,4.53-4.5c1.48,0,3.11,1,5.1,2.5
		c2.18,1.64,4.43,3.17,6.16,3.17c2.07,0,3.13-2.21,3.35-6.95c0.13-2.86,1.11-4.31,2.91-4.31c1.67,0,3.62,1.25,4.96,2.3
		c3.18,2.48,5.5,3.64,7.3,3.64c2.56,0,4.16-2.4,4.91-7.34c0.32-2.14,1.23-3.22,2.7-3.22c0.79,0,1.76,0.31,2.95,0.94
		c0.96,0.51,1.88,1.13,2.78,1.73c1.17,0.78,2.38,1.6,3.67,2.16c2.07,0.91,4.45,1.88,6.48,1.88c2.91,0,4.59-1.98,5.28-6.24
		c0.29-1.76,1.79-2.17,3.18-2.41l0.12-0.02l0.01,1.53c0.04,5.57,0.08,11.34-1.5,17c-1.02,3.63-2.56,5.33-4.87,5.33
		c-1.25,0-2.74-0.51-4.56-1.56c-2.49-1.44-4.96-2.91-7.49-4.41c-1.13-0.67-2.26-1.35-3.42-2.03c-0.2,0.22-0.41,0.41-0.6,0.6
		c-0.43,0.41-0.81,0.76-0.93,1.18c-1.77,6.36-2.49,8.95-4.75,8.95c-1.59,0-3.97-1.36-7.91-3.62l-0.12-0.07
		c-0.37-0.21-0.74-0.46-1.13-0.71c-1.13-0.74-2.29-1.51-3.46-1.51c-0.52,0-1,0.15-1.46,0.46c-2.48,1.66-1.93,3.82-1.36,6.11
		c0.34,1.37,0.7,2.78,0.43,4.16l-0.01,0.06l-0.06,0.02c-0.76,0.23-1.51,0.35-2.22,0.35c-2.75,0-4.76-1.76-6.71-3.45
		c-1.7-1.48-3.45-3.01-5.67-3.33c-1.43,0.28-1.62,1.36-1.82,2.51c-0.09,0.49-0.17,1-0.38,1.43c-2.41,5.09-3.62,7.64-5.47,7.64
		c-1.52,0-3.43-1.67-6.95-4.86c-1.87-1.7-3.35-2.49-4.64-2.49c-1.55,0-2.98,1.15-4.5,3.62c-2.86,4.64-5.43,6.8-8.07,6.8
		c-2.31,0-4.66-1.62-7.18-4.97c-1.17-1.55-2.34-2.3-3.58-2.3c-1.9,0-3.68,1.74-5.41,3.42l-0.53,0.51c-3.65,3.51-5.66,5.45-7.19,5.45
		c-1.7,0-2.71-2.24-4.9-7.16c-2.56,0.67-4.22,2.54-5.82,4.35c-0.73,0.82-1.48,1.67-2.3,2.39
		C178.6,203.21,176.06,204.61,174.05,204.61z"/>
	<path class="st6" d="M166.53,189.34c4.71,0.7,6.94-2.94,9.78-5.55c2.32-2.12,5.01-4.95,7.32-0.41c3.38,6.63,7.06,3.07,9.63,0.09
		c4.82-5.6,8.86-6.96,13.73-0.24c2.44,3.36,5.53,3.44,8.5,0.24c1.72-1.85,3.73-3.45,5.32-5.4c3.12-3.83,5.7-4.24,9.49-0.35
		c5.91,6.06,8.48,5.71,11.94-2.23c2.7-6.18,5.46-4.99,9.48-1.96c5.18,3.91,9.24,5.8,9.67-3.86c0.28-6.23,4.61-4.36,7.71-1.94
		c6.12,4.78,10.87,6.13,12.37-3.77c0.58-3.87,2.92-3.58,5.5-2.21c2.22,1.18,4.18,2.89,6.46,3.9c5.27,2.32,10.53,4.03,11.9-4.44
		c0.27-1.67,1.67-2.08,3.1-2.33c0.03,6.17,0.22,12.27-1.49,18.38c-1.64,5.87-4.66,6.37-9.28,3.71c-3.62-2.09-7.2-4.25-10.98-6.49
		c-0.63,0.72-1.42,1.22-1.61,1.89c-3,10.78-2.96,10.75-12.63,5.21c-1.89-1.08-4.04-3.17-6.15-1.75c-4.02,2.69-0.27,6.66-0.97,10.34
		c-6.69,2.06-9.12-5.66-14.55-6.43c-2.2,0.42-1.65,2.64-2.3,4c-4.5,9.5-4.63,9.68-12.27,2.74c-3.87-3.51-6.39-3.55-9.29,1.15
		c-4.05,6.56-8.68,10.34-15.09,1.82c-3.6-4.78-6.74-1.2-9.67,1.62c-7.81,7.51-7.84,7.48-11.96-1.75c-3.82,0.96-5.59,4.45-8.24,6.79
		c-7.83,6.88-11.51,5.81-14.04-4.25C167.37,193.71,166.99,191.52,166.53,189.34z"/>
	<path class="st10" d="M241.18,326.08c-12.92,0-25.37-3.72-36-10.75l-0.07-0.05l0.03-0.08c0.6-1.47,1.41-2.19,2.48-2.19
		c0.8,0,1.63,0.38,2.43,0.76c0.56,0.26,1.09,0.51,1.58,0.61c6.52,1.33,12.87,2.01,18.87,2.01c20.66,0,38.67-8.09,53.51-24.04
		c12.54-13.48,15.81-30.49,17.47-46.86c0.17-1.72-0.56-3.15-2.13-4.15l-0.05-0.03l0.54-5.66c0.45-5.71-1.66-10.87-3.7-15.87
		c-0.33-0.81-0.67-1.63-0.99-2.45c-0.58-1.46-1.48-2.83-2.35-4.14c-1.68-2.55-3.42-5.18-2.96-8.7l0.02-0.18l0.14,0.12
		c14.51,12.12,22.61,30.96,22.23,51.68c-0.4,21.53-10.18,41.77-26.16,54.15C272.87,320.46,256.93,326.08,241.18,326.08z"/>
	<path class="st10" d="M205.23,315.25c1.63-4.02,4.36-1.17,6.37-0.76c28.18,5.77,52.54-0.64,72.47-22.06
		c12.35-13.28,15.76-29.76,17.5-46.92c0.18-1.79-0.62-3.26-2.18-4.25c0.18-1.87,0.35-3.73,0.53-5.6c0.52-6.65-2.37-12.46-4.69-18.36
		c-1.69-4.29-6-7.5-5.31-12.79c31.2,26.06,29.19,80.03-3.93,105.68C261.39,329.23,229.39,331.24,205.23,315.25z"/>
	<path class="st11" d="M316.44,480.47c-4.25,0-7.71-3.33-10.54-6.59c-3.19-3.68-8.66-5.79-15.02-5.79c-6.04,0-11.9,1.9-16.5,5.36
		c-2.78,2.09-4.97,3.07-6.89,3.07c-2.62,0-4.74-1.81-7.1-6.04c-3.13-5.61-5.63-8.86-9.18-8.86c-2.22,0-4.89,1.14-9.22,3.95
		c-2.63,1.71-4.54,2.47-6.18,2.47c-2.17,0-3.96-1.36-5.61-4.28c-2.97-5.25-6.79-7.7-12.03-7.7c-3.62,0-7.55,1.21-10.91,2.4
		c-0.44,0.16-0.91,0.35-1.39,0.55c-1.27,0.53-2.57,1.08-3.79,1.08c-1.13,0-2-0.48-2.65-1.47c-1.93-2.92,0.43-5.79,2.79-8.24
		c4.75-4.94,9.94-9.77,14.52-14.04c2.25-2.1,4.32-3.12,6.33-3.12c2.29,0,4.4,1.33,6.45,4.07c3.88,5.17,7.98,7.58,12.91,7.58
		c0.9,0,1.84-0.08,2.8-0.25c0.33-0.06,0.67-0.09,1-0.09c2.84,0,4.71,2.12,5.57,3.39c4.85,7.12,11.63,10.57,20.74,10.57
		c1.76,0,3.65-0.13,5.63-0.38c1.21-0.15,2.45-0.18,3.5-0.18l2.21,0.01c0.35,0,0.69,0,1.04-0.01l11.61,0.32
		c3.52,5.16,8.66,7.35,14.1,9.67c0.77,0.33,1.54,0.65,2.3,0.99c1.18,0.52,2.34,0.77,3.55,0.77c2.39,0,4.55-0.97,6.84-1.99
		c2.31-1.03,4.69-2.1,7.35-2.1c0.35,0,0.7,0.02,1.05,0.06l0.11,0.01l-0.02,0.11c-1.55,6.83-5.77,11.71-12.19,14.11
		C318.56,480.26,317.48,480.47,316.44,480.47z"/>
	<path class="st11" d="M296.53,458.34c3.96,5.87,10.26,7.96,16.37,10.65c6.98,3.08,11.88-4,18.83-3.26
		c-1.63,7.18-6.15,11.81-12.13,14.04c-5.6,2.09-9.88-1.64-13.63-5.96c-6.37-7.35-21.59-8.01-31.65-0.45
		c-6.74,5.07-10.18,3.63-13.84-2.94c-5.74-10.29-8.76-11.28-18.54-4.95c-5.05,3.27-8.49,3.81-11.65-1.78
		c-5.74-10.15-14.2-8.47-23.06-5.34c-2.53,0.89-5.83,3.06-7.72,0.2c-1.96-2.97,0.7-5.95,2.78-8.11c4.67-4.85,9.59-9.45,14.52-14.04
		c4.47-4.17,8.65-4.39,12.63,0.93c3.89,5.18,8.75,8.6,15.81,7.36c2.78-0.49,5.03,1.15,6.47,3.26c6.51,9.55,15.77,11.6,26.47,10.24
		c2.22-0.28,4.49-0.13,6.74-0.17C288.79,458.12,292.66,458.23,296.53,458.34z"/>
	<path class="st10" d="M405.11,340.47c-14.04,0-27.4-4.26-37.63-11.99l-0.07-0.05l0.04-0.08c0.62-1.2,1.37-1.79,2.32-1.79
		c0.8,0,1.6,0.41,2.38,0.81c0.42,0.22,0.82,0.42,1.2,0.55c7.1,2.39,14.45,3.59,21.85,3.59c27.81,0,53.75-17.27,64.53-42.98
		c4.35-10.37,8.26-21.46,4.29-33.14l-0.07-5.57c0.66-4.4-0.96-8.35-2.52-12.17c-1.41-3.46-2.88-7.04-2.67-10.94l0-0.06l0.06-0.03
		c0.69-0.31,1.31-0.47,1.86-0.47c1.78,0,2.57,1.59,3.26,2.99c0.25,0.5,0.48,0.97,0.74,1.35c20.05,29.16,13.96,71.17-13.57,93.64
		C438.23,334.67,421.89,340.47,405.11,340.47z"/>
	<path class="st10" d="M367.55,328.4c1.69-3.3,3.99-0.98,5.78-0.38c35.52,11.94,72.89-6.99,86.5-39.44
		c4.37-10.43,8.29-21.45,4.29-33.21c-0.02-1.85-0.04-3.69-0.07-5.53c1.25-8.37-5.63-14.92-5.19-23.11c3.91-1.76,4.49,2.02,5.75,3.84
		c20.17,29.34,14.08,70.95-13.55,93.51C426.62,344.02,390.67,345.89,367.55,328.4z"/>
	<path class="st12" d="M368.52,429.21c-0.28,0-0.56-0.01-0.84-0.03l-0.09-0.01l-0.01-0.09c-0.37-5.48-0.81-11.06-1.24-16.46
		c-1.16-14.76-2.37-30.03-2.34-45.37l0-0.15l0.14,0.06c18.56,7.9,30.36,22.86,28.71,36.38C391.68,413.2,379.46,429.21,368.52,429.21
		z"/>
	<path class="st12" d="M364.11,367.26c18.76,7.99,30.27,23.01,28.65,36.28c-1.18,9.68-13.68,26.38-25.07,25.54
		C366.31,408.68,364.07,388.23,364.11,367.26z"/>
	<path class="st13" d="M251.98,420.45c-12.23-6.84-18.54-15.64-19.86-27.72c-1.2-10.97,3.55-19.24,14.93-26.03
		c5.69-3.4,11.52-6.66,20.15-9.27l0.17-0.05l-15.27,63.13L251.98,420.45z M249.98,375.76c-0.76,0-1.66,0.15-2.66,0.43
		c-5.1,1.47-9.45,6.49-11.08,12.81c-0.98,3.77,0.7,7.08,4.47,8.86c1.62,0.77,3.15,1.16,4.55,1.16h0c2.03,0,3.84-0.82,5.38-2.45
		c2.92-3.09,3.96-6.83,3.46-12.5c-0.1-0.53-0.12-1.24-0.15-2C253.87,379.26,253.77,375.76,249.98,375.76z"/>
	<path class="st13" d="M252.03,420.36c-11.84-6.62-18.45-15.18-19.81-27.64c-1.35-12.36,5.06-20.07,14.89-25.93
		c5.75-3.43,11.59-6.68,20.12-9.26C262.04,378.97,257.17,399.09,252.03,420.36z M254.2,384.06c-0.53-2.78,1.15-10.28-6.9-7.96
		c-5.42,1.56-9.6,6.88-11.15,12.88c-1.01,3.89,0.77,7.2,4.53,8.98c3.55,1.68,7.09,1.79,10.04-1.32
		C253.57,393.63,254.72,389.97,254.2,384.06z"/>
	<path class="st4" d="M299.84,235.7c-11.41-21.1-28.49-33.39-50.76-36.51l-0.11-0.02l0.03-0.11c0.66-2.44,1.63-4.95,4.31-6.77
		c1.19,0.47,2.3,1.09,3.37,1.68c2.38,1.32,4.84,2.69,7.32,2.69c2.42,0,4.62-1.31,6.74-4.01c0.36-0.46,0.83-0.69,1.4-0.69
		c1.14,0,2.49,0.89,3.8,1.75c0.58,0.38,1.13,0.74,1.64,1.01c5.3,2.77,9.44,5.49,12.43,9.72c-0.43,3.51,1.29,6.12,2.95,8.63
		c0.88,1.33,1.78,2.7,2.37,4.18c0.32,0.82,0.65,1.63,0.99,2.44c2.05,5.02,4.17,10.21,3.71,15.96L300,236L299.84,235.7z"/>
	<path class="st4" d="M289.92,204.5c-0.69,5.3,3.62,8.5,5.31,12.79c2.32,5.9,5.21,11.71,4.69,18.36
		c-11.01-20.36-27.46-33.29-50.83-36.57c0.78-2.89,1.85-5.07,4.27-6.72c5.64,2.48,11.2,8.31,17.45,0.35
		c1.52-1.94,4.56,0.97,6.71,2.09C282.24,197.27,286.77,200.03,289.92,204.5z"/>
	<path class="st4" d="M463.96,249.88c-5.63-9.81-13.92-21.98-28.18-28.96l-0.1-0.05l0.07-0.1c1.43-2.08,3.38-2.76,5.44-3.48
		c0.93-0.33,1.89-0.66,2.83-1.14l0.09-0.04l0.05,0.08c0.51,0.93,1,1.93,1.47,2.89c2.02,4.14,4.1,8.42,8.93,8.42c0,0,0,0,0,0
		c1.27,0,2.71-0.3,4.27-0.88l0.14-0.05l-0.01,0.15c-0.21,3.86,1.25,7.42,2.65,10.86c1.57,3.85,3.2,7.83,2.53,12.26l-0.04,0.28
		L463.96,249.88z"/>
	<path class="st4" d="M458.86,226.72c-0.44,8.19,6.44,14.74,5.19,23.11c-6.9-12.02-15.25-22.64-28.22-29
		c2.06-2.99,5.24-3.06,8.24-4.59C447.34,222.16,449.2,230.33,458.86,226.72z"/>
	<path class="st11" d="M171.38,172.05c-0.96,0-1.76-0.54-2.31-1.57c-0.42-0.79-0.94-1.58-1.45-2.34c-1.67-2.51-3.39-5.11-2.12-8.46
		c0.62-1.64,2.02-2.55,3.93-2.55c0.63,0,1.3,0.1,1.97,0.3c2.77,0.81,5.47,1.54,7.95,1.54c4.24,0,7.18-2.26,9.25-7.12
		c0.46-1.09,1.34-1.64,2.6-1.64c1.6,0,3.54,0.85,5.25,1.59l0.69,0.3c2.14,0.92,4.65,1.85,7.01,1.85c3.09,0,5.46-1.66,7.26-5.08
		c0.88-1.66,2.49-3.43,4.39-3.43c0.4,0,0.8,0.08,1.2,0.24c2.13,0.85,4.21,1.27,6.35,1.27c3.69,0,7.39-1.21,11.98-3.93
		c1.21-0.71,2.21-1.06,3.08-1.06c0.7,0,1.3,0.23,1.79,0.69c1.38,1.28,2.65,1.9,3.88,1.9c1.96,0,3.6-1.57,5.09-3.27
		c1.06-1.21,2.51-2.6,4.25-2.6c0.81,0,1.63,0.3,2.45,0.9c1.23,0.9,2,2.14,2.17,3.49c0.15,1.22-0.21,2.42-1.02,3.4
		c-1.91,2.29-2.2,4.94-2.52,7.74c-0.15,1.3-0.3,2.65-0.61,4.04l-0.04,0.16l-0.13-0.1c-4.39-3.53-6.8-5.48-8.76-5.48
		c-2.21,0-3.99,2.5-7.52,7.47c-0.91,1.28-1.84,1.9-2.84,1.9c-0.86,0-1.77-0.45-2.86-1.43c-2.01-1.79-3.91-2.69-5.64-2.69
		c-2.51,0-4.77,1.86-6.9,5.68c-2,3.58-4.54,5.48-7.34,5.48c-2.15,0-4.39-1.07-6.63-3.19c-2-1.88-3.82-2.79-5.56-2.79
		c-1.99,0-3.92,1.16-6.27,3.75c-0.28,0.31-0.55,0.65-0.81,0.98c-0.9,1.13-1.75,2.2-3.09,2.2c-0.66,0-1.39-0.26-2.21-0.8
		c-1.81-1.19-3.65-1.79-5.48-1.79c-2.46,0-4.94,1.05-7.56,3.2C173.23,171.62,172.24,172.05,171.38,172.05z"/>
	<path class="st11" d="M253.77,158.23c-9.45-7.61-9.54-7.68-16.43,2.01c-1.96,2.76-3.78,2.04-5.56,0.46
		c-5.76-5.12-9.68-2.38-12.69,3.02c-3.77,6.76-8.95,6.84-13.81,2.27c-4.93-4.63-8.38-3.01-11.98,0.97
		c-1.69,1.87-2.77,4.47-5.98,2.36c-4.74-3.11-9.1-1.91-13.16,1.42c-1.83,1.5-3.86,1.86-5.01-0.3c-1.77-3.34-5.2-6.39-3.56-10.72
		c0.94-2.48,3.49-2.86,5.78-2.19c7.09,2.08,13.42,3.51,17.31-5.64c1.31-3.07,5.52-0.93,8.4,0.31c5.53,2.36,10.79,3.57,14.4-3.27
		c1.03-1.96,3.11-4.09,5.46-3.15c6.79,2.71,12.64,0.75,18.41-2.67c1.5-0.89,3.41-1.63,4.75-0.39c3.79,3.52,6.4,1.72,9.11-1.37
		c1.73-1.97,3.87-3.66,6.57-1.69c2.43,1.78,2.82,4.7,1.13,6.74C254.12,149.77,254.77,153.79,253.77,158.23z"/>
	<path class="st11" d="M463.66,187.73c-3.01-6.67-4.26-9.44-6.79-9.44c-1.62,0-3.7,1.03-7.56,2.99c-0.96,0.49-1.81,0.74-2.52,0.74
		c-1.56,0-2.51-1.12-2.99-3.53c-0.77-3.83-2.47-5.62-5.36-5.62c-1.25,0-2.75,0.34-4.6,1.03c-2.56,0.96-4.7,1.42-6.54,1.42
		c-4.45,0-7.29-2.8-8.7-8.55c-0.85-3.48-2.9-5.39-5.78-5.39c-1.15,0-2.42,0.3-3.78,0.9c-0.27,0.12-0.55,0.26-0.84,0.41
		c-0.84,0.43-1.79,0.92-2.73,0.92c-0.99,0-1.81-0.53-2.5-1.63l-0.09-0.14c-2.54-4.03-4.93-7.83-9.51-7.83
		c-1.25,0-2.63,0.29-4.12,0.88c-0.15,0.06-0.3,0.09-0.45,0.09c-0.43,0-0.87-0.23-1.28-0.65c-0.74-0.77-1.23-2.05-1.18-3.11
		c0.13-3.17,0.67-7.18,3.67-10.03c0.6-0.57,1.35-0.88,2.15-0.88c0.91,0,1.84,0.38,2.63,1.08c2.37,2.1,4.67,4.41,6.7,6.44
		c1.59,1.59,2.89,2.3,4.23,2.3c0.99,0,1.98-0.4,3.02-1.22c1.63-1.28,3.21-1.93,4.7-1.93c2.17,0,4.22,1.38,6.1,4.1l0.41,0.6
		c2.51,3.65,4.88,7.09,8.71,7.09c1.8,0,3.79-0.75,6.08-2.28c0.52-0.35,1.09-0.53,1.69-0.53c2.42,0,4.93,2.83,6.76,4.89
		c2.95,3.33,5.98,4.86,9.58,4.86c0.47,0,0.95-0.03,1.45-0.08c0.82-0.09,1.48-0.13,2.08-0.13c2.27,0,5.02,0.49,6.18,4.31
		c0.64,2.1,2.04,2.54,3.96,2.54c0.32,0,0.64-0.01,0.96-0.02c0.32-0.01,0.64-0.02,0.95-0.02c0.15,0,0.29,0,0.43,0.01l0.6,0.02
		c2.71,0.09,5.52,0.18,6.19,3.66c0.65,3.38-1.91,4.5-4.5,5.16c-2.1,0.53-3.36,2.08-4.82,3.88c-0.73,0.9-1.49,1.84-2.42,2.73
		l-0.1,0.1L463.66,187.73z"/>
	<path class="st11" d="M463.75,187.69c-5.04-11.17-5.1-11.28-14.48-6.49c-3.46,1.76-4.81,0.12-5.37-2.72
		c-1.27-6.35-5.1-6.53-10.1-4.66c-7.37,2.76-12.89,2.02-15.11-7.06c-1.14-4.65-4.5-6.83-9.7-4.56c-1.74,0.76-4.09,2.68-5.95-0.27
		c-3.19-5.07-6.27-10.1-13.84-7.14c-1.37,0.54-2.85-1.78-2.78-3.58c0.15-3.67,0.84-7.31,3.64-9.96c1.36-1.29,3.26-1.02,4.64,0.2
		c2.32,2.05,4.51,4.24,6.69,6.44c2.21,2.23,4.5,3.36,7.38,1.1c4.37-3.43,7.83-1.95,10.66,2.15c3.8,5.49,7.1,10.95,15.34,5.43
		c2.81-1.88,6.13,1.89,8.35,4.39c3.01,3.39,6.38,5.26,11.07,4.77c3.43-0.36,6.84-0.21,8.15,4.11c1.01,3.34,3.99,2.48,6.4,2.57
		c2.87,0.11,5.99-0.06,6.7,3.6c0.63,3.24-1.76,4.37-4.42,5.04C467.84,181.86,466.54,185.02,463.75,187.69z"/>
	<path class="st8" d="M245.26,399.23c-1.42,0-2.98-0.4-4.63-1.17c-3.87-1.83-5.58-5.23-4.58-9.09c1.65-6.38,6.06-11.47,11.22-12.95
		c1.02-0.29,1.93-0.44,2.71-0.44c3.98,0,4.09,3.76,4.17,6.5c0.02,0.75,0.04,1.46,0.14,1.98c0.51,5.75-0.54,9.54-3.51,12.67
		C249.21,398.38,247.35,399.23,245.26,399.23z"/>
	<path class="st8" d="M254.2,384.06c0.52,5.91-0.63,9.57-3.48,12.58c-2.94,3.11-6.49,2.99-10.04,1.32
		c-3.76-1.77-5.54-5.08-4.53-8.98c1.56-6,5.74-11.33,11.15-12.88C255.35,373.79,253.67,381.28,254.2,384.06z"/>
</g>
</svg>
